if (_typeface_js && _typeface_js.loadFace) _typeface_js.loadFace({"glyphs":{"ⴟ":{"x_min":36.625,"x_max":1223.421875,"ha":1183,"o":"m 906 449 l 897 447 q 915 481 906 465 q 931 514 923 498 q 948 546 939 529 q 966 580 956 562 q 891 567 927 574 q 819 555 855 561 q 747 542 783 548 q 671 529 711 536 q 688 476 680 500 q 704 427 696 451 q 720 379 712 403 q 737 325 728 354 l 906 449 m 857 -64 l 846 -61 q 877 -68 860 -64 q 911 -77 893 -73 q 945 -85 928 -81 q 975 -93 961 -89 l 944 -228 l 714 -176 l 632 94 q 423 -46 526 22 q 214 -188 321 -116 l 227 -182 l 210 -302 l 36 -302 l 57 -151 l 596 220 q 550 364 571 294 q 505 508 528 434 q 472 503 487 505 q 440 498 456 500 q 408 492 425 495 q 373 487 391 489 q 363 459 368 474 q 354 433 358 445 l 168 433 l 221 589 l 143 589 l 153 652 l 244 652 q 250 671 246 660 q 257 691 254 682 l 453 691 l 405 564 q 705 612 556 588 q 1007 660 855 636 q 1020 689 1013 673 q 1032 719 1027 705 l 1223 719 l 1070 409 l 773 196 l 857 -64 "},"ᴴ":{"x_min":-21.015625,"x_max":849.75,"ha":827,"o":"m -21 464 l -10 509 l 70 509 l 174 976 l 92 976 l 103 1021 l 431 1021 l 421 976 l 339 976 l 297 788 l 551 788 l 592 976 l 511 976 l 521 1021 l 849 1021 l 839 976 l 757 976 l 653 509 l 735 509 l 725 464 l 397 464 l 407 509 l 488 509 l 539 737 l 286 737 l 235 509 l 317 509 l 307 464 l -21 464 "},"":{"x_min":39.703125,"x_max":1103.34375,"ha":1055,"o":"m 207 978 q 251 1069 219 1025 q 330 1145 284 1112 q 431 1197 375 1178 q 543 1217 486 1217 q 599 1208 573 1217 q 646 1187 625 1200 q 682 1154 667 1173 q 709 1116 698 1136 q 757 1154 730 1136 q 812 1186 783 1172 q 873 1208 841 1200 q 935 1217 904 1217 q 1011 1198 975 1217 q 1070 1144 1046 1179 q 1101 1058 1093 1109 q 1092 942 1108 1007 l 880 942 q 910 999 898 974 q 927 1044 922 1024 q 926 1091 934 1074 q 886 1109 917 1109 q 843 1105 864 1109 q 803 1087 822 1101 q 768 1047 784 1074 q 741 974 753 1020 l 727 918 l 596 918 l 611 974 q 622 1047 622 1020 q 613 1088 622 1074 q 589 1105 604 1101 q 555 1110 573 1110 q 519 1104 537 1110 q 485 1089 501 1099 q 456 1061 469 1078 q 438 1022 443 1045 l 365 733 q 423 766 392 750 q 484 794 453 782 q 544 813 514 806 q 597 820 573 820 q 744 792 677 820 q 855 713 811 765 q 915 586 899 661 q 907 416 930 511 q 830 230 881 311 q 710 93 779 149 q 558 8 641 37 q 383 -20 474 -20 q 222 5 293 -20 q 106 80 151 31 q 45 198 61 128 q 53 357 30 268 l 207 978 m 295 413 q 273 294 278 345 q 272 208 268 244 q 290 149 277 172 q 322 112 303 126 q 365 93 341 98 q 417 88 390 88 q 499 105 462 88 q 565 163 535 123 q 620 265 595 202 q 667 417 645 328 q 688 556 688 499 q 675 647 688 612 q 633 697 663 682 q 559 713 603 713 q 483 690 523 713 q 407 628 443 668 q 341 533 371 588 q 295 413 311 478 "},"⟆":{"x_min":-50.859375,"x_max":661.21875,"ha":635,"o":"m -50 -227 l -37 -161 q 17 -156 -9 -161 q 93 -148 44 -152 q 313 111 280 -133 q 262 536 327 225 q 227 929 195 855 q 459 1067 288 1067 q 661 942 609 1067 l 541 888 q 476 973 514 973 q 391 864 409 973 q 452 512 386 835 q 494 66 518 190 q 132 -219 448 -163 q 24 -227 93 -227 q -50 -227 -44 -227 "},"ₑ":{"x_min":52,"x_max":542,"ha":617,"o":"m 379 224 q 390 305 390 274 q 386 333 390 322 q 337 365 377 365 q 274 334 298 365 q 233 224 248 297 l 379 224 m 223 180 q 215 113 215 143 q 224 65 215 83 q 302 31 243 31 q 386 54 351 31 q 440 120 421 76 l 510 120 q 415 20 477 52 q 255 -11 354 -11 q 87 43 138 -11 q 52 141 52 81 q 58 198 52 167 q 157 352 80 297 q 348 408 234 408 q 508 349 461 408 q 542 243 542 309 q 535 180 542 213 l 223 180 "},"ȋ":{"x_min":46.796875,"x_max":545.4375,"ha":528,"o":"m 302 82 l 405 82 l 389 0 l 46 0 l 170 639 l 68 639 l 84 721 l 426 721 l 302 82 m 540 854 l 455 854 q 428 929 461 903 q 328 956 395 956 q 218 929 261 956 q 161 854 174 903 l 76 854 q 168 1009 95 953 q 349 1065 240 1065 q 509 1010 459 1065 q 540 854 558 955 "},"‥":{"x_min":110.03125,"x_max":825.84375,"ha":936,"o":"m 565 109 q 621 200 575 162 q 719 238 666 238 q 802 200 772 238 q 823 109 833 162 q 767 17 813 55 q 669 -20 722 -20 q 585 17 616 -20 q 565 109 555 55 m 112 109 q 168 200 122 162 q 266 238 213 238 q 350 200 320 238 q 370 109 381 162 q 315 17 360 55 q 216 -20 269 -20 q 132 17 163 -20 q 112 109 102 55 "},"𝒙":{"x_min":-24.421875,"x_max":840.9375,"ha":828,"o":"m 507 459 l 743 720 l 840 720 l 532 381 l 688 82 l 783 82 l 768 0 l 461 0 l 320 271 l 71 0 l -24 0 l 292 351 l 142 639 l 61 639 l 77 721 l 370 721 l 507 459 "},"⇜":{"x_min":52,"x_max":1085,"ha":1164,"o":"m 525 666 l 695 464 l 865 666 l 985 523 l 1085 523 l 1085 374 l 915 374 l 865 434 l 695 231 l 525 434 l 474 374 l 281 374 l 370 165 l 334 165 l 52 445 l 52 451 l 334 731 l 370 731 l 281 523 l 405 523 l 525 666 "},"⣌":{"x_min":203,"x_max":881,"ha":1084,"o":"m 242 129 q 203 225 203 169 q 243 321 203 281 q 338 361 283 361 q 433 321 393 361 q 474 225 474 281 q 434 129 474 169 q 338 90 394 90 q 242 129 282 90 m 649 853 q 610 949 610 893 q 650 1045 610 1005 q 745 1085 690 1085 q 840 1045 800 1085 q 881 949 881 1005 q 841 853 881 893 q 745 814 801 814 q 649 853 689 814 m 242 -231 q 203 -135 203 -191 q 243 -39 203 -79 q 338 0 283 0 q 433 -39 393 0 q 474 -135 474 -79 q 434 -231 474 -191 q 338 -271 394 -271 q 242 -231 282 -271 m 649 -231 q 610 -135 610 -191 q 650 -39 610 -79 q 745 0 690 0 q 840 -39 800 0 q 881 -135 881 -79 q 841 -231 881 -191 q 745 -271 801 -271 q 649 -231 689 -271 "},"⡡":{"x_min":203,"x_max":881,"ha":1084,"o":"m 242 853 q 203 949 203 893 q 243 1045 203 1005 q 338 1085 283 1085 q 433 1045 393 1085 q 474 949 474 1005 q 434 853 474 893 q 338 814 394 814 q 242 853 282 814 m 649 129 q 610 225 610 169 q 650 321 610 281 q 745 361 690 361 q 840 321 800 361 q 881 225 881 281 q 841 129 881 169 q 745 90 801 90 q 649 129 689 90 m 242 -231 q 203 -135 203 -191 q 243 -39 203 -79 q 338 0 283 0 q 433 -39 393 0 q 474 -135 474 -79 q 434 -231 474 -191 q 338 -271 394 -271 q 242 -231 282 -271 "},"Ⅲ":{"x_min":-32.546875,"x_max":1430.9375,"ha":1396,"o":"m -32 0 l -16 82 l 112 82 l 278 931 l 148 931 l 164 1013 l 1430 1013 l 1415 931 l 1285 931 l 1119 82 l 1249 82 l 1234 0 l -32 0 m 858 82 l 1024 931 l 912 931 l 746 82 l 858 82 m 485 82 l 651 931 l 539 931 l 373 82 l 485 82 "},"⤒":{"x_min":298.125,"x_max":864.875,"ha":1163,"o":"m 507 0 l 507 695 l 298 607 l 298 643 l 507 853 l 507 856 l 315 856 l 315 1005 l 848 1005 l 848 856 l 656 856 l 656 853 l 864 643 l 864 607 l 656 695 l 656 0 l 507 0 "},"Ƹ":{"x_min":-0.734375,"x_max":899.9375,"ha":912,"o":"m 396 568 l 217 919 l 236 1012 l 899 1012 l 852 767 l 759 767 l 788 919 l 497 919 l 626 659 l 596 507 l 552 507 q 374 448 444 507 q 282 278 303 388 q 307 116 262 173 q 455 59 352 59 q 612 109 549 59 q 700 257 674 160 l 782 257 l 739 34 q 553 -6 641 7 q 385 -20 465 -20 q 75 55 172 -20 q 5 272 -22 131 q 157 497 33 415 q 396 568 244 554 "},"ˌ":{"x_min":99.015625,"x_max":292.96875,"ha":392,"o":"m 99 -125 l 165 217 l 292 217 l 226 -125 l 99 -125 "},"დ":{"x_min":37.625,"x_max":1178,"ha":1233,"o":"m 935 453 q 952 523 946 491 q 959 580 959 555 q 943 633 959 614 q 891 653 928 653 q 826 641 854 653 q 777 601 799 629 q 736 524 755 572 q 696 402 716 476 q 676 323 683 357 q 670 263 670 288 q 691 202 670 220 q 758 184 712 184 q 813 193 791 184 q 853 226 835 203 q 885 290 870 250 q 917 391 900 330 l 935 453 m 557 -306 q 567 -280 564 -293 q 570 -257 570 -268 q 545 -192 570 -222 q 483 -142 521 -163 q 403 -109 446 -121 q 321 -98 359 -98 q 285 -102 303 -98 q 246 -121 268 -107 q 196 -158 224 -134 q 126 -220 167 -182 l 37 -87 q 82 -54 60 -68 q 127 -29 104 -40 q 176 -9 150 -17 q 231 3 201 -1 q 168 54 199 27 q 113 115 137 81 q 74 192 89 149 q 60 292 60 235 q 73 406 60 349 q 114 517 87 464 q 181 617 142 571 q 273 698 221 664 q 388 752 325 732 q 524 772 451 772 q 588 766 561 772 q 635 750 615 760 q 669 727 655 740 q 693 699 682 714 q 804 752 747 732 q 924 772 862 772 q 1031 756 983 772 q 1110 711 1078 741 q 1160 639 1143 682 q 1178 540 1178 596 q 1157 408 1178 480 q 1093 265 1135 328 q 996 157 1051 202 q 872 90 940 113 q 731 67 805 67 q 616 85 666 67 q 530 137 566 104 q 477 215 495 170 q 459 311 459 260 q 471 396 459 352 q 492 462 481 432 q 518 520 503 492 q 553 573 533 547 q 599 625 573 599 l 601 625 q 579 639 590 633 q 555 647 568 644 q 526 651 542 651 q 487 651 510 651 q 425 635 452 651 q 377 588 399 619 q 337 511 355 556 q 302 405 319 465 q 286 294 286 346 q 330 145 286 208 q 454 41 375 83 q 519 8 486 24 q 584 -23 552 -6 q 644 -59 616 -40 q 694 -102 673 -78 q 728 -157 715 -127 q 741 -226 741 -188 q 738 -264 741 -244 q 729 -306 735 -284 l 557 -306 "},"Ԓ":{"x_min":-33.234375,"x_max":1292.59375,"ha":1228,"o":"m 342 -242 l 373 -83 l 461 -83 q 473 -177 453 -147 q 545 -207 493 -207 q 646 -156 611 -207 q 710 33 682 -105 l 882 920 l 573 920 l 536 732 q 360 114 455 315 q 158 -20 297 -20 q -33 32 19 -20 l -3 185 l 84 185 q 96 91 75 121 q 169 62 116 62 q 261 116 222 62 q 349 344 299 171 q 441 732 399 516 l 480 931 l 350 931 l 366 1013 l 1292 1013 l 1276 931 l 1146 931 l 971 27 q 841 -212 939 -136 q 562 -289 743 -289 q 451 -277 505 -289 q 342 -242 396 -265 "},"ϼ":{"x_min":-27.125,"x_max":944.390625,"ha":962,"o":"m -27 -213 l -10 -131 l 56 -131 l 137 284 q 496 730 214 680 q 657 740 556 740 q 898 640 833 740 q 933 361 967 536 q 790 81 898 183 q 528 -20 682 -20 q 405 7 452 -20 q 340 91 359 35 l 297 -131 l 569 -131 l 553 -213 l 280 -213 l 265 -288 l 25 -288 l 40 -213 l -27 -213 m 399 395 l 385 324 q 382 142 360 198 q 475 86 403 86 q 591 145 549 86 q 663 360 632 205 q 677 591 696 532 q 585 651 659 651 q 470 594 513 651 q 399 395 427 538 "},"ȡ":{"x_min":19.5625,"x_max":1007.375,"ha":1098,"o":"m 455 28 q 419 8 450 22 q 286 -20 362 -20 q 64 81 132 -20 q 31 360 -3 183 q 173 639 65 538 q 434 741 280 741 q 556 713 509 741 q 622 629 602 685 l 689 974 l 585 974 l 602 1055 l 945 1055 l 792 267 l 852 267 q 925 259 883 267 q 1003 131 1024 241 q 737 -19 973 -19 q 584 35 642 -19 q 573 51 572 48 q 537 16 553 35 q 494 -67 513 -12 l 419 -67 q 455 28 429 -14 m 779 204 l 779 202 q 776 87 762 118 q 811 66 785 66 q 912 123 900 66 q 803 207 928 207 q 779 204 792 207 m 562 324 l 577 396 q 579 578 601 522 q 486 635 558 635 q 370 575 412 635 q 298 360 328 516 q 287 145 268 205 q 380 86 306 86 q 495 142 451 86 q 562 324 538 198 "},"◦":{"x_min":208,"x_max":611,"ha":819,"o":"m 248 516 q 294 401 248 448 q 409 355 341 355 q 524 401 477 355 q 571 516 571 448 q 524 630 571 583 q 410 677 478 677 q 295 630 342 677 q 248 516 248 583 m 208 516 q 266 658 208 600 q 410 717 325 717 q 552 658 494 717 q 611 516 611 600 q 552 373 611 431 q 409 315 494 315 q 266 373 324 315 q 208 516 208 431 "},"ņ":{"x_min":78.40625,"x_max":921.65625,"ha":1010,"o":"m 374 -264 q 464 -201 432 -236 q 505 -119 496 -165 l 511 -90 l 656 -90 l 655 -92 q 582 -221 641 -168 q 420 -313 526 -275 l 374 -264 m 78 0 l 202 639 l 100 639 l 115 721 l 458 721 l 438 619 q 555 712 494 683 q 701 741 616 741 q 870 668 822 741 q 902 550 902 623 q 891 458 902 508 l 818 82 l 921 82 l 906 0 l 563 0 l 653 465 q 663 545 663 512 q 654 592 663 575 q 580 628 638 628 q 463 574 508 628 q 397 405 419 521 l 318 0 l 78 0 "},"Ⅽ":{"x_min":45.390625,"x_max":1091.96875,"ha":1105,"o":"m 992 289 q 803 56 922 132 q 510 -20 685 -20 q 132 121 253 -20 q 58 505 11 262 q 281 889 105 748 q 714 1031 458 1031 q 898 1009 805 1031 q 1091 943 991 987 l 1043 694 l 957 694 q 899 885 957 821 q 726 949 841 949 q 485 840 578 949 q 348 505 392 731 q 355 170 304 279 q 555 62 406 62 q 731 118 656 62 q 858 289 806 174 l 992 289 "},"ỳ":{"x_min":-26.078125,"x_max":886.0625,"ha":807,"o":"m 486 1078 l 611 823 l 500 823 l 297 1078 l 486 1078 m 336 -185 l 144 639 l 66 639 l 82 721 l 376 721 l 538 23 q 668 263 616 136 q 772 637 720 390 l 675 637 l 691 720 l 886 720 q 844 521 869 633 q 709 118 784 246 q 350 -274 510 -213 q 130 -309 260 -309 q -26 -279 66 -309 l 3 -129 l 79 -129 q 77 -159 77 -145 q 108 -221 77 -206 q 152 -231 123 -227 q 184 -234 168 -234 q 336 -185 260 -234 "},"қ":{"x_min":78.34375,"x_max":947.15625,"ha":977,"o":"m 100 639 l 115 721 l 458 721 l 399 416 l 484 488 q 654 648 487 492 q 821 741 753 741 q 947 721 869 741 l 919 582 l 833 582 q 764 642 828 642 q 699 598 739 642 q 552 453 659 555 l 476 380 q 718 273 679 349 q 741 126 729 252 q 796 57 748 57 q 869 162 830 57 l 935 145 q 913 59 927 90 q 899 -11 899 27 q 908 -67 899 -35 q 918 -139 918 -99 q 831 -259 918 -221 q 667 -298 745 -298 l 667 -245 q 747 -211 706 -245 q 788 -112 788 -178 q 812 -54 788 -80 q 837 -18 837 -29 q 827 -6 837 -7 l 828 -5 q 730 -19 797 -19 q 552 24 634 -19 q 490 221 490 54 q 455 284 490 271 l 396 305 l 372 282 l 318 0 l 78 0 l 202 639 l 100 639 "},"":{"x_min":28,"x_max":1021.546875,"ha":1046,"o":"m 630 362 q 655 527 655 460 q 642 636 655 594 q 602 695 630 677 q 535 713 574 713 q 465 701 501 713 q 396 655 430 689 q 333 561 363 622 q 279 404 304 501 q 261 271 261 330 q 273 172 261 212 q 316 109 286 131 q 390 88 345 88 q 469 107 432 88 q 536 161 505 126 q 591 248 567 197 q 630 362 614 299 m 863 339 q 795 197 844 262 q 678 83 746 131 q 527 7 610 34 q 360 -20 445 -20 q 243 -2 295 -20 q 150 45 191 15 q 83 117 110 75 q 42 205 56 158 q 28 303 28 252 q 40 404 28 354 q 88 531 57 474 q 161 635 120 589 q 250 716 202 681 q 351 773 299 750 q 457 808 404 796 q 560 820 510 820 q 666 799 620 820 q 743 743 713 778 l 801 976 q 806 1042 811 1016 q 781 1083 801 1068 q 725 1104 760 1098 q 640 1110 690 1110 l 667 1217 q 831 1199 759 1217 q 948 1146 903 1181 q 1012 1060 994 1111 q 1013 943 1030 1008 l 863 339 "},"⥍":{"x_min":298.125,"x_max":864.875,"ha":1163,"o":"m 507 735 l 298 646 l 298 682 l 649 1037 l 656 1037 l 656 269 l 864 358 l 864 322 l 513 -32 l 507 -32 l 507 735 "},"ѕ":{"x_min":-1.09375,"x_max":752.875,"ha":781,"o":"m 37 222 l 114 222 q 114 202 114 211 q 153 96 114 135 q 274 56 193 56 q 451 154 432 56 q 454 186 454 167 q 436 225 454 205 q 351 263 419 245 l 257 288 q 117 360 151 316 q 83 458 83 404 q 87 508 83 481 q 203 683 110 625 q 443 740 295 740 q 752 697 591 740 l 716 515 l 639 515 q 642 539 642 527 q 489 664 642 664 q 318 572 335 664 q 316 545 316 561 q 399 479 316 501 l 492 453 q 664 372 627 418 q 702 269 702 327 q 696 218 702 245 q 574 37 672 95 q 292 -20 476 -20 q -1 20 158 -20 l 37 222 "},"Ḏ":{"x_min":-32.546875,"x_max":1160.3125,"ha":1204,"o":"m 373 82 l 467 82 q 720 183 626 82 q 856 507 813 285 q 846 828 899 727 q 633 930 792 930 l 539 930 l 373 82 m -32 0 l -16 82 l 112 82 l 278 930 l 148 930 l 164 1012 l 683 1012 q 1075 881 956 1012 q 1146 507 1194 751 q 929 130 1099 260 q 486 0 758 0 l -32 0 m 255 -96 l 682 -96 l 658 -224 l 231 -224 l 255 -96 "},"ŭ":{"x_min":88.328125,"x_max":932.21875,"ha":1010,"o":"m 368 1077 l 453 1077 q 480 1001 448 1028 q 580 975 513 975 q 690 1001 648 975 q 747 1077 734 1028 l 832 1077 q 740 921 813 978 q 559 866 669 866 q 399 921 449 866 q 368 1077 350 976 m 932 721 l 808 82 l 910 82 l 894 0 l 551 0 l 571 101 q 454 8 515 37 q 308 -20 393 -20 q 139 51 187 -20 q 108 170 108 97 q 118 262 108 212 l 191 639 l 88 639 l 103 721 l 447 721 l 365 299 q 349 169 349 215 q 355 128 349 142 q 429 93 370 93 q 546 146 502 93 q 612 316 590 200 l 691 721 l 932 721 "},"◴":{"x_min":76,"x_max":1136,"ha":1212,"o":"m 146 94 q 76 359 76 217 q 146 623 76 500 q 340 818 217 747 q 606 889 463 889 q 871 818 748 889 q 1065 623 994 747 q 1136 359 1136 500 q 1065 94 1136 217 q 871 -99 994 -28 q 606 -171 748 -171 q 340 -99 463 -171 q 146 94 217 -28 m 567 813 q 377 750 472 803 q 164 399 164 629 l 567 399 l 567 813 m 164 322 q 374 -29 164 91 q 601 -94 488 -94 q 828 -29 715 -94 q 1057 360 1057 101 q 830 750 1057 619 q 644 813 737 803 l 644 322 l 164 322 "},"ɭ":{"x_min":56.4375,"x_max":544.5625,"ha":528,"o":"m 77 0 l 77 0 l 266 974 l 164 974 l 179 1055 l 522 1055 l 355 193 l 301 -85 q 299 -200 285 -168 q 362 -232 312 -232 q 431 -208 406 -232 q 467 -130 455 -184 l 544 -130 l 514 -282 q 415 -301 462 -295 q 327 -308 368 -308 q 107 -252 174 -308 q 61 -85 40 -195 l 77 0 "},"⁍":{"x_min":104,"x_max":589,"ha":693,"o":"m 250 263 l 104 263 l 104 751 l 250 751 l 250 263 m 345 752 q 438 733 394 752 q 518 681 482 715 q 571 603 553 647 q 589 508 589 559 q 570 414 589 458 q 518 335 552 369 q 439 282 483 300 q 346 264 395 264 l 345 264 l 345 752 "},"ἣ":{"x_min":105.796875,"x_max":930.0625,"ha":1010,"o":"m 105 0 l 229 639 l 127 639 l 143 721 l 486 721 l 466 619 q 583 712 522 683 q 729 741 644 741 q 899 668 851 741 q 920 458 947 598 l 774 -289 l 534 -289 l 681 465 q 682 592 699 556 q 608 628 665 628 q 491 574 535 628 q 425 405 447 521 l 345 0 l 105 0 m 751 1111 l 876 856 l 764 856 l 562 1111 l 751 1111 m 394 973 q 443 860 405 892 l 370 828 q 298 954 318 909 q 297 1041 286 981 q 344 1124 305 1079 q 431 1162 385 1162 q 495 1133 475 1162 q 512 1063 518 1100 q 468 993 503 1021 q 394 973 435 967 "},"⊓":{"x_min":147,"x_max":1016,"ha":1163,"o":"m 147 0 l 147 871 l 1016 871 l 1016 0 l 860 0 l 860 715 l 303 715 l 303 0 l 147 0 "},"𝝋":{"x_min":85.25,"x_max":1226.578125,"ha":1257,"o":"m 718 72 q 754 82 740 76 q 874 161 826 112 q 960 391 926 216 q 970 588 986 525 q 906 664 950 664 q 800 498 833 664 l 718 72 m 703 1 l 648 -289 l 408 -289 l 463 3 q 284 18 321 3 q 168 87 206 50 q 96 211 130 124 q 94 378 74 271 q 206 587 118 498 q 421 721 293 676 l 508 721 l 502 691 q 426 588 478 674 q 359 391 384 519 q 357 161 329 237 q 441 82 382 91 q 478 77 469 77 l 560 498 q 779 720 594 672 q 1027 720 927 759 q 1190 588 1152 668 q 1220 380 1241 483 q 1154 215 1200 274 q 1035 91 1087 128 q 892 22 989 60 q 703 1 847 1 "},"Ɲ":{"x_min":-240.078125,"x_max":1341.421875,"ha":1270,"o":"m -240 -242 l -209 -83 l -121 -83 q -75 -200 -139 -180 q -37 -207 -59 -207 q 64 -155 28 -207 q 127 33 100 -105 l 301 931 l 172 931 l 188 1013 l 505 1013 l 976 296 l 1099 931 l 971 931 l 987 1013 l 1341 1013 l 1325 931 l 1195 931 l 1014 0 l 836 0 l 358 732 l 221 28 q 96 -236 184 -165 q -65 -289 30 -289 q -131 -277 -76 -289 q -240 -242 -185 -265 "},"⇱":{"x_min":106,"x_max":1063.859375,"ha":1163,"o":"m 106 0 l 106 963 l 1063 963 l 1063 882 l 187 882 l 187 0 l 106 0 m 1028 146 l 922 40 l 355 607 l 269 398 l 244 423 l 244 820 l 248 825 l 645 825 l 670 799 l 461 713 l 1028 146 "},"⁸":{"x_min":12.421875,"x_max":578.234375,"ha":608,"o":"m 412 760 q 517 711 486 749 q 534 611 547 673 q 441 493 517 534 q 240 453 365 453 q 56 493 114 453 q 16 611 0 534 q 78 711 29 673 q 204 760 126 749 q 114 805 141 773 q 99 885 88 836 q 183 993 114 956 q 368 1031 252 1031 q 537 993 484 1031 q 574 885 590 956 q 522 805 563 837 q 412 760 482 773 m 408 883 q 410 965 421 943 q 359 988 398 988 q 298 965 319 988 q 264 883 277 943 q 262 803 251 825 q 313 782 273 782 q 374 803 353 782 q 408 883 395 825 m 365 618 q 366 712 381 686 q 303 738 352 738 q 229 712 254 738 q 188 618 203 686 q 187 522 172 549 q 250 496 200 496 q 324 522 298 496 q 365 618 350 549 "},"k":{"x_min":47.46875,"x_max":899.25,"ha":962,"o":"m 287 0 l 47 0 l 236 974 l 134 974 l 149 1055 l 492 1055 l 360 377 l 702 639 l 616 639 l 632 721 l 827 721 l 811 639 l 593 472 l 821 82 l 899 82 l 883 0 l 618 0 l 420 339 l 341 279 l 287 0 "},"ȇ":{"x_min":46,"x_max":824,"ha":884,"o":"m 777 867 l 692 867 q 665 942 698 916 q 565 969 632 969 q 455 942 498 969 q 398 867 412 916 l 314 867 q 405 1022 333 966 q 586 1078 477 1078 q 746 1023 697 1078 q 777 867 796 968 m 583 564 q 499 664 583 664 q 396 603 434 664 q 324 352 358 542 q 339 352 324 352 q 578 516 546 352 q 583 564 583 542 m 308 281 q 304 206 304 256 q 443 56 304 56 q 577 98 521 56 q 662 218 633 139 l 775 218 q 624 37 722 95 q 370 -20 526 -20 q 102 78 183 -20 q 46 256 46 147 q 56 358 46 303 q 213 640 91 539 q 514 740 335 740 q 734 690 644 740 q 824 548 824 639 q 819 510 824 529 q 308 281 777 281 "},"⠽":{"x_min":203,"x_max":881,"ha":1084,"o":"m 242 853 q 203 949 203 893 q 243 1045 203 1005 q 338 1085 283 1085 q 433 1045 393 1085 q 474 949 474 1005 q 434 853 474 893 q 338 814 394 814 q 242 853 282 814 m 242 129 q 203 225 203 169 q 243 321 203 281 q 338 361 283 361 q 433 321 393 361 q 474 225 474 281 q 434 129 474 169 q 338 90 394 90 q 242 129 282 90 m 649 853 q 610 949 610 893 q 650 1045 610 1005 q 745 1085 690 1085 q 840 1045 800 1085 q 881 949 881 1005 q 841 853 881 893 q 745 814 801 814 q 649 853 689 814 m 649 491 q 610 587 610 531 q 650 683 610 643 q 745 723 690 723 q 840 683 800 723 q 881 587 881 643 q 841 491 881 531 q 745 452 801 452 q 649 491 689 452 m 649 129 q 610 225 610 169 q 650 321 610 281 q 745 361 690 361 q 840 321 800 361 q 881 225 881 281 q 841 129 881 169 q 745 90 801 90 q 649 129 689 90 "},"ί":{"x_min":103.078125,"x_max":662.578125,"ha":672,"o":"m 552 22 q 208 30 325 -53 q 126 236 101 107 l 205 639 l 103 639 l 118 721 l 461 721 l 366 234 q 420 82 337 82 q 572 127 503 82 l 552 22 m 473 1111 l 662 1111 l 359 856 l 248 856 l 473 1111 "},"Ù":{"x_min":131.5625,"x_max":1281.0625,"ha":1211,"o":"m 260 930 l 131 930 l 147 1012 l 668 1012 l 652 930 l 522 930 l 424 423 q 432 158 387 234 q 619 83 476 83 q 832 159 759 83 q 942 423 906 235 l 1040 930 l 912 930 l 928 1012 l 1281 1012 l 1264 930 l 1135 930 l 1034 409 q 869 78 989 177 q 513 -20 750 -20 q 196 79 278 -20 q 160 410 114 179 l 260 930 m 760 1288 l 848 1109 l 737 1109 l 571 1288 l 760 1288 "},"ᵗ":{"x_min":79.90625,"x_max":433.015625,"ha":514,"o":"m 145 815 l 79 815 l 90 860 l 155 860 l 182 982 l 334 982 l 306 860 l 433 860 l 422 815 l 296 815 l 242 572 q 235 522 235 539 q 237 507 235 512 q 268 495 244 495 q 312 511 296 495 q 338 561 329 527 l 401 561 q 346 477 384 501 q 224 453 306 453 q 103 478 131 453 q 86 529 86 495 q 91 572 86 548 l 145 815 "},"ὓ":{"x_min":101.71875,"x_max":919.8125,"ha":964,"o":"m 422 -1 q 126 236 80 -1 l 204 639 l 101 639 l 118 721 l 460 721 l 365 235 q 438 82 335 82 q 565 161 505 82 q 652 391 622 237 q 662 588 678 521 q 625 691 643 674 l 632 721 l 719 721 q 882 588 829 676 q 912 381 935 500 q 847 215 892 275 q 727 92 779 129 q 583 23 661 47 q 422 -1 505 -1 m 732 1111 l 857 856 l 745 856 l 543 1111 l 732 1111 m 375 973 q 424 860 386 891 l 351 828 q 279 954 299 909 q 278 1041 267 981 q 325 1124 286 1079 q 412 1163 366 1163 q 476 1133 456 1163 q 493 1063 499 1100 q 449 993 484 1021 q 375 973 416 967 "},"Ҷ":{"x_min":125.4375,"x_max":1294.546875,"ha":1268,"o":"m 125 931 l 141 1013 l 646 1013 l 630 931 l 515 931 l 463 662 q 459 602 459 636 q 487 531 459 568 q 583 494 515 494 l 803 494 l 888 931 l 758 931 l 774 1013 l 1294 1013 l 1278 931 l 1149 931 l 984 82 l 1141 82 l 1083 -218 l 1007 -218 l 1007 -77 q 951 0 1007 0 l 577 0 l 593 82 l 723 82 l 787 412 l 494 412 q 268 474 339 412 q 198 617 198 536 q 202 662 198 638 l 254 931 l 125 931 "},"Ⴣ":{"x_min":138.0625,"x_max":1155.765625,"ha":1128,"o":"m 510 82 l 594 82 l 679 481 l 466 481 q 335 486 390 481 q 244 508 280 492 q 191 551 208 523 q 174 624 174 579 q 176 652 174 637 q 182 686 178 668 l 222 883 l 138 883 l 156 970 l 566 970 l 548 883 l 466 883 l 429 708 q 423 674 425 690 q 422 645 422 659 q 436 584 422 606 q 484 562 451 562 l 697 562 l 809 1094 l 725 1094 l 743 1176 l 1155 1176 l 1138 1094 l 1052 1094 l 837 82 l 923 82 l 905 -1 l 493 -1 l 510 82 "},"⤤":{"x_min":260,"x_max":958,"ha":1163,"o":"m 512 103 l 618 -2 q 469 -63 556 -63 q 321 -1 382 -63 q 260 146 260 59 q 321 294 260 233 l 740 714 l 531 800 l 556 826 l 953 826 l 958 821 l 958 424 l 932 398 l 846 608 l 426 189 q 409 146 409 171 q 426 103 409 121 q 469 86 444 86 q 512 103 494 86 "},"ჳ":{"x_min":-54,"x_max":895.890625,"ha":869,"o":"m 423 377 q 493 396 456 377 q 567 446 531 415 q 635 515 604 476 q 687 592 667 553 q 617 560 655 575 q 540 535 578 546 q 467 519 502 525 q 410 513 433 513 q 308 518 356 513 q 225 539 261 524 q 168 580 189 554 q 147 646 147 606 q 156 708 147 679 q 182 763 166 737 q 221 810 199 788 q 268 853 243 833 l 452 792 q 387 726 409 758 q 365 662 365 694 q 368 643 365 652 q 378 627 371 634 q 400 615 386 619 q 435 611 413 611 q 519 621 479 611 q 596 651 559 631 q 671 701 634 671 q 743 771 707 731 l 895 771 q 825 587 865 661 q 742 464 786 513 q 652 386 699 416 q 559 336 605 356 l 559 336 q 669 250 632 301 q 706 134 706 200 q 695 61 706 98 l 676 -5 q 612 -132 656 -76 q 510 -229 569 -189 q 379 -291 451 -269 q 231 -313 308 -313 q 113 -293 166 -313 q 24 -241 61 -274 q -33 -164 -13 -208 q -54 -72 -54 -121 q -27 41 -54 -9 q 45 132 -1 93 q 156 197 92 171 q 293 237 219 224 l 300 167 q 267 139 284 159 q 233 93 250 119 q 204 40 217 68 q 183 -10 190 13 q 168 -104 168 -64 q 188 -170 168 -146 q 258 -195 208 -195 q 310 -188 284 -195 q 359 -164 336 -181 q 401 -120 382 -148 q 432 -49 420 -91 l 474 92 q 484 140 481 118 q 488 182 488 163 q 468 248 488 224 q 402 273 448 273 l 348 273 l 377 377 l 423 377 "},"∝":{"x_min":139,"x_max":794,"ha":933,"o":"m 519 447 q 447 523 488 498 q 352 549 405 549 q 249 510 289 549 q 210 412 210 472 q 246 316 210 354 q 338 278 283 278 q 431 317 388 278 q 519 447 474 356 m 794 136 q 695 174 746 136 q 581 309 644 212 q 482 177 535 219 q 364 135 429 135 q 204 214 269 135 q 139 413 139 294 q 197 615 139 538 q 348 692 255 692 q 463 652 411 692 q 575 517 515 612 q 675 649 621 606 q 794 693 729 693 l 794 549 q 728 510 770 549 q 638 380 686 471 q 711 303 669 329 q 794 278 752 278 l 794 136 "},"Ẹ":{"x_min":-32.546875,"x_max":1074.21875,"ha":1059,"o":"m -32 0 l -16 82 l 112 82 l 278 931 l 148 931 l 164 1013 l 1074 1013 l 1028 774 l 934 774 l 962 920 l 536 920 l 473 595 l 738 595 l 763 723 l 856 723 l 788 374 l 695 374 l 720 503 l 455 503 l 376 92 l 815 92 l 842 238 l 935 238 l 889 0 l -32 0 m 311 -196 q 354 -126 319 -155 q 429 -97 389 -97 q 495 -126 470 -97 q 510 -196 518 -155 q 467 -266 503 -236 q 391 -296 432 -296 q 327 -266 351 -296 q 311 -196 303 -236 "},"⬇":{"x_min":298,"x_max":865,"ha":1163,"o":"m 402 1005 l 761 1005 l 761 296 l 865 296 l 865 254 l 584 -28 l 578 -28 l 298 254 l 298 296 l 402 296 l 402 1005 "},"▎":{"x_min":-13,"x_max":260,"ha":1068,"o":"m -13 -347 l -13 1069 l 260 1069 l 260 -347 l -13 -347 "},"≠":{"x_min":147,"x_max":1016,"ha":1163,"o":"m 147 667 l 685 667 l 855 876 l 953 791 l 851 667 l 1016 667 l 1016 513 l 727 513 l 602 358 l 1016 358 l 1016 204 l 477 204 l 308 -6 l 209 79 l 311 204 l 147 204 l 147 358 l 435 358 l 560 513 l 147 513 l 147 667 "},"ƀ":{"x_min":34.421875,"x_max":896,"ha":971,"o":"m 223 974 l 120 974 l 136 1055 l 479 1055 l 450 904 l 693 904 l 675 811 l 431 811 l 396 629 q 494 713 437 685 q 627 741 551 741 q 849 639 781 741 q 896 470 896 571 q 884 360 896 419 q 741 81 849 183 q 479 -20 633 -20 q 357 7 403 -20 q 292 91 311 35 l 274 0 l 34 0 l 191 811 l 84 811 l 102 904 l 210 904 l 223 974 m 337 324 q 324 209 324 257 q 334 142 324 168 q 427 86 355 86 q 542 145 501 86 q 615 360 584 205 q 634 516 634 457 q 626 575 634 552 q 534 635 608 635 q 418 578 462 635 q 351 396 375 522 l 337 324 "},"ɼ":{"x_min":50.1875,"x_max":843.640625,"ha":732,"o":"m 843 729 l 801 514 l 724 514 q 710 599 732 571 q 637 628 689 628 q 499 558 558 628 q 417 366 440 488 l 290 -287 l 50 -287 l 229 639 l 120 639 l 136 721 l 486 721 l 461 592 q 576 704 511 668 q 724 741 640 741 q 775 737 745 741 q 843 729 805 734 "},"ᵸ":{"x_min":-21.015625,"x_max":849.75,"ha":827,"o":"m -21 464 l -10 509 l 70 509 l 174 976 l 92 976 l 103 1021 l 431 1021 l 421 976 l 339 976 l 297 788 l 551 788 l 592 976 l 511 976 l 521 1021 l 849 1021 l 839 976 l 757 976 l 653 509 l 735 509 l 725 464 l 397 464 l 407 509 l 488 509 l 539 737 l 286 737 l 235 509 l 317 509 l 307 464 l -21 464 "},"ϴ":{"x_min":44.671875,"x_max":1163.8125,"ha":1210,"o":"m 859 502 l 349 502 q 347 171 306 280 q 518 62 389 62 q 732 171 647 62 q 859 502 816 280 m 874 594 q 861 839 894 752 q 690 949 821 949 q 478 839 561 949 q 370 594 411 752 l 874 594 m 501 -20 q 128 119 246 -20 q 58 505 10 259 q 278 890 105 750 q 706 1031 451 1031 q 1079 891 962 1031 q 1150 505 1197 751 q 929 119 1102 259 q 501 -20 756 -20 "},"ʔ":{"x_min":73.25,"x_max":722.265625,"ha":745,"o":"m 191 82 l 284 564 l 363 564 q 438 584 413 564 q 500 756 474 612 q 517 948 528 915 q 437 980 506 980 q 352 956 376 980 q 316 878 329 933 l 239 878 l 267 1011 q 360 1045 314 1034 q 456 1056 407 1056 q 686 993 632 1056 q 712 778 741 930 q 602 560 680 617 q 513 502 532 507 l 431 82 l 534 82 l 518 0 l 73 0 l 88 82 l 191 82 "},"ᾞ":{"x_min":147.15625,"x_max":1698.140625,"ha":1662,"o":"m 316 0 l 332 82 l 461 82 l 627 931 l 497 931 l 513 1013 l 1034 1013 l 1018 931 l 888 931 l 821 590 l 1224 590 l 1291 931 l 1161 931 l 1177 1013 l 1698 1013 l 1682 931 l 1552 931 l 1386 82 l 1517 82 l 1501 0 l 980 0 l 996 82 l 1125 82 l 1206 497 l 803 497 l 722 82 l 853 82 l 837 0 l 316 0 m 147 1190 l 149 1200 q 214 1350 168 1299 q 329 1402 260 1402 q 377 1394 354 1402 q 426 1364 399 1385 l 468 1333 l 469 1331 q 520 1312 496 1312 q 569 1335 548 1312 q 598 1401 590 1359 l 673 1401 l 671 1390 q 606 1239 652 1291 q 491 1189 560 1189 q 443 1197 465 1189 q 394 1226 421 1205 l 351 1257 l 350 1258 q 299 1279 324 1279 q 250 1255 271 1279 q 221 1190 229 1231 l 147 1190 m 316 973 q 250 994 273 967 q 233 1063 225 1021 q 277 1133 241 1100 q 353 1162 309 1162 q 425 1124 399 1162 q 439 1041 446 1079 q 405 954 427 981 q 284 829 368 909 l 223 861 q 316 973 273 892 m 995 -277 l 944 -288 q 813 -171 783 -322 l 830 -83 l 963 -83 l 945 -180 q 969 -234 933 -243 l 1005 -225 l 995 -277 "},"∸":{"x_min":147,"x_max":1016,"ha":1163,"o":"m 481 685 q 510 757 481 727 q 582 787 540 787 q 654 757 624 787 q 684 685 684 727 q 654 613 684 643 q 582 584 624 584 q 510 613 540 584 q 481 685 481 643 m 147 513 l 1016 513 l 1016 358 l 147 358 l 147 513 "},"⇶":{"x_min":79,"x_max":1112,"ha":1164,"o":"m 79 816 l 79 965 l 882 965 l 841 1092 l 876 1092 l 1112 893 l 1112 887 l 876 688 l 841 688 l 882 816 l 79 816 m 79 -66 l 79 83 l 882 83 l 841 210 l 876 210 l 1112 11 l 1112 5 l 876 -193 l 841 -193 l 882 -66 l 79 -66 m 79 375 l 79 524 l 882 524 l 841 651 l 876 651 l 1112 452 l 1112 446 l 876 247 l 841 247 l 882 375 l 79 375 "},"∕":{"x_min":-110.546875,"x_max":619.171875,"ha":507,"o":"m 468 1013 l 619 1013 l 39 -129 l -110 -129 l 468 1013 "},"Ᾰ":{"x_min":-108.5,"x_max":1011.15625,"ha":1078,"o":"m -108 0 l -92 82 l -10 82 l 552 1012 l 714 1012 l 914 82 l 1011 82 l 995 0 l 521 0 l 537 82 l 636 82 l 593 289 l 212 289 l 87 82 l 208 82 l 192 0 l -108 0 m 261 371 l 575 371 l 495 758 l 261 371 m 421 1300 l 505 1300 q 533 1224 500 1250 q 633 1198 566 1198 q 743 1224 700 1198 q 800 1300 786 1250 l 885 1300 q 793 1144 866 1201 q 612 1089 721 1089 q 452 1144 501 1089 q 421 1300 402 1199 "},"∺":{"x_min":147,"x_max":1017,"ha":1163,"o":"m 147 685 q 176 757 147 727 q 248 787 206 787 q 320 757 290 787 q 350 685 350 727 q 320 613 350 643 q 248 584 290 584 q 176 613 206 584 q 147 685 147 643 m 147 184 q 176 256 147 226 q 248 286 206 286 q 320 256 290 286 q 350 184 350 226 q 320 112 350 142 q 248 83 290 83 q 176 112 206 83 q 147 184 147 142 m 814 685 q 843 757 814 727 q 915 787 873 787 q 987 757 957 787 q 1017 685 1017 727 q 987 613 1017 643 q 915 584 957 584 q 843 613 873 584 q 814 685 814 643 m 814 184 q 843 256 814 226 q 915 286 873 286 q 987 256 957 286 q 1017 184 1017 226 q 987 112 1017 142 q 915 83 957 83 q 843 112 873 83 q 814 184 814 142 m 147 513 l 1016 513 l 1016 358 l 147 358 l 147 513 "},"⇿":{"x_min":51.515625,"x_max":1112.5,"ha":1164,"o":"m 873 563 l 873 335 l 988 449 l 873 563 m 291 335 l 291 563 l 175 449 l 291 335 m 376 524 l 788 524 l 788 733 l 829 733 l 1112 452 l 1112 446 l 829 166 l 788 166 l 788 375 l 376 375 l 376 166 l 334 166 l 51 446 l 51 452 l 334 733 l 376 733 l 376 524 "},"Ϋ":{"x_min":70.53125,"x_max":1102.703125,"ha":991,"o":"m 414 1134 q 398 1204 389 1163 q 441 1274 406 1244 q 517 1304 476 1304 q 581 1274 557 1304 q 596 1204 604 1244 q 554 1134 588 1163 q 479 1105 520 1105 q 414 1134 438 1105 m 716 1134 q 701 1204 693 1163 q 744 1274 709 1244 q 819 1304 779 1304 q 885 1274 860 1304 q 901 1204 909 1244 q 857 1134 893 1163 q 781 1105 822 1105 q 716 1134 741 1105 m 140 0 l 155 82 l 292 82 l 358 419 l 156 931 l 70 931 l 86 1013 l 571 1013 l 556 931 l 443 931 l 596 544 l 897 931 l 796 931 l 812 1013 l 1102 1013 l 1087 931 l 1000 931 l 627 454 l 554 82 l 691 82 l 675 0 l 140 0 "},"ː":{"x_min":92.90625,"x_max":419.78125,"ha":513,"o":"m 302 0 l 92 0 l 208 182 l 258 182 l 302 0 m 210 602 l 419 602 l 303 420 l 254 420 l 210 602 "},"ö":{"x_min":47,"x_max":880,"ha":925,"o":"m 404 56 q 523 121 480 56 q 600 360 566 186 q 623 541 623 474 q 616 599 623 576 q 522 664 598 664 q 401 598 445 664 q 324 360 357 533 q 302 182 302 249 q 309 122 302 145 q 404 56 327 56 m 707 81 q 389 -20 579 -20 q 110 81 198 -20 q 47 267 47 154 q 56 360 47 310 q 218 639 91 539 q 537 740 346 740 q 816 640 728 740 q 880 454 880 567 q 869 360 880 410 q 707 81 835 182 m 343 995 q 386 1065 351 1036 q 462 1095 421 1095 q 526 1065 503 1095 q 541 995 549 1036 q 499 925 533 955 q 424 896 464 896 q 359 925 383 896 q 343 995 335 955 m 646 995 q 689 1065 654 1036 q 764 1095 724 1095 q 829 1065 805 1095 q 846 995 854 1036 q 802 925 838 955 q 726 896 767 896 q 662 925 686 896 q 646 995 638 955 "},"↲":{"x_min":289.0625,"x_max":847,"ha":1164,"o":"m 518 181 l 607 -27 l 571 -27 l 289 252 l 289 258 l 571 538 l 607 538 l 518 330 l 698 330 l 698 1004 l 847 1004 l 847 181 l 518 181 "},"▥":{"x_min":126,"x_max":1185,"ha":1311,"o":"m 126 -171 l 126 893 l 1185 893 l 1185 -171 l 126 -171 m 990 -92 l 1111 -92 l 1111 814 l 990 814 l 990 -92 m 793 -92 l 912 -92 l 912 814 l 793 814 l 793 -92 m 596 -92 l 716 -92 l 716 814 l 596 814 l 596 -92 m 398 -92 l 519 -92 l 519 814 l 398 814 l 398 -92 m 202 -92 l 321 -92 l 321 814 l 202 814 l 202 -92 "},"ẉ":{"x_min":42.046875,"x_max":1235.625,"ha":1196,"o":"m 396 -196 q 440 -126 404 -155 q 515 -97 474 -97 q 580 -126 556 -97 q 596 -196 604 -155 q 553 -266 588 -236 q 477 -296 518 -296 q 413 -266 436 -296 q 396 -196 389 -236 m 893 203 q 994 327 899 209 q 1129 639 1091 451 l 1034 639 l 1051 722 l 1235 722 q 1112 329 1196 462 q 851 0 980 122 l 685 0 l 620 452 l 379 0 l 214 0 l 120 639 l 42 639 l 57 721 l 353 721 l 422 249 l 675 721 l 818 721 l 893 203 "},"Ȧ":{"x_min":-108.5,"x_max":1011.15625,"ha":1078,"o":"m 578 1134 q 562 1204 554 1163 q 606 1274 571 1244 q 681 1304 640 1304 q 746 1274 722 1304 q 762 1204 770 1244 q 718 1134 754 1163 q 643 1105 684 1105 q 578 1134 602 1105 m -108 0 l -92 82 l -10 82 l 552 1012 l 714 1012 l 914 82 l 1011 82 l 995 0 l 521 0 l 537 82 l 636 82 l 593 289 l 212 289 l 87 82 l 208 82 l 192 0 l -108 0 m 261 371 l 575 371 l 495 758 l 261 371 "},"Ḽ":{"x_min":-32.546875,"x_max":897.21875,"ha":977,"o":"m -32 0 l -16 82 l 112 82 l 278 931 l 148 931 l 164 1013 l 684 1013 l 669 931 l 539 931 l 376 92 l 775 92 l 805 252 l 897 252 l 848 0 l -32 0 m 294 -79 l 458 -79 l 581 -334 l 470 -334 l 356 -181 l 181 -333 l 70 -333 l 294 -79 "},"8":{"x_min":19.546875,"x_max":915.21875,"ha":966,"o":"m 652 538 q 818 449 769 518 q 845 268 867 380 q 698 54 818 129 q 379 -20 578 -20 q 89 54 181 -20 q 25 268 -1 129 q 124 449 47 380 q 324 538 200 518 q 181 620 223 562 q 156 765 139 677 q 291 962 181 894 q 584 1030 400 1030 q 851 962 767 1030 q 909 765 934 894 q 827 620 891 677 q 652 538 763 562 m 646 762 q 649 910 667 870 q 568 951 631 951 q 472 910 505 951 q 418 762 439 870 q 415 616 397 656 q 496 577 433 577 q 592 616 559 577 q 646 762 625 656 m 579 280 q 580 451 602 404 q 480 498 558 498 q 362 451 402 498 q 298 280 322 404 q 296 106 273 154 q 395 59 318 59 q 513 106 472 59 q 579 280 554 154 "},"⁆":{"x_min":-21.703125,"x_max":603.578125,"ha":657,"o":"m 218 1055 l 603 1055 l 363 -183 l -21 -183 l -6 -102 l 138 -102 l 236 404 l 92 404 l 104 468 l 248 468 l 347 974 l 202 974 l 218 1055 "},"ↂ":{"x_min":52,"x_max":1721,"ha":1762,"o":"m 959 211 q 1021 263 995 228 q 1109 498 1076 333 q 1126 642 1126 585 q 1069 780 1126 747 l 959 211 m 942 125 l 934 82 l 1028 82 q 1280 183 1187 82 q 1417 506 1374 285 q 1436 689 1436 605 q 1193 931 1436 931 l 1099 931 l 1087 868 q 1258 776 1198 847 q 1319 593 1319 705 q 1308 495 1319 548 q 1148 215 1273 315 q 942 125 1061 146 m 697 211 l 808 780 q 748 732 773 763 q 660 498 692 664 q 643 352 643 409 q 697 211 643 244 m 826 868 l 838 931 l 744 931 q 491 829 584 931 q 355 506 398 728 q 337 324 337 408 q 578 82 337 82 l 672 82 l 681 125 q 510 216 571 146 q 450 398 450 286 q 460 495 450 443 q 618 776 494 675 q 826 868 706 847 m 528 0 q 137 130 256 0 q 52 375 52 223 q 65 506 52 436 q 282 882 113 752 q 724 1013 452 1013 l 1244 1013 q 1636 882 1516 1013 q 1721 637 1721 789 q 1707 506 1721 577 q 1489 130 1659 261 q 1048 0 1319 0 l 528 0 "},"𝒗":{"x_min":29.28125,"x_max":818,"ha":807,"o":"m 432 0 l 240 0 l 108 639 l 29 639 l 44 721 l 338 721 l 449 183 q 575 328 466 183 q 719 639 675 466 l 640 639 l 656 722 l 818 722 q 681 326 818 552 q 432 0 553 111 "},"ħ":{"x_min":47.421875,"x_max":891.34375,"ha":1010,"o":"m 47 0 l 204 811 l 97 811 l 115 904 l 223 904 l 236 974 l 129 974 l 145 1055 l 492 1055 l 463 904 l 706 904 l 688 811 l 444 811 l 407 619 q 524 712 463 683 q 670 741 585 741 q 840 668 792 741 q 871 550 871 623 q 861 458 871 508 l 788 82 l 891 82 l 875 0 l 532 0 l 622 465 q 632 545 632 512 q 623 592 632 575 q 549 628 607 628 q 432 574 477 628 q 366 405 388 521 l 287 0 l 47 0 "},"◉":{"x_min":76,"x_max":1136,"ha":1212,"o":"m 434 63 q 262 361 262 162 q 434 658 262 559 q 605 709 519 709 q 777 658 692 709 q 950 361 950 559 q 777 63 950 162 q 605 13 692 13 q 434 63 519 13 m 381 750 q 155 360 155 620 q 381 -28 155 101 q 605 -94 493 -94 q 830 -28 718 -94 q 1057 361 1057 101 q 830 750 1057 620 q 605 816 718 816 q 381 750 493 816 m 341 -97 q 76 361 76 55 q 341 819 76 666 q 605 896 473 896 q 870 819 738 896 q 1136 361 1136 666 q 870 -97 1136 55 q 605 -174 738 -174 q 341 -97 473 -174 "},"ᶜ":{"x_min":52,"x_max":540.5625,"ha":593,"o":"m 499 588 q 410 486 467 519 q 266 453 352 453 q 90 507 144 453 q 52 608 52 546 q 58 662 52 633 q 158 816 79 761 q 353 872 236 872 q 447 863 400 872 q 540 839 493 856 l 516 730 l 468 730 q 468 746 468 738 q 450 804 468 784 q 380 829 428 829 q 282 791 316 829 q 226 662 247 754 q 216 581 216 614 q 224 533 216 552 q 300 495 241 495 q 379 519 346 495 q 428 588 412 543 l 499 588 "},"ἵ":{"x_min":75.78125,"x_max":691.734375,"ha":672,"o":"m 552 22 q 208 30 325 -53 q 126 236 101 107 l 205 639 l 103 639 l 118 721 l 461 721 l 366 234 q 420 82 337 82 q 572 127 503 82 l 552 22 m 502 1111 l 691 1111 l 388 856 l 277 856 l 502 1111 m 178 973 q 227 860 189 891 l 153 828 q 82 954 101 909 q 81 1041 69 981 q 128 1124 88 1079 q 214 1162 168 1162 q 279 1133 259 1162 q 295 1063 302 1100 q 252 993 287 1021 q 178 973 219 967 "},"⥖":{"x_min":79,"x_max":1083.84375,"ha":1163,"o":"m 228 523 l 1083 523 l 1083 374 l 388 374 l 476 165 l 440 165 l 230 374 l 228 374 l 228 182 l 79 182 l 79 715 l 228 715 l 228 523 "},"𝝒":{"x_min":0.328125,"x_max":909.234375,"ha":909,"o":"m 455 270 l 368 238 q 293 133 340 196 q 12 20 128 -84 q 25 139 -17 47 q 167 293 66 225 l 240 350 q 338 563 328 492 q 327 628 346 617 q 248 619 286 651 q 168 483 197 574 l 92 483 l 131 683 q 294 722 222 714 q 378 708 322 725 q 486 594 486 677 q 473 444 486 514 l 547 477 l 622 582 q 896 695 779 799 q 884 576 926 668 q 742 422 843 490 l 669 365 q 574 152 585 225 q 593 87 567 104 q 660 97 625 65 q 740 233 713 142 l 816 233 l 778 32 q 614 -7 684 0 q 532 7 582 -10 q 429 121 429 44 q 455 270 429 199 "},"˙":{"x_min":351.546875,"x_max":554.78125,"ha":694,"o":"m 353 995 q 396 1065 361 1036 q 472 1095 431 1095 q 537 1065 512 1095 q 552 995 560 1036 q 509 925 545 955 q 434 896 474 896 q 369 925 393 896 q 353 995 345 955 "},"„":{"x_min":20.34375,"x_max":702.578125,"ha":799,"o":"m 334 -89 q 450 20 408 -43 q 512 178 493 84 l 519 216 l 702 216 q 594 -20 670 75 q 389 -180 518 -115 l 334 -89 m 20 -89 q 136 19 94 -43 q 196 178 178 83 l 204 216 l 387 216 q 279 -20 354 75 q 73 -180 203 -115 l 20 -89 "},"ӷ":{"x_min":77,"x_max":767,"ha":781,"o":"m 77 147 q 172 333 77 263 q 447 487 248 388 q 543 598 543 534 q 466 665 543 665 q 153 504 316 665 l 100 563 q 283 705 196 668 q 501 742 371 742 q 699 693 632 742 q 767 576 767 645 q 665 368 767 445 q 362 199 563 290 q 301 126 301 171 q 380 57 301 57 q 665 178 544 57 l 699 219 l 752 160 q 730 130 742 147 q 715 49 715 95 q 724 -37 715 25 q 734 -139 734 -99 q 647 -259 734 -221 q 483 -298 561 -298 l 483 -245 q 563 -211 522 -245 q 604 -112 604 -178 q 628 -43 604 -74 q 653 19 653 -11 q 643 54 653 53 q 352 -19 522 -19 q 153 33 230 -19 q 77 147 77 86 "},"δ":{"x_min":15.640625,"x_max":873.078125,"ha":926,"o":"m 274 693 q 194 854 175 756 q 316 1015 217 969 q 325 1019 321 1017 q 568 1062 422 1062 q 718 1053 636 1062 q 873 1028 797 1045 l 845 884 l 770 884 q 762 922 770 908 q 731 954 756 932 q 620 986 692 986 q 489 953 539 986 l 463 935 q 426 851 432 911 q 506 740 413 740 q 785 640 697 740 q 839 360 873 538 q 676 81 804 182 q 358 -20 548 -20 q 79 81 167 -20 q 25 360 -9 182 q 187 640 59 539 q 274 693 264 699 m 373 56 q 493 121 449 56 q 570 360 536 186 q 586 599 604 534 q 491 664 568 664 q 370 598 415 664 q 293 360 326 533 q 278 122 260 188 q 373 56 297 56 "},"ᶪ":{"x_min":23.734375,"x_max":432.671875,"ha":446,"o":"m 313 509 l 378 509 l 357 416 q 287 325 343 356 q 135 294 231 294 q 81 297 109 294 q 23 308 53 301 l 42 392 l 90 392 q 94 349 84 362 q 132 336 104 336 q 179 353 163 336 q 206 417 195 370 l 217 464 l 151 464 l 271 999 l 206 999 l 216 1044 l 432 1044 l 313 509 "},"˞":{"x_min":-25.09375,"x_max":562.875,"ha":580,"o":"m -6 516 l 231 693 l 349 693 l 344 664 q 358 571 332 600 q 425 542 385 542 q 502 563 492 542 l 562 460 q 501 427 503 428 q 403 416 467 416 q 273 479 324 416 q 238 615 229 533 l -25 423 l -6 516 "},"ǥ":{"x_min":31.140625,"x_max":975.140625,"ha":971,"o":"m 669 593 q 622 634 665 634 q 421 525 499 634 q 344 308 373 457 q 340 134 320 182 q 435 86 361 86 q 549 142 505 86 q 616 322 591 197 l 476 322 l 492 404 l 632 404 l 669 593 m 857 322 l 796 9 q 642 -225 763 -157 q 320 -309 493 -309 q 176 -297 248 -309 q 31 -264 105 -286 l 65 -92 l 141 -92 q 141 -103 141 -98 q 178 -197 141 -165 q 306 -232 218 -232 q 473 -179 417 -232 q 556 9 529 -125 l 571 91 q 336 -20 488 -20 q 115 66 185 -20 q 74 303 45 152 q 282 620 110 487 q 661 740 436 740 q 925 674 844 740 l 872 404 l 975 404 l 958 322 l 857 322 "},"‷":{"x_min":223.796875,"x_max":989.453125,"ha":875,"o":"m 480 760 l 370 760 l 223 1013 l 412 1013 l 480 760 m 738 760 l 628 760 l 481 1013 l 670 1013 l 738 760 m 989 760 l 879 760 l 732 1013 l 920 1013 l 989 760 "},"შ":{"x_min":64,"x_max":967,"ha":899,"o":"m 582 393 q 595 455 591 426 q 600 507 600 483 q 573 601 600 569 q 501 633 547 633 q 435 616 463 633 q 385 568 407 599 q 345 493 363 537 q 313 398 328 450 q 291 304 299 347 q 283 226 283 261 q 302 149 283 177 q 369 121 322 121 q 412 124 392 121 q 450 137 432 127 q 484 166 467 147 q 517 215 501 184 q 549 289 533 245 q 582 393 565 332 m 781 331 q 720 204 762 265 q 617 98 677 144 q 482 26 557 53 q 324 0 407 0 q 208 22 257 0 q 126 81 158 44 q 79 168 94 118 q 64 273 64 217 q 82 397 64 337 q 132 511 100 457 q 209 608 165 564 q 307 685 254 653 q 417 735 359 717 q 536 753 476 753 q 612 735 577 753 q 670 691 646 717 l 761 1012 q 766 1037 766 1027 q 751 1062 766 1058 q 713 1067 737 1067 q 681 1064 694 1067 q 658 1051 668 1061 q 640 1023 648 1041 q 623 972 631 1004 l 585 840 l 449 840 l 486 972 q 496 1026 496 1007 q 492 1048 496 1039 q 480 1060 487 1056 q 462 1065 473 1064 q 437 1067 451 1067 q 388 1053 407 1067 q 361 1010 370 1040 q 351 969 354 986 q 349 940 349 952 q 355 914 349 923 q 373 901 361 906 l 315 814 q 250 848 277 829 q 206 888 223 868 q 183 930 190 909 q 176 971 176 952 q 177 988 176 980 q 180 1003 178 996 q 222 1090 194 1055 q 285 1146 250 1125 q 360 1176 320 1167 q 437 1186 399 1186 q 491 1177 467 1186 q 533 1153 514 1168 q 563 1119 551 1138 q 584 1079 576 1100 q 629 1118 604 1099 q 680 1152 654 1137 q 732 1176 706 1167 q 782 1186 759 1186 q 857 1179 823 1186 q 916 1156 892 1173 q 953 1111 940 1139 q 967 1041 967 1083 q 961 982 967 1014 q 945 911 956 950 l 781 331 "},"⇓":{"x_min":298.796875,"x_max":865.203125,"ha":1164,"o":"m 775 252 l 865 290 l 865 254 l 585 -28 l 578 -28 l 298 254 l 298 290 l 389 252 l 389 1005 l 521 1005 l 521 196 l 582 170 l 643 196 l 643 1005 l 775 1005 l 775 252 "},"⤞":{"x_min":79,"x_max":1112,"ha":1164,"o":"m 79 374 l 79 523 l 542 523 l 454 731 l 490 731 l 764 459 l 934 627 l 1112 451 l 1112 445 l 934 269 l 764 437 l 490 165 l 454 165 l 542 374 l 79 374 "},"р":{"x_min":34.46875,"x_max":953,"ha":971,"o":"m 408 395 l 393 324 q 381 209 381 256 q 391 142 381 168 q 484 86 412 86 q 599 145 557 86 q 671 360 641 205 q 690 515 690 456 q 683 574 690 552 q 590 634 664 634 q 475 577 518 634 q 408 395 432 521 m 214 639 l 111 639 l 128 721 l 471 721 l 453 628 q 551 712 494 685 q 684 740 608 740 q 906 638 838 740 q 953 470 953 571 q 941 360 953 419 q 798 81 906 183 q 536 -20 690 -20 q 414 7 460 -20 q 349 91 368 35 l 274 -288 l 34 -288 l 214 639 "},"Ö":{"x_min":44.671875,"x_max":1163.8125,"ha":1210,"o":"m 518 62 q 732 171 647 62 q 859 505 816 280 q 861 839 903 730 q 690 949 819 949 q 476 838 561 949 q 348 505 391 728 q 347 172 305 282 q 518 62 389 62 m 501 -20 q 128 119 246 -20 q 58 505 10 259 q 278 890 105 750 q 706 1031 451 1031 q 1079 891 962 1031 q 1150 505 1197 751 q 929 119 1102 259 q 501 -20 756 -20 m 543 1134 q 527 1204 519 1163 q 571 1274 535 1244 q 646 1304 606 1304 q 710 1274 686 1304 q 726 1204 734 1244 q 683 1134 718 1163 q 609 1105 649 1105 q 543 1134 568 1105 m 846 1134 q 830 1204 822 1163 q 874 1274 838 1244 q 949 1304 908 1304 q 1014 1274 990 1304 q 1030 1204 1038 1244 q 987 1134 1022 1163 q 911 1105 952 1105 q 846 1134 870 1105 "},"⊡":{"x_min":147,"x_max":1016,"ha":1163,"o":"m 490 344 q 453 435 453 382 q 490 526 453 488 q 581 564 528 564 q 673 526 635 564 q 711 435 711 488 q 673 344 711 382 q 581 307 635 307 q 490 344 528 307 m 303 157 l 860 157 l 860 715 l 303 715 l 303 157 m 1016 1 l 147 1 l 147 871 l 1016 871 l 1016 1 "},"Θ":{"x_min":44.671875,"x_max":1163.8125,"ha":1210,"o":"m 701 502 l 505 502 l 480 373 l 387 373 l 455 722 l 548 722 l 524 594 l 719 594 l 743 722 l 836 722 l 769 373 l 676 373 l 701 502 m 518 62 q 732 171 647 62 q 859 505 816 280 q 861 839 903 730 q 690 949 819 949 q 476 838 561 949 q 348 505 391 728 q 347 172 305 282 q 518 62 389 62 m 501 -20 q 128 119 246 -20 q 58 505 10 259 q 278 890 105 750 q 706 1031 451 1031 q 1079 891 962 1031 q 1150 505 1197 751 q 929 119 1102 259 q 501 -20 756 -20 "},"Ř":{"x_min":-32.546875,"x_max":1080.328125,"ha":1154,"o":"m 735 494 q 829 454 794 485 q 883 364 864 423 l 976 82 l 1080 82 l 1064 0 l 731 0 l 630 305 q 573 426 601 400 q 487 453 545 453 l 446 453 l 373 82 l 503 82 l 488 0 l -32 0 l -16 82 l 112 82 l 278 931 l 148 931 l 164 1013 l 741 1013 q 1000 942 918 1013 q 1057 740 1082 871 q 956 573 1036 634 q 735 494 876 511 m 461 534 l 550 534 q 706 585 645 534 q 786 733 768 637 q 763 880 804 829 q 627 931 722 931 l 539 931 l 461 534 m 614 1109 l 498 1288 l 609 1288 l 732 1178 l 898 1288 l 1009 1288 l 823 1109 l 614 1109 "},"⡅":{"x_min":203,"x_max":474,"ha":1084,"o":"m 242 853 q 203 949 203 893 q 243 1045 203 1005 q 338 1085 283 1085 q 433 1045 393 1085 q 474 949 474 1005 q 434 853 474 893 q 338 814 394 814 q 242 853 282 814 m 242 129 q 203 225 203 169 q 243 321 203 281 q 338 361 283 361 q 433 321 393 361 q 474 225 474 281 q 434 129 474 169 q 338 90 394 90 q 242 129 282 90 m 242 -231 q 203 -135 203 -191 q 243 -39 203 -79 q 338 0 283 0 q 433 -39 393 0 q 474 -135 474 -79 q 434 -231 474 -191 q 338 -271 394 -271 q 242 -231 282 -271 "},"ϙ":{"x_min":73.046875,"x_max":906.59375,"ha":926,"o":"m 430 57 q 550 122 506 57 q 627 360 594 187 q 643 599 661 534 q 548 664 625 664 q 428 598 472 664 q 350 360 384 533 q 335 122 317 188 q 430 57 354 57 m 539 -7 l 485 -287 l 243 -287 l 297 -7 q 136 81 195 14 q 82 360 48 183 q 245 639 118 539 q 563 740 373 740 q 843 639 754 740 q 896 360 931 539 q 734 81 861 181 q 539 -7 649 14 "},"⬐":{"x_min":51.125,"x_max":1083.78125,"ha":1163,"o":"m 260 385 l 260 714 l 1083 714 l 1083 565 l 409 565 l 409 385 l 617 474 l 617 438 l 337 155 l 331 155 l 51 438 l 51 474 l 260 385 "},"ᾝ":{"x_min":82.5625,"x_max":1852.765625,"ha":1817,"o":"m 471 0 l 486 82 l 616 82 l 781 931 l 652 931 l 668 1013 l 1188 1013 l 1173 931 l 1043 931 l 976 590 l 1379 590 l 1445 931 l 1316 931 l 1331 1013 l 1852 1013 l 1837 931 l 1706 931 l 1541 82 l 1671 82 l 1656 0 l 1135 0 l 1150 82 l 1280 82 l 1361 497 l 958 497 l 877 82 l 1007 82 l 992 0 l 471 0 m 509 1111 l 698 1111 l 395 856 l 284 856 l 509 1111 m 185 973 q 233 860 195 892 l 160 828 q 88 954 108 909 q 88 1041 76 981 q 134 1124 95 1079 q 221 1163 175 1163 q 286 1133 265 1163 q 302 1063 309 1100 q 259 994 294 1021 q 185 973 225 967 m 1150 -277 l 1099 -288 q 967 -171 938 -322 l 984 -83 l 1118 -83 l 1099 -180 q 1123 -234 1087 -243 l 1160 -225 l 1150 -277 "},"ṅ":{"x_min":78.40625,"x_max":921.65625,"ha":1010,"o":"m 78 0 l 202 639 l 100 639 l 115 721 l 458 721 l 438 619 q 555 712 494 683 q 701 741 616 741 q 870 668 822 741 q 902 550 902 623 q 891 458 902 508 l 818 82 l 921 82 l 906 0 l 563 0 l 653 465 q 663 545 663 512 q 654 592 663 575 q 580 628 638 628 q 463 574 508 628 q 397 405 419 521 l 318 0 l 78 0 m 535 995 q 578 1065 543 1036 q 654 1095 613 1095 q 719 1065 694 1095 q 734 995 742 1036 q 692 925 727 955 q 616 896 656 896 q 551 925 575 896 q 535 995 528 955 "},"ᶼ":{"x_min":33.234375,"x_max":613.0625,"ha":732,"o":"m 33 464 l 43 509 l 372 816 l 176 816 l 160 748 l 109 748 l 134 860 l 558 860 l 547 815 l 218 508 l 479 508 l 476 496 l 478 496 l 460 416 q 458 353 450 371 q 498 336 467 336 q 541 348 526 336 q 564 392 557 362 l 613 392 l 594 308 q 531 297 561 301 q 476 294 501 294 q 337 325 381 294 q 309 416 295 354 l 319 464 l 33 464 "},"и":{"x_min":88.328125,"x_max":932.21875,"ha":1010,"o":"m 932 721 l 808 82 l 910 82 l 894 0 l 551 0 l 571 101 q 454 8 515 37 q 308 -20 393 -20 q 139 51 187 -20 q 108 170 108 97 q 118 262 108 212 l 191 639 l 88 639 l 103 721 l 447 721 l 365 299 q 349 169 349 215 q 355 128 349 142 q 429 93 370 93 q 546 146 502 93 q 612 316 590 200 l 691 721 l 932 721 "},"³":{"x_min":10.84375,"x_max":559.1875,"ha":608,"o":"m 126 1004 q 240 1024 188 1017 q 335 1031 292 1031 q 513 995 457 1031 q 556 891 569 959 q 505 811 547 842 q 392 768 463 779 q 506 719 471 757 q 528 619 541 682 q 435 494 512 536 q 221 453 358 453 q 114 460 167 453 q 10 482 61 467 l 36 618 l 101 618 q 120 536 96 563 q 198 510 144 510 q 294 539 257 510 q 342 623 331 568 q 325 707 353 678 q 236 737 298 737 l 208 737 l 219 794 l 240 794 q 329 817 295 794 q 372 883 363 840 q 358 950 380 926 q 287 974 336 974 q 210 949 242 974 q 167 880 179 924 l 102 880 l 126 1004 "},"⇀":{"x_min":79,"x_max":1116,"ha":1163,"o":"m 1116 374 l 79 374 l 79 523 l 814 523 l 726 731 l 761 731 l 1116 380 l 1116 374 "},"♬":{"x_min":127.453125,"x_max":1117,"ha":1245,"o":"m 1114 1012 l 1117 1009 l 1117 147 q 939 2 1117 2 q 769 106 781 2 q 927 205 769 205 q 1054 169 1001 205 l 1057 169 l 1057 617 l 472 617 l 472 157 q 305 -7 472 17 l 302 -7 q 127 116 127 -7 q 287 203 127 203 q 415 164 355 203 l 415 1012 l 1114 1012 m 474 872 l 474 766 l 1057 766 l 1057 872 l 474 872 "},"͘":{"x_min":16.53125,"x_max":219.765625,"ha":0,"o":"m 18 995 q 61 1065 26 1036 q 136 1095 96 1095 q 202 1065 177 1095 q 217 995 225 1036 q 174 925 210 955 q 99 896 139 896 q 34 925 58 896 q 18 995 10 955 "},"⥸":{"x_min":79,"x_max":1112,"ha":1164,"o":"m 147 935 l 147 1097 l 1016 783 l 1016 630 l 147 315 l 147 477 l 810 705 l 147 935 m 79 252 l 881 252 l 793 460 l 828 460 l 1112 180 l 1112 174 l 828 -105 l 793 -105 l 881 103 l 79 103 l 79 252 "},"ᶣ":{"x_min":109.859375,"x_max":641.546875,"ha":725,"o":"m 641 860 l 528 350 l 595 350 l 585 305 l 366 305 l 415 519 q 341 468 379 484 q 248 453 302 453 q 142 492 172 453 q 128 608 111 531 l 174 815 l 109 815 l 120 860 l 336 860 l 279 604 q 278 534 267 553 q 325 515 288 515 q 398 544 370 515 q 440 637 426 573 l 480 815 l 425 815 l 434 860 l 641 860 "},"⢂":{"x_min":203,"x_max":881,"ha":1084,"o":"m 242 492 q 203 588 203 532 q 243 684 203 644 q 338 724 283 724 q 433 684 393 724 q 474 588 474 644 q 434 492 474 532 q 338 453 394 453 q 242 492 282 453 m 649 -231 q 610 -135 610 -191 q 650 -39 610 -79 q 745 0 690 0 q 840 -39 800 0 q 881 -135 881 -79 q 841 -231 881 -191 q 745 -271 801 -271 q 649 -231 689 -271 "},"▱":{"x_min":4.0625,"x_max":1064.046875,"ha":1068,"o":"m 760 181 l 945 540 l 307 540 l 122 181 l 760 181 m 797 104 l 4 104 l 271 617 l 1064 617 l 797 104 "},"˨":{"x_min":80.703125,"x_max":654.4375,"ha":694,"o":"m 339 0 l 380 209 l 80 209 l 105 337 l 404 337 l 526 963 l 654 963 l 467 0 l 339 0 "},"︍":{"x_min":0,"x_max":0,"ha":0},"⤶":{"x_min":204,"x_max":938,"ha":1164,"o":"m 673 456 q 755 489 721 456 q 789 571 789 523 l 789 878 l 938 878 l 938 571 q 860 384 938 462 q 673 307 782 307 l 434 307 l 522 98 l 487 98 l 204 378 l 204 384 l 487 664 l 522 664 l 434 456 l 673 456 "},"⣟":{"x_min":203,"x_max":881,"ha":1084,"o":"m 242 853 q 203 949 203 893 q 243 1045 203 1005 q 338 1085 283 1085 q 433 1045 393 1085 q 474 949 474 1005 q 434 853 474 893 q 338 814 394 814 q 242 853 282 814 m 242 492 q 203 588 203 532 q 243 684 203 644 q 338 724 283 724 q 433 684 393 724 q 474 588 474 644 q 434 492 474 532 q 338 453 394 453 q 242 492 282 453 m 242 129 q 203 225 203 169 q 243 321 203 281 q 338 361 283 361 q 433 321 393 361 q 474 225 474 281 q 434 129 474 169 q 338 90 394 90 q 242 129 282 90 m 649 853 q 610 949 610 893 q 650 1045 610 1005 q 745 1085 690 1085 q 840 1045 800 1085 q 881 949 881 1005 q 841 853 881 893 q 745 814 801 814 q 649 853 689 814 m 649 492 q 610 588 610 532 q 650 684 610 644 q 745 724 690 724 q 840 684 800 724 q 881 588 881 644 q 841 492 881 532 q 745 453 801 453 q 649 492 689 453 m 242 -231 q 203 -135 203 -191 q 243 -39 203 -79 q 338 0 283 0 q 433 -39 393 0 q 474 -135 474 -79 q 434 -231 474 -191 q 338 -271 394 -271 q 242 -231 282 -271 m 649 -231 q 610 -135 610 -191 q 650 -39 610 -79 q 745 0 690 0 q 840 -39 800 0 q 881 -135 881 -79 q 841 -231 881 -191 q 745 -271 801 -271 q 649 -231 689 -271 "},"⥄":{"x_min":52,"x_max":1112,"ha":1164,"o":"m 1085 286 l 1085 137 l 281 137 l 369 -71 l 334 -71 l 52 208 l 52 214 l 334 494 l 369 494 l 281 286 l 1085 286 m 582 612 l 582 761 l 882 761 l 794 969 l 829 969 l 1112 689 l 1112 683 l 829 403 l 794 403 l 882 612 l 582 612 "},"ḥ":{"x_min":47.421875,"x_max":891.34375,"ha":1010,"o":"m 47 0 l 236 974 l 129 974 l 145 1055 l 492 1055 l 407 619 q 524 712 463 683 q 670 741 585 741 q 840 668 792 741 q 871 550 871 623 q 861 458 871 508 l 788 82 l 891 82 l 875 0 l 532 0 l 622 465 q 632 545 632 512 q 623 592 632 575 q 549 628 607 628 q 432 574 477 628 q 366 405 388 521 l 287 0 l 47 0 m 273 -197 q 317 -127 282 -156 q 392 -98 351 -98 q 457 -127 433 -98 q 473 -197 481 -156 q 430 -267 465 -237 q 354 -297 395 -297 q 290 -267 313 -297 q 273 -197 266 -237 "},"Ἅ":{"x_min":-6.78125,"x_max":1112.875,"ha":1179,"o":"m -6 0 l 8 82 l 91 82 l 653 1012 l 815 1012 l 1016 82 l 1112 82 l 1097 0 l 623 0 l 638 82 l 737 82 l 695 289 l 314 289 l 189 82 l 309 82 l 294 0 l -6 0 m 363 371 l 677 371 l 596 758 l 363 371 m 509 1111 l 699 1111 l 396 856 l 284 856 l 509 1111 m 185 973 q 234 860 196 891 l 161 828 q 89 954 109 909 q 88 1041 77 981 q 135 1124 96 1079 q 222 1162 176 1162 q 286 1133 266 1162 q 303 1063 309 1100 q 259 993 295 1021 q 185 973 226 967 "},"Ρ":{"x_min":-32.546875,"x_max":1057.484375,"ha":1044,"o":"m -32 0 l -16 82 l 112 82 l 278 931 l 148 931 l 164 1013 l 740 1013 q 993 932 909 1013 q 1051 717 1077 852 q 909 500 1024 581 q 625 419 793 419 l 439 419 l 373 82 l 537 82 l 521 0 l -32 0 m 455 501 l 531 501 q 683 559 619 501 q 766 717 747 618 q 744 872 785 814 q 615 931 703 931 l 539 931 l 455 501 "},"ῌ":{"x_min":-32.546875,"x_max":1348.875,"ha":1312,"o":"m -32 0 l -16 82 l 112 82 l 278 931 l 148 931 l 164 1013 l 684 1013 l 669 931 l 539 931 l 472 590 l 875 590 l 941 931 l 812 931 l 828 1013 l 1348 1013 l 1333 931 l 1203 931 l 1037 82 l 1167 82 l 1152 0 l 631 0 l 646 82 l 776 82 l 857 497 l 454 497 l 373 82 l 503 82 l 488 0 l -32 0 m 646 -277 l 595 -288 q 463 -171 434 -322 l 480 -83 l 614 -83 l 596 -180 q 619 -234 583 -243 l 656 -225 l 646 -277 "},"⡽":{"x_min":203,"x_max":881,"ha":1084,"o":"m 242 853 q 203 949 203 893 q 243 1045 203 1005 q 338 1085 283 1085 q 433 1045 393 1085 q 474 949 474 1005 q 434 853 474 893 q 338 814 394 814 q 242 853 282 814 m 242 129 q 203 225 203 169 q 243 321 203 281 q 338 361 283 361 q 433 321 393 361 q 474 225 474 281 q 434 129 474 169 q 338 90 394 90 q 242 129 282 90 m 649 853 q 610 949 610 893 q 650 1045 610 1005 q 745 1085 690 1085 q 840 1045 800 1085 q 881 949 881 1005 q 841 853 881 893 q 745 814 801 814 q 649 853 689 814 m 649 492 q 610 588 610 532 q 650 684 610 644 q 745 724 690 724 q 840 684 800 724 q 881 588 881 644 q 841 492 881 532 q 745 453 801 453 q 649 492 689 453 m 649 129 q 610 225 610 169 q 650 321 610 281 q 745 361 690 361 q 840 321 800 361 q 881 225 881 281 q 841 129 881 169 q 745 90 801 90 q 649 129 689 90 m 242 -231 q 203 -135 203 -191 q 243 -39 203 -79 q 338 0 283 0 q 433 -39 393 0 q 474 -135 474 -79 q 434 -231 474 -191 q 338 -271 394 -271 q 242 -231 282 -271 "},"⣥":{"x_min":203,"x_max":881,"ha":1084,"o":"m 242 853 q 203 949 203 893 q 243 1045 203 1005 q 338 1085 283 1085 q 433 1045 393 1085 q 474 949 474 1005 q 434 853 474 893 q 338 814 394 814 q 242 853 282 814 m 242 129 q 203 225 203 169 q 243 321 203 281 q 338 361 283 361 q 433 321 393 361 q 474 225 474 281 q 434 129 474 169 q 338 90 394 90 q 242 129 282 90 m 649 129 q 610 225 610 169 q 650 321 610 281 q 745 361 690 361 q 840 321 800 361 q 881 225 881 281 q 841 129 881 169 q 745 90 801 90 q 649 129 689 90 m 242 -231 q 203 -135 203 -191 q 243 -39 203 -79 q 338 0 283 0 q 433 -39 393 0 q 474 -135 474 -79 q 434 -231 474 -191 q 338 -271 394 -271 q 242 -231 282 -271 m 649 -231 q 610 -135 610 -191 q 650 -39 610 -79 q 745 0 690 0 q 840 -39 800 0 q 881 -135 881 -79 q 841 -231 881 -191 q 745 -271 801 -271 q 649 -231 689 -271 "},"Ṙ":{"x_min":-32.546875,"x_max":1080.328125,"ha":1154,"o":"m 642 1134 q 626 1204 618 1163 q 670 1274 634 1244 q 745 1304 704 1304 q 810 1274 786 1304 q 826 1204 834 1244 q 782 1134 817 1163 q 707 1105 748 1105 q 642 1134 666 1105 m 735 494 q 829 454 794 485 q 883 364 864 423 l 976 82 l 1080 82 l 1064 0 l 731 0 l 630 305 q 573 426 601 400 q 487 453 545 453 l 446 453 l 373 82 l 503 82 l 488 0 l -32 0 l -16 82 l 112 82 l 278 931 l 148 931 l 164 1013 l 741 1013 q 1000 942 918 1013 q 1057 740 1082 871 q 956 573 1036 634 q 735 494 876 511 m 461 534 l 550 534 q 706 585 645 534 q 786 733 768 637 q 763 880 804 829 q 627 931 722 931 l 539 931 l 461 534 "},"ª":{"x_min":9.65625,"x_max":608.125,"ha":676,"o":"m 448 770 l 456 815 q 463 868 463 844 q 448 931 463 906 q 392 963 430 963 q 373 960 383 963 q 280 894 322 951 q 222 750 239 836 q 215 681 215 712 q 227 617 215 642 q 282 580 244 580 q 299 581 290 580 q 392 643 351 592 q 448 770 433 694 m 401 528 l 418 615 q 345 540 387 569 q 258 501 304 510 q 214 497 234 497 q 116 543 149 497 q 89 646 89 581 q 97 727 89 682 q 191 931 122 851 q 360 1030 261 1012 q 392 1034 377 1034 q 439 1024 419 1034 q 487 971 473 1009 l 498 1031 l 608 1031 l 530 630 l 608 630 l 588 528 l 401 528 m 27 434 l 568 434 l 550 342 l 9 342 l 27 434 "},"Ἓ":{"x_min":92.734375,"x_max":1639.140625,"ha":1624,"o":"m 532 0 l 547 82 l 677 82 l 842 931 l 713 931 l 729 1013 l 1639 1013 l 1593 774 l 1499 774 l 1527 920 l 1101 920 l 1038 595 l 1303 595 l 1328 723 l 1421 723 l 1353 374 l 1260 374 l 1285 503 l 1020 503 l 941 92 l 1380 92 l 1407 238 l 1500 238 l 1454 0 l 532 0 m 552 1110 l 676 856 l 565 856 l 362 1110 l 552 1110 m 195 973 q 244 860 206 892 l 170 829 q 99 954 118 909 q 98 1041 86 981 q 145 1124 105 1079 q 231 1163 185 1163 q 296 1133 276 1163 q 312 1063 319 1100 q 269 994 304 1021 q 195 973 236 967 "},"š":{"x_min":-1.09375,"x_max":765.75,"ha":781,"o":"m 37 222 l 114 222 q 114 202 114 211 q 153 96 114 135 q 274 56 193 56 q 451 154 432 56 q 454 186 454 167 q 436 225 454 205 q 351 263 419 245 l 257 288 q 117 360 151 316 q 83 458 83 404 q 87 508 83 481 q 203 683 110 625 q 443 740 295 740 q 752 697 591 740 l 716 515 l 639 515 q 642 539 642 527 q 489 664 642 664 q 318 572 335 664 q 316 545 316 561 q 399 479 316 501 l 492 453 q 664 372 627 418 q 702 269 702 327 q 696 218 702 245 q 574 37 672 95 q 292 -20 476 -20 q -1 20 158 -20 l 37 222 m 378 856 l 255 1110 l 366 1110 l 479 957 l 654 1111 l 765 1111 l 541 856 l 378 856 "},"ჟ":{"x_min":-65,"x_max":894.71875,"ha":881,"o":"m 193 711 q 299 677 249 687 q 392 668 348 668 q 466 671 426 668 q 544 681 505 675 q 619 697 583 688 q 683 718 655 706 q 730 742 712 729 q 753 771 749 756 l 894 771 l 689 43 q 615 -119 662 -51 q 510 -230 569 -187 q 379 -293 450 -273 q 231 -313 308 -313 q 112 -297 166 -313 q 19 -254 58 -281 q -42 -189 -20 -226 q -65 -108 -65 -152 q -58 -60 -65 -83 q -15 30 -43 -7 q 53 93 11 68 q 151 135 94 119 q 282 160 207 151 l 282 94 q 239 59 257 76 q 207 22 221 42 q 184 -20 194 2 q 165 -74 174 -44 q 159 -102 161 -89 q 157 -126 157 -114 q 180 -177 157 -159 q 263 -195 203 -195 q 331 -181 301 -195 q 385 -143 362 -168 q 427 -82 409 -118 q 457 -1 444 -46 l 628 598 q 532 581 583 586 q 431 576 481 576 q 466 538 454 561 q 479 483 479 516 q 476 452 479 468 q 468 417 473 436 q 441 347 457 379 q 397 291 425 314 q 325 255 369 268 q 215 243 281 243 l 71 277 l 115 432 l 262 328 q 299 340 283 328 q 328 370 316 352 q 346 410 340 388 q 353 449 353 431 q 329 502 353 481 q 257 523 306 523 l 136 506 l 193 711 "},"⁪":{"x_min":0,"x_max":0,"ha":0},"ნ":{"x_min":54,"x_max":977.875,"ha":888,"o":"m 578 394 q 597 475 591 440 q 604 539 604 510 q 584 612 604 589 q 527 636 565 636 q 462 621 495 636 q 398 575 428 607 q 339 491 367 542 q 291 367 312 441 q 268 276 275 314 q 262 210 262 238 q 269 165 262 182 q 289 137 276 147 q 321 124 302 127 q 363 121 340 121 q 479 172 427 121 q 559 322 530 223 l 578 394 m 809 396 q 731 226 781 300 q 616 102 681 153 q 476 26 552 52 q 323 0 401 0 q 210 13 260 0 q 126 54 161 27 q 72 122 91 82 q 54 217 54 162 q 70 327 54 267 l 239 925 q 289 1044 259 995 q 361 1125 319 1094 q 454 1172 402 1157 q 569 1187 506 1187 q 632 1178 607 1187 q 675 1160 656 1169 q 711 1141 694 1150 q 753 1133 729 1133 q 791 1139 770 1133 q 836 1158 812 1146 q 888 1185 861 1169 q 946 1218 916 1201 l 977 1164 q 924 1104 954 1135 q 860 1047 893 1073 q 788 1004 826 1021 q 712 988 750 988 q 672 994 690 988 q 640 1011 654 1001 q 614 1034 626 1022 q 590 1057 602 1046 q 566 1074 578 1067 q 539 1081 554 1081 q 514 1074 525 1081 q 493 1053 503 1068 q 473 1014 483 1038 q 453 953 463 990 l 380 698 q 430 723 405 713 q 480 741 456 734 q 526 751 504 748 q 563 755 547 755 q 669 740 620 755 q 752 696 717 725 q 808 623 788 667 q 828 519 828 579 q 809 396 828 463 "},"Ƕ":{"x_min":-30.515625,"x_max":1692.703125,"ha":1696,"o":"m 1106 423 q 1088 158 1062 200 q 1238 83 1135 83 q 1430 159 1357 83 q 1540 423 1504 235 l 1582 639 l 1454 639 l 1469 720 l 1692 720 l 1632 409 q 1467 78 1586 175 q 1131 -20 1345 -20 q 853 79 922 -20 q 842 409 794 163 l 859 497 l 456 497 l 375 82 l 505 82 l 490 0 l -30 0 l -14 82 l 114 82 l 279 930 l 149 930 l 166 1012 l 686 1012 l 670 930 l 540 930 l 474 590 l 877 590 l 943 930 l 813 930 l 830 1012 l 1350 1012 l 1334 930 l 1204 930 l 1106 423 "},"1":{"x_min":90.203125,"x_max":743.953125,"ha":966,"o":"m 90 0 l 106 82 l 296 82 l 455 901 l 220 776 l 240 877 l 524 1030 l 737 1030 l 553 82 l 743 82 l 727 0 l 90 0 "},"ҍ":{"x_min":67.703125,"x_max":879,"ha":935,"o":"m 67 634 l 84 721 l 220 721 l 268 974 l 161 974 l 177 1055 l 524 1055 l 460 721 l 596 721 l 579 640 l 443 640 l 400 415 q 624 490 497 490 q 815 426 751 490 q 879 285 879 362 q 874 240 879 264 q 757 57 853 133 q 466 -19 661 -19 q 197 53 271 -19 q 124 207 124 126 q 128 249 124 228 l 203 634 l 67 634 m 357 162 q 371 94 357 132 q 454 57 386 57 q 577 116 522 57 q 632 294 632 175 q 603 364 632 328 q 519 400 574 400 q 425 369 464 400 q 368 252 385 338 l 364 230 q 357 162 357 193 "},"⟻":{"x_min":51.984375,"x_max":1912,"ha":1991,"o":"m 1763 523 l 1763 715 l 1912 715 l 1912 182 l 1763 182 l 1763 374 l 281 374 l 370 165 l 334 165 l 51 445 l 51 451 l 334 731 l 370 731 l 281 523 l 1763 523 "},"ᵈ":{"x_min":32,"x_max":614.796875,"ha":691,"o":"m 374 641 l 382 681 q 391 744 391 718 q 384 781 391 767 q 326 813 370 813 q 253 780 279 813 q 207 662 227 747 q 196 576 196 609 q 200 543 196 556 q 258 511 212 511 q 331 542 303 511 q 374 641 358 572 m 614 1045 l 485 464 l 334 464 l 345 513 q 283 468 319 483 q 199 453 247 453 q 60 509 103 453 q 32 601 32 545 q 39 662 32 629 q 128 815 61 759 q 292 871 195 871 q 369 855 340 871 q 411 809 399 840 l 453 1000 l 388 1000 l 398 1045 l 614 1045 "},"ɩ":{"x_min":104.4375,"x_max":459.796875,"ha":528,"o":"m 124 228 l 204 639 l 104 639 l 120 721 l 459 721 l 366 237 q 369 108 348 149 q 453 67 391 67 l 440 0 l 322 0 q 151 32 195 0 q 124 228 94 75 "},"ǒ":{"x_min":47,"x_max":880,"ha":925,"o":"m 404 56 q 523 121 480 56 q 600 360 566 186 q 623 541 623 474 q 616 599 623 576 q 522 664 598 664 q 401 598 445 664 q 324 360 357 533 q 302 182 302 249 q 309 122 302 145 q 404 56 327 56 m 707 81 q 389 -20 579 -20 q 110 81 198 -20 q 47 267 47 154 q 56 360 47 310 q 218 639 91 539 q 537 740 346 740 q 816 640 728 740 q 880 454 880 567 q 869 360 880 410 q 707 81 835 182 m 485 856 l 362 1110 l 473 1110 l 587 957 l 762 1111 l 873 1111 l 649 856 l 485 856 "},"⥯":{"x_min":163.125,"x_max":1000.875,"ha":1164,"o":"m 521 -32 l 514 -32 l 163 322 l 163 358 l 372 269 l 372 1005 l 521 1005 l 521 -32 m 643 1037 l 649 1037 l 1000 682 l 1000 646 l 792 735 l 792 0 l 643 0 l 643 1037 "},"⠛":{"x_min":203,"x_max":881,"ha":1084,"o":"m 242 852 q 203 948 203 892 q 243 1044 203 1004 q 338 1084 283 1084 q 433 1044 393 1084 q 474 948 474 1004 q 434 852 474 892 q 338 813 394 813 q 242 852 282 813 m 242 491 q 203 587 203 531 q 243 683 203 643 q 338 723 283 723 q 433 683 393 723 q 474 587 474 643 q 434 491 474 531 q 338 452 394 452 q 242 491 282 452 m 649 852 q 610 948 610 892 q 650 1044 610 1004 q 745 1084 690 1084 q 840 1044 800 1084 q 881 948 881 1004 q 841 852 881 892 q 745 813 801 813 q 649 852 689 813 m 649 491 q 610 587 610 531 q 650 683 610 643 q 745 723 690 723 q 840 683 800 723 q 881 587 881 643 q 841 491 881 531 q 745 452 801 452 q 649 491 689 452 "},"ӡ":{"x_min":-37.984375,"x_max":840.25,"ha":789,"o":"m 512 306 q 724 235 659 292 q 788 11 816 153 q 634 -206 761 -130 q 294 -282 507 -282 q 131 -268 214 -282 q -37 -227 49 -254 l 5 -5 l 87 -5 q 119 -152 75 -101 q 255 -203 162 -203 q 426 -145 358 -203 q 514 17 493 -88 q 488 186 535 127 q 333 246 441 246 l 288 246 l 318 399 l 545 642 l 233 642 l 210 518 l 129 518 l 168 721 l 840 721 l 824 640 l 512 306 "},"ḽ":{"x_min":-152.59375,"x_max":493.03125,"ha":528,"o":"m 303 82 l 406 82 l 391 0 l 48 0 l 237 974 l 134 974 l 150 1055 l 493 1055 l 303 82 m 71 -79 l 235 -79 l 358 -333 l 247 -333 l 132 -181 l -41 -333 l -152 -333 l 71 -79 "},"ī":{"x_min":80.03125,"x_max":541.171875,"ha":528,"o":"m 113 1060 l 541 1060 l 516 932 l 89 932 l 113 1060 m 335 82 l 438 82 l 423 0 l 80 0 l 204 639 l 101 639 l 117 721 l 459 721 l 335 82 "},"∐":{"x_min":32,"x_max":1133,"ha":1169,"o":"m 1133 -267 l 32 -267 l 32 -210 l 161 -210 l 161 942 l 32 942 l 32 999 l 505 999 l 505 942 l 385 942 l 385 -210 l 780 -210 l 780 942 l 660 942 l 660 999 l 1133 999 l 1133 942 l 1004 942 l 1004 -210 l 1133 -210 l 1133 -267 "},"̢":{"x_min":-569.9375,"x_max":-82.0625,"ha":0,"o":"m -510 192 l -270 192 l -324 -85 q -327 -200 -341 -168 q -264 -232 -314 -232 q -194 -208 -219 -232 q -158 -130 -170 -184 l -82 -130 l -111 -282 q -210 -302 -163 -295 q -299 -309 -258 -309 q -518 -252 -451 -309 q -564 -85 -585 -195 l -510 192 "},"⣬":{"x_min":203,"x_max":881,"ha":1084,"o":"m 242 129 q 203 225 203 169 q 243 321 203 281 q 338 361 283 361 q 433 321 393 361 q 474 225 474 281 q 434 129 474 169 q 338 90 394 90 q 242 129 282 90 m 649 853 q 610 949 610 893 q 650 1045 610 1005 q 745 1085 690 1085 q 840 1045 800 1085 q 881 949 881 1005 q 841 853 881 893 q 745 814 801 814 q 649 853 689 814 m 649 129 q 610 225 610 169 q 650 321 610 281 q 745 361 690 361 q 840 321 800 361 q 881 225 881 281 q 841 129 881 169 q 745 90 801 90 q 649 129 689 90 m 242 -231 q 203 -135 203 -191 q 243 -39 203 -79 q 338 0 283 0 q 433 -39 393 0 q 474 -135 474 -79 q 434 -231 474 -191 q 338 -271 394 -271 q 242 -231 282 -271 m 649 -231 q 610 -135 610 -191 q 650 -39 610 -79 q 745 0 690 0 q 840 -39 800 0 q 881 -135 881 -79 q 841 -231 881 -191 q 745 -271 801 -271 q 649 -231 689 -271 "},"ӹ":{"x_min":88.609375,"x_max":1335.96875,"ha":1414,"o":"m 88 639 l 104 721 l 446 721 l 387 415 q 610 490 484 490 q 802 426 738 490 q 866 285 866 362 q 861 240 866 263 q 744 56 840 133 q 440 -20 648 -20 q 184 52 258 -20 q 111 207 111 125 q 115 249 111 227 l 190 639 l 88 639 m 344 162 q 358 94 344 132 q 439 56 373 56 q 564 116 509 56 q 619 294 619 175 q 590 364 619 328 q 504 400 561 400 q 412 369 451 400 q 355 252 372 338 l 351 230 q 344 162 344 193 m 955 0 l 1095 721 l 1335 721 l 1211 82 l 1314 82 l 1298 0 l 955 0 m 553 995 q 597 1065 561 1036 q 673 1095 632 1095 q 737 1065 714 1095 q 752 995 760 1036 q 709 925 744 955 q 635 896 675 896 q 570 925 594 896 q 553 995 546 955 m 857 995 q 900 1065 865 1036 q 975 1095 935 1095 q 1040 1065 1016 1095 q 1057 995 1065 1036 q 1013 925 1049 955 q 937 896 978 896 q 873 925 897 896 q 857 995 849 955 "},"ʲ":{"x_min":-9.5,"x_max":436.796875,"ha":435,"o":"m 266 971 q 301 1024 272 1003 q 366 1045 330 1045 q 421 1024 400 1045 q 435 971 441 1002 q 401 921 429 942 q 338 900 373 900 q 282 921 302 900 q 266 971 261 942 m 254 811 l 187 811 l 196 857 l 419 857 l 331 406 q 262 312 319 344 q 106 281 205 281 q 50 284 80 281 q -9 296 21 288 l 6 381 l 56 381 q 62 337 52 350 q 101 324 72 324 q 149 341 133 324 q 175 406 166 359 l 254 811 "},"⤛":{"x_min":79,"x_max":1095.53125,"ha":1163,"o":"m 515 374 l 79 374 l 79 523 l 515 523 l 728 733 l 824 638 l 707 523 l 786 523 l 999 733 l 1095 638 l 907 451 l 907 445 l 1095 258 l 999 163 l 786 374 l 707 374 l 824 258 l 728 163 l 515 374 "},"ˣ":{"x_min":-16.28125,"x_max":529.65625,"ha":522,"o":"m 319 717 l 468 860 l 529 860 l 335 674 l 433 509 l 493 509 l 483 464 l 290 464 l 200 613 l 44 464 l -16 464 l 184 657 l 89 816 l 38 816 l 48 861 l 233 861 l 319 717 "},"ŏ":{"x_min":47,"x_max":880,"ha":925,"o":"m 352 1077 l 436 1077 q 463 1001 431 1027 q 564 975 497 975 q 673 1001 631 975 q 730 1077 717 1027 l 815 1077 q 724 921 796 978 q 543 866 652 866 q 383 921 432 866 q 352 1077 333 976 m 404 56 q 523 121 480 56 q 600 360 566 186 q 623 541 623 474 q 616 599 623 576 q 522 664 598 664 q 401 598 445 664 q 324 360 357 533 q 302 182 302 249 q 309 122 302 145 q 404 56 327 56 m 707 81 q 389 -20 579 -20 q 110 81 198 -20 q 47 267 47 154 q 56 360 47 310 q 218 639 91 539 q 537 740 346 740 q 816 640 728 740 q 880 454 880 567 q 869 360 880 410 q 707 81 835 182 "},"ý":{"x_min":-26.078125,"x_max":886.0625,"ha":807,"o":"m 336 -185 l 144 639 l 66 639 l 82 721 l 376 721 l 538 23 q 668 263 616 136 q 772 637 720 390 l 675 637 l 691 720 l 886 720 q 844 521 869 633 q 709 118 784 246 q 350 -274 510 -213 q 130 -309 260 -309 q -26 -279 66 -309 l 3 -129 l 79 -129 q 77 -159 77 -145 q 108 -221 77 -206 q 152 -231 123 -227 q 184 -234 168 -234 q 336 -185 260 -234 m 597 1110 l 787 1110 l 483 856 l 372 856 l 597 1110 "},"∇":{"x_min":27.8125,"x_max":1019.28125,"ha":1046,"o":"m 173 888 l 432 259 l 689 888 l 173 888 m 27 1013 l 1019 1013 l 604 0 l 442 0 l 27 1013 "},"꜒":{"x_min":40.015625,"x_max":654.4375,"ha":694,"o":"m 167 0 l 40 0 l 227 964 l 654 964 l 629 836 l 329 836 l 167 0 "},"ⱽ":{"x_min":183.78125,"x_max":889.078125,"ha":679,"o":"m 889 1020 l 880 974 l 827 974 l 485 453 l 383 453 l 244 974 l 183 974 l 192 1020 l 491 1020 l 482 974 l 421 974 l 520 598 l 767 974 l 691 974 l 699 1020 l 889 1020 "},"Ί":{"x_min":59,"x_max":940.625,"ha":919,"o":"m 284 1111 l 473 1111 l 170 856 l 59 856 l 284 1111 m 223 0 l 238 82 l 368 82 l 533 931 l 404 931 l 419 1013 l 940 1013 l 925 931 l 794 931 l 629 82 l 759 82 l 743 0 l 223 0 "},"ӛ":{"x_min":53.546875,"x_max":831.296875,"ha":884,"o":"m 324 995 q 367 1065 332 1036 q 443 1095 402 1095 q 507 1065 484 1095 q 522 995 531 1036 q 480 925 514 955 q 405 896 445 896 q 340 925 364 896 q 324 995 316 955 m 627 995 q 670 1065 635 1036 q 745 1095 705 1095 q 811 1065 786 1095 q 827 995 835 1036 q 783 925 819 955 q 708 896 748 896 q 643 925 667 896 q 627 995 619 955 m 311 314 q 299 114 284 171 q 378 56 314 56 q 477 113 440 56 q 541 301 515 169 l 543 314 l 311 314 m 63 395 l 559 395 l 560 400 q 557 601 587 539 q 434 664 527 664 q 299 622 356 664 q 214 502 243 580 l 102 502 q 253 682 155 625 q 507 740 351 740 q 775 641 694 740 q 820 359 855 543 q 663 80 786 180 q 359 -20 541 -20 q 105 85 180 -20 q 63 395 30 191 "},"⤻":{"x_min":53.71875,"x_max":1092,"ha":1164,"o":"m 980 419 q 848 316 920 359 q 691 251 776 274 q 516 228 605 228 q 343 251 428 228 q 186 316 258 274 q 53 419 114 359 l 159 524 q 261 446 206 478 q 382 395 316 413 q 516 377 448 377 q 651 395 585 377 q 772 446 716 413 q 874 524 828 478 l 665 610 l 689 637 l 1087 637 l 1092 632 l 1092 234 l 1065 210 l 980 419 "},"ἒ":{"x_min":31.734375,"x_max":815.078125,"ha":844,"o":"m 815 697 l 787 553 l 712 553 q 704 591 712 577 q 673 623 698 601 q 562 655 634 655 q 431 622 481 655 l 405 604 q 373 548 380 584 q 371 513 369 527 q 403 465 374 489 q 535 432 443 432 l 567 432 l 549 339 l 508 339 q 347 296 408 339 q 315 272 326 282 q 273 196 282 244 q 272 149 267 167 q 307 101 277 128 q 445 60 350 60 q 587 96 531 60 q 617 116 608 109 q 659 181 648 140 l 735 181 l 704 22 q 535 -7 619 3 q 381 -16 451 -16 q 366 -16 373 -16 q 107 36 199 -16 q 35 192 15 90 q 120 326 51 277 q 134 335 128 330 q 299 390 199 378 l 273 395 q 173 444 215 407 q 142 550 130 485 q 258 684 159 638 q 267 688 263 686 q 510 731 364 731 q 660 722 587 731 q 815 697 739 714 m 304 973 q 237 993 261 967 q 221 1063 213 1021 q 265 1133 229 1100 q 341 1162 296 1162 q 412 1125 387 1162 q 427 1042 434 1080 q 393 954 415 981 q 272 828 355 909 l 211 860 q 304 973 261 892 m 667 1111 l 792 856 l 680 856 l 478 1111 l 667 1111 "}," ":{"x_min":0,"x_max":0,"ha":347},"⥿":{"x_min":148,"x_max":1017,"ha":1165,"o":"m 1017 329 q 942 149 1017 224 q 762 75 867 75 q 582 149 657 75 q 402 75 508 75 q 222 149 297 75 q 148 329 148 224 l 297 329 q 327 254 297 285 q 402 224 358 224 q 477 254 446 224 q 508 329 508 285 l 508 801 l 657 801 l 657 329 q 687 254 657 285 q 762 224 718 224 q 837 254 806 224 q 868 329 868 285 l 1017 329 "},"⢣":{"x_min":203,"x_max":881,"ha":1084,"o":"m 242 853 q 203 949 203 893 q 243 1045 203 1005 q 338 1085 283 1085 q 433 1045 393 1085 q 474 949 474 1005 q 434 853 474 893 q 338 814 394 814 q 242 853 282 814 m 242 492 q 203 588 203 532 q 243 684 203 644 q 338 724 283 724 q 433 684 393 724 q 474 588 474 644 q 434 492 474 532 q 338 453 394 453 q 242 492 282 453 m 649 129 q 610 225 610 169 q 650 321 610 281 q 745 361 690 361 q 840 321 800 361 q 881 225 881 281 q 841 129 881 169 q 745 90 801 90 q 649 129 689 90 m 649 -231 q 610 -135 610 -191 q 650 -39 610 -79 q 745 0 690 0 q 840 -39 800 0 q 881 -135 881 -79 q 841 -231 881 -191 q 745 -271 801 -271 q 649 -231 689 -271 "},"‴":{"x_min":2.71875,"x_max":866.015625,"ha":875,"o":"m 257 760 l 423 1013 l 611 1013 l 366 760 l 257 760 m 2 760 l 168 1013 l 357 1013 l 112 760 l 2 760 m 511 760 l 677 1013 l 866 1013 l 621 760 l 511 760 "},"ἑ":{"x_min":31.734375,"x_max":815.078125,"ha":844,"o":"m 815 697 l 787 553 l 712 553 q 704 591 712 577 q 673 623 698 601 q 562 655 634 655 q 431 622 481 655 l 405 604 q 373 548 380 584 q 371 513 369 527 q 403 465 374 489 q 535 432 443 432 l 567 432 l 549 339 l 508 339 q 347 296 408 339 q 315 272 326 282 q 273 196 282 244 q 272 149 267 167 q 307 101 277 128 q 445 60 350 60 q 587 96 531 60 q 617 116 608 109 q 659 181 648 140 l 735 181 l 704 22 q 535 -7 619 3 q 381 -16 451 -16 q 366 -16 373 -16 q 107 36 199 -16 q 35 192 15 90 q 120 326 51 277 q 134 335 128 330 q 299 390 199 378 l 273 395 q 173 444 215 407 q 142 550 130 485 q 258 684 159 638 q 267 688 263 686 q 510 731 364 731 q 660 722 587 731 q 815 697 739 714 m 524 973 q 573 861 535 892 l 500 829 q 428 954 448 910 q 427 1042 416 981 q 474 1125 435 1080 q 561 1163 515 1163 q 625 1133 605 1163 q 642 1064 648 1100 q 598 994 634 1021 q 524 973 565 967 "},"ᴝ":{"x_min":149.875,"x_max":1051.84375,"ha":1023,"o":"m 311 793 l 950 793 l 969 896 l 1051 896 l 985 553 l 883 553 q 956 454 939 510 q 958 314 974 398 q 851 130 934 192 q 628 69 767 69 l 252 69 l 231 -34 l 149 -34 l 217 309 l 638 309 q 812 331 772 309 q 864 413 853 353 q 832 519 878 485 q 668 553 785 553 l 346 553 l 328 465 l 246 465 l 311 793 "},"Ь":{"x_min":-33.71875,"x_max":1045,"ha":1145,"o":"m -33 0 l -18 82 l 111 82 l 276 931 l 147 931 l 162 1013 l 683 1013 l 667 931 l 537 931 l 471 590 l 627 590 q 1045 356 1045 590 q 1038 295 1045 327 q 881 71 1009 143 q 512 0 753 0 l -33 0 m 372 82 l 453 82 q 655 133 582 82 q 748 293 727 185 q 755 350 755 323 q 536 509 755 509 l 455 509 l 372 82 "},"ƽ":{"x_min":-37.984375,"x_max":893.828125,"ha":789,"o":"m 515 320 q 726 248 686 284 q 788 10 819 166 q 634 -206 761 -130 q 294 -282 507 -282 q 131 -268 214 -282 q -37 -227 49 -254 l 5 -5 l 87 -5 q 119 -152 75 -101 q 255 -203 162 -203 q 426 -145 358 -203 q 514 16 493 -88 q 488 186 535 126 q 333 246 441 246 l 155 246 l 231 639 l 128 639 l 145 721 l 893 721 l 855 525 l 773 525 l 795 639 l 471 639 l 410 327 q 515 320 486 327 "},"↢":{"x_min":52,"x_max":1096.53125,"ha":1164,"o":"m 787 374 l 281 374 l 370 165 l 334 165 l 52 445 l 52 451 l 334 731 l 370 731 l 281 523 l 787 523 l 1000 733 l 1096 638 l 908 451 l 908 445 l 1096 258 l 1000 163 l 787 374 "},"̅":{"x_min":-694,"x_max":0,"ha":0,"o":"m 0 1049 l 0 920 l -694 920 l -694 1049 l 0 1049 "},"̸":{"x_min":-1257.328125,"x_max":52.890625,"ha":0,"o":"m -1207 -52 l -1257 8 l 3 1064 l 52 1003 l -1207 -52 "},"ᾯ":{"x_min":143.09375,"x_max":1427.828125,"ha":1472,"o":"m 1007 125 l 1233 125 l 1249 209 l 1342 209 l 1302 0 l 804 0 l 830 131 q 1014 255 940 152 q 1124 539 1089 358 q 1115 844 1163 739 q 937 949 1068 949 q 719 844 807 949 q 592 538 632 739 q 593 256 558 361 q 728 131 627 152 l 702 0 l 204 0 l 245 209 l 337 209 l 321 125 l 548 125 q 338 296 400 187 q 305 554 276 405 q 525 899 347 768 q 954 1031 703 1031 q 1332 899 1205 1031 q 1417 554 1459 768 q 1284 296 1388 405 q 1007 125 1180 187 m 143 1190 l 145 1200 q 210 1350 164 1299 q 325 1402 256 1402 q 373 1394 350 1402 q 422 1364 395 1385 l 464 1333 l 465 1331 q 516 1312 492 1312 q 565 1335 544 1312 q 594 1400 586 1359 l 669 1400 l 667 1390 q 602 1239 648 1291 q 486 1189 556 1189 q 439 1197 461 1189 q 389 1226 417 1205 l 347 1257 l 346 1258 q 295 1279 320 1279 q 246 1255 267 1279 q 217 1190 225 1231 l 143 1190 m 325 973 q 374 860 336 892 l 301 828 q 229 954 248 909 q 228 1041 217 981 q 275 1124 236 1079 q 362 1162 316 1162 q 426 1133 406 1162 q 442 1063 449 1100 q 399 993 434 1021 q 325 973 366 967 m 839 -277 l 788 -288 q 657 -171 627 -322 l 674 -83 l 807 -83 l 789 -180 q 813 -234 777 -243 l 849 -225 l 839 -277 "},"⢈":{"x_min":610,"x_max":881,"ha":1084,"o":"m 649 853 q 610 949 610 893 q 650 1045 610 1005 q 745 1085 690 1085 q 840 1045 800 1085 q 881 949 881 1005 q 841 853 881 893 q 745 814 801 814 q 649 853 689 814 m 649 -231 q 610 -135 610 -191 q 650 -39 610 -79 q 745 0 690 0 q 840 -39 800 0 q 881 -135 881 -79 q 841 -231 881 -191 q 745 -271 801 -271 q 649 -231 689 -271 "},"¤":{"x_min":51.953125,"x_max":835.734375,"ha":885,"o":"m 443 286 q 548 329 505 286 q 592 434 592 372 q 548 539 592 496 q 443 583 505 583 q 338 539 381 583 q 295 434 295 496 q 337 328 295 371 q 443 286 380 286 m 296 181 l 154 40 l 51 145 l 193 287 q 162 354 172 318 q 153 434 153 391 q 163 513 153 477 q 193 581 173 550 l 51 720 l 155 828 l 296 684 q 365 715 328 705 q 443 725 402 725 q 517 715 480 725 q 593 684 554 705 l 732 828 l 835 723 l 693 584 q 724 508 714 546 q 734 434 734 471 q 724 356 734 391 q 693 288 714 320 l 835 145 l 729 40 l 589 184 q 522 153 558 163 q 443 144 486 144 q 367 153 404 144 q 296 181 330 163 "},"p":{"x_min":34.46875,"x_max":953,"ha":971,"o":"m 408 395 l 393 324 q 381 209 381 256 q 391 142 381 168 q 484 86 412 86 q 599 145 557 86 q 671 360 641 205 q 690 515 690 456 q 683 574 690 552 q 590 634 664 634 q 475 577 518 634 q 408 395 432 521 m 214 639 l 111 639 l 128 721 l 471 721 l 453 628 q 551 712 494 685 q 684 740 608 740 q 906 638 838 740 q 953 470 953 571 q 941 360 953 419 q 798 81 906 183 q 536 -20 690 -20 q 414 7 460 -20 q 349 91 368 35 l 274 -288 l 34 -288 l 214 639 "},"Ἤ":{"x_min":78.671875,"x_max":1812.0625,"ha":1776,"o":"m 430 0 l 446 82 l 575 82 l 741 931 l 611 931 l 627 1013 l 1148 1013 l 1132 931 l 1002 931 l 935 590 l 1338 590 l 1405 931 l 1275 931 l 1291 1013 l 1812 1013 l 1796 931 l 1666 931 l 1500 82 l 1631 82 l 1615 0 l 1094 0 l 1110 82 l 1239 82 l 1320 497 l 917 497 l 836 82 l 967 82 l 951 0 l 430 0 m 171 973 q 105 993 128 967 q 88 1063 80 1021 q 132 1133 96 1100 q 208 1163 164 1163 q 280 1124 254 1163 q 294 1041 301 1079 q 260 954 282 981 q 139 828 223 909 l 78 860 q 171 973 128 892 m 484 1111 l 674 1111 l 370 856 l 259 856 l 484 1111 "},"⢺":{"x_min":203,"x_max":881,"ha":1084,"o":"m 242 492 q 203 588 203 532 q 243 684 203 644 q 338 724 283 724 q 433 684 393 724 q 474 588 474 644 q 434 492 474 532 q 338 453 394 453 q 242 492 282 453 m 649 853 q 610 949 610 893 q 650 1045 610 1005 q 745 1085 690 1085 q 840 1045 800 1085 q 881 949 881 1005 q 841 853 881 893 q 745 814 801 814 q 649 853 689 814 m 649 492 q 610 588 610 532 q 650 684 610 644 q 745 724 690 724 q 840 684 800 724 q 881 588 881 644 q 841 492 881 532 q 745 453 801 453 q 649 492 689 453 m 649 129 q 610 225 610 169 q 650 321 610 281 q 745 361 690 361 q 840 321 800 361 q 881 225 881 281 q 841 129 881 169 q 745 90 801 90 q 649 129 689 90 m 649 -231 q 610 -135 610 -191 q 650 -39 610 -79 q 745 0 690 0 q 840 -39 800 0 q 881 -135 881 -79 q 841 -231 881 -191 q 745 -271 801 -271 q 649 -231 689 -271 "},"►":{"x_min":4,"x_max":1063.984375,"ha":1068,"o":"m 4 14 l 4 706 l 1063 360 l 4 14 "},"Ӭ":{"x_min":20,"x_max":1048,"ha":1105,"o":"m 20 289 l 158 289 q 360 62 158 62 q 733 454 646 62 l 282 454 l 303 563 l 754 563 q 765 686 765 630 q 538 949 765 949 q 208 694 311 949 l 122 694 l 170 943 q 583 1031 406 1031 q 960 889 839 1031 q 1048 632 1048 787 q 1035 504 1048 572 q 810 121 987 262 q 375 -20 633 -20 q 109 56 198 -20 q 20 289 20 132 m 415 1134 q 398 1204 390 1163 q 442 1274 406 1244 q 518 1304 477 1304 q 581 1274 558 1304 q 597 1204 605 1244 q 554 1134 589 1163 q 480 1105 520 1105 q 415 1134 439 1105 m 717 1134 q 701 1204 693 1163 q 745 1274 710 1244 q 820 1304 779 1304 q 885 1274 861 1304 q 902 1204 910 1244 q 858 1134 893 1163 q 782 1105 823 1105 q 717 1134 741 1105 "},"῭":{"x_min":225.40625,"x_max":732.421875,"ha":694,"o":"m 457 1385 l 582 1130 l 471 1130 l 268 1385 l 457 1385 m 227 995 q 270 1065 235 1036 q 346 1095 305 1095 q 410 1065 387 1095 q 425 995 434 1036 q 383 925 417 955 q 308 896 348 896 q 243 925 267 896 q 227 995 219 955 m 530 995 q 573 1065 538 1036 q 649 1095 608 1095 q 714 1065 689 1095 q 730 995 738 1036 q 686 925 722 955 q 611 896 651 896 q 546 925 570 896 q 530 995 522 955 "},"ђ":{"x_min":41.875,"x_max":891,"ha":998,"o":"m 47 0 l 171 639 l 41 639 l 58 721 l 187 721 l 236 974 l 129 974 l 144 1055 l 492 1055 l 427 721 l 720 721 l 704 639 l 411 639 l 372 440 q 490 533 429 504 q 635 562 551 562 q 825 477 760 562 q 891 298 891 393 q 883 224 891 262 q 709 -70 848 44 q 351 -308 570 -186 l 313 -238 q 516 -68 458 -156 q 608 199 573 19 q 619 297 619 250 q 596 397 619 345 q 508 449 573 449 q 331 226 374 449 l 287 0 l 47 0 "},"ϕ":{"x_min":43.15625,"x_max":1252.921875,"ha":1308,"o":"m 904 1055 l 842 738 q 1189 639 1109 738 q 1243 360 1277 531 q 1081 80 1209 182 q 695 -19 954 -19 l 642 -289 l 400 -289 l 453 -19 q 106 80 193 -19 q 52 360 18 182 q 214 639 86 531 q 600 738 333 738 l 662 1055 l 904 1055 m 711 64 q 872 140 803 64 q 975 360 949 226 q 956 591 1007 525 q 826 655 906 655 l 711 64 m 469 64 l 584 655 q 429 591 504 655 q 320 360 352 525 q 338 140 294 226 q 469 64 377 64 "},"y":{"x_min":-26.078125,"x_max":886.0625,"ha":807,"o":"m 336 -185 l 144 639 l 66 639 l 82 721 l 376 721 l 538 23 q 668 263 616 136 q 772 637 720 390 l 675 637 l 691 720 l 886 720 q 844 521 869 633 q 709 118 784 246 q 350 -274 510 -213 q 130 -309 260 -309 q -26 -279 66 -309 l 3 -129 l 79 -129 q 77 -159 77 -145 q 108 -221 77 -206 q 152 -231 123 -227 q 184 -234 168 -234 q 336 -185 260 -234 "},"ⱨ":{"x_min":47.296875,"x_max":1009.875,"ha":1009,"o":"m 571 205 l 622 465 q 632 545 632 513 q 623 592 632 575 q 549 628 607 628 q 432 574 477 628 q 366 405 388 521 l 287 0 l 47 0 l 236 974 l 129 974 l 144 1055 l 492 1055 l 407 619 q 524 712 463 683 q 670 741 585 741 q 840 668 792 741 q 871 549 871 623 q 861 458 871 508 l 798 141 q 797 127 797 134 q 842 93 797 93 q 896 110 880 93 q 923 161 912 128 l 1009 161 q 967 46 992 85 q 960 -12 960 12 q 969 -68 960 -36 q 978 -140 978 -100 q 891 -260 978 -222 q 727 -299 805 -299 l 727 -246 q 807 -212 766 -246 q 848 -113 848 -179 q 873 -52 848 -81 q 898 -8 898 -23 q 889 6 898 4 q 701 -20 805 -20 q 562 95 599 -20 q 560 123 560 102 q 571 205 560 146 "},"‗":{"x_min":0,"x_max":694,"ha":694,"o":"m 694 -199 l 694 -328 l 0 -328 l 0 -199 l 694 -199 m 694 -13 l 694 -142 l 0 -142 l 0 -13 l 694 -13 "},"Ⴌ":{"x_min":-50.140625,"x_max":1052.625,"ha":1120,"o":"m 792 1176 q 870 1171 836 1176 q 928 1154 904 1167 q 963 1119 951 1142 q 976 1061 976 1097 q 967 996 976 1033 l 1052 996 l 1034 912 l 705 912 l 733 1040 q 734 1046 734 1043 q 735 1051 735 1048 q 721 1082 735 1071 q 686 1093 708 1093 l 510 1093 l 434 739 l 686 739 q 795 724 750 739 q 868 685 840 710 q 910 624 897 659 q 923 550 923 590 q 921 519 923 535 q 916 487 920 504 l 830 81 l 915 81 l 897 -1 l 485 -1 l 503 81 l 587 81 l 672 487 q 681 536 678 511 q 685 583 685 561 q 681 617 685 601 q 671 645 678 633 q 651 664 663 657 q 619 671 638 671 l 420 671 l 295 81 l 378 81 l 360 -1 l -50 -1 l -32 81 l 51 81 l 266 1092 l 182 1092 l 200 1176 l 792 1176 "},"ḓ":{"x_min":15,"x_max":940.359375,"ha":971,"o":"m 558 324 l 572 396 q 585 510 585 463 q 574 578 585 552 q 482 635 553 635 q 366 575 408 635 q 294 360 324 516 q 276 206 276 265 q 282 145 276 168 q 375 86 301 86 q 490 142 446 86 q 558 324 534 198 m 940 1055 l 735 0 l 495 0 l 513 91 q 414 7 471 35 q 281 -20 357 -20 q 60 81 128 -20 q 15 250 15 149 q 26 360 15 301 q 168 639 61 538 q 429 741 275 741 q 551 713 505 741 q 617 629 597 685 l 684 974 l 581 974 l 597 1055 l 940 1055 m 265 -79 l 429 -79 l 553 -333 l 442 -333 l 327 -181 l 153 -333 l 42 -333 l 265 -79 "},"⡗":{"x_min":203,"x_max":881,"ha":1084,"o":"m 242 853 q 203 949 203 893 q 243 1045 203 1005 q 338 1085 283 1085 q 433 1045 393 1085 q 474 949 474 1005 q 434 853 474 893 q 338 814 394 814 q 242 853 282 814 m 242 492 q 203 588 203 532 q 243 684 203 644 q 338 724 283 724 q 433 684 393 724 q 474 588 474 644 q 434 492 474 532 q 338 453 394 453 q 242 492 282 453 m 242 129 q 203 225 203 169 q 243 321 203 281 q 338 361 283 361 q 433 321 393 361 q 474 225 474 281 q 434 129 474 169 q 338 90 394 90 q 242 129 282 90 m 649 492 q 610 588 610 532 q 650 684 610 644 q 745 724 690 724 q 840 684 800 724 q 881 588 881 644 q 841 492 881 532 q 745 453 801 453 q 649 492 689 453 m 242 -231 q 203 -135 203 -191 q 243 -39 203 -79 q 338 0 283 0 q 433 -39 393 0 q 474 -135 474 -79 q 434 -231 474 -191 q 338 -271 394 -271 q 242 -231 282 -271 "},"ƅ":{"x_min":-68.5,"x_max":897.25,"ha":971,"o":"m 338 324 q 334 142 313 198 q 427 86 356 86 q 543 145 501 86 q 615 360 585 205 q 626 574 645 515 q 534 634 608 634 q 419 577 462 634 q 351 395 376 521 l 338 324 m 32 683 l 48 764 l 480 1055 l 397 628 q 495 712 438 685 q 628 740 552 740 q 851 638 782 740 q 885 360 920 537 q 742 81 851 183 q 480 -20 634 -20 q 358 7 404 -20 q 292 91 312 35 l 274 0 l -68 0 l -52 82 l 50 82 l 166 683 l 32 683 "},"ë":{"x_min":46,"x_max":826.71875,"ha":884,"o":"m 583 564 q 499 664 583 664 q 396 603 434 664 q 324 352 358 542 q 339 352 324 352 q 578 516 546 352 q 583 564 583 542 m 308 281 q 304 206 304 256 q 443 56 304 56 q 577 98 521 56 q 662 218 633 139 l 775 218 q 624 37 722 95 q 370 -20 526 -20 q 102 78 183 -20 q 46 256 46 147 q 56 358 46 303 q 213 640 91 539 q 514 740 335 740 q 734 690 644 740 q 824 548 824 639 q 819 510 824 529 q 308 281 777 281 m 321 995 q 364 1065 329 1036 q 440 1095 400 1095 q 505 1065 481 1095 q 520 995 528 1036 q 477 925 511 955 q 402 896 442 896 q 337 925 362 896 q 321 995 314 955 m 624 995 q 667 1065 632 1036 q 743 1095 702 1095 q 808 1065 783 1095 q 824 995 832 1036 q 781 925 817 955 q 705 896 745 896 q 640 925 664 896 q 624 995 616 955 "},"б":{"x_min":54,"x_max":964.375,"ha":1002,"o":"m 54 280 q 60 364 54 319 l 76 485 q 91 583 84 545 q 188 819 118 721 q 394 1002 285 956 q 702 1049 503 1049 q 841 1069 809 1049 q 876 1092 873 1090 l 964 1092 q 843 960 951 1040 q 696 904 784 916 q 401 854 464 874 q 266 762 337 834 q 197 618 229 724 q 529 740 327 740 q 819 640 731 740 q 883 454 883 567 q 873 360 883 410 q 711 81 838 182 q 392 -20 583 -20 q 118 77 202 -20 q 54 280 54 152 m 306 197 q 312 122 306 145 q 407 56 331 56 q 527 121 483 56 q 598 330 570 186 q 627 524 627 474 q 620 599 627 576 q 525 664 602 664 q 405 598 449 664 q 333 391 360 533 q 306 197 306 249 "},"Ẏ":{"x_min":70.53125,"x_max":1102.703125,"ha":991,"o":"m 555 1139 q 539 1209 531 1168 q 583 1279 547 1249 q 658 1309 617 1309 q 723 1279 699 1309 q 739 1209 747 1249 q 695 1139 731 1168 q 620 1110 661 1110 q 555 1139 579 1110 m 140 0 l 155 82 l 292 82 l 358 419 l 156 931 l 70 931 l 86 1013 l 571 1013 l 556 931 l 443 931 l 596 544 l 897 931 l 796 931 l 812 1013 l 1102 1013 l 1087 931 l 1000 931 l 627 454 l 554 82 l 691 82 l 675 0 l 140 0 "},"⇈":{"x_min":-6.875,"x_max":1169.875,"ha":1163,"o":"m 351 0 l 202 0 l 202 803 l -6 714 l -6 750 l 273 1033 l 279 1033 l 559 750 l 559 714 l 351 803 l 351 0 m 961 0 l 812 0 l 812 803 l 603 714 l 603 750 l 883 1033 l 889 1033 l 1169 750 l 1169 714 l 961 803 l 961 0 "},"ṝ":{"x_min":63.140625,"x_max":815.65625,"ha":732,"o":"m 815 729 l 773 514 l 696 514 q 699 540 699 528 q 682 599 699 578 q 609 628 661 628 q 471 558 530 628 q 389 366 412 489 l 317 0 l 77 0 l 201 639 l 92 639 l 107 721 l 457 721 l 433 592 q 547 704 482 668 q 696 741 612 741 q 747 737 718 741 q 815 729 777 734 m 64 -196 q 108 -126 73 -155 q 183 -97 142 -97 q 248 -126 224 -97 q 264 -196 272 -155 q 221 -266 256 -236 q 145 -296 186 -296 q 81 -266 104 -296 q 64 -196 57 -236 m 343 1051 l 770 1051 l 746 923 l 319 923 l 343 1051 "},"ӌ":{"x_min":101.71875,"x_max":1039.640625,"ha":1017,"o":"m 899 0 l 664 0 l 620 -225 l 385 -225 l 445 82 l 572 82 l 609 271 l 476 271 l 459 271 q 237 309 305 271 q 198 335 211 324 q 166 444 152 373 l 204 639 l 101 639 l 117 721 l 547 721 l 532 639 l 444 639 l 404 434 q 409 373 394 389 q 445 356 419 361 l 476 354 l 625 354 l 680 639 l 592 639 l 607 721 l 1039 721 l 1024 639 l 920 639 l 812 82 l 915 82 l 899 0 "},"☻":{"x_min":115,"x_max":1130,"ha":1245,"o":"m 115 506 q 263 866 115 717 q 622 1015 412 1015 q 981 866 833 1015 q 1130 506 1130 717 q 981 147 1130 295 q 622 0 833 0 q 263 147 412 0 q 115 506 115 295 m 383 502 l 337 502 q 618 212 337 212 q 908 504 908 212 l 860 504 q 622 293 795 293 q 383 502 467 293 m 915 698 q 826 795 915 795 q 728 695 728 795 q 819 602 728 602 q 915 698 915 602 m 520 700 q 430 795 520 795 q 332 695 332 795 q 424 602 332 602 q 520 700 520 602 "},"‐":{"x_min":57.640625,"x_max":518.796875,"ha":576,"o":"m 92 464 l 518 464 l 483 281 l 57 281 l 92 464 "},"":{"x_min":-4.96875,"x_max":976.4375,"ha":1015,"o":"m 855 336 q 786 188 835 254 q 671 76 738 122 q 524 4 605 29 q 359 -20 443 -20 q 262 -10 310 -20 q 170 15 213 -1 q 90 58 126 32 q 30 117 53 84 q -1 191 7 151 q 1 279 -9 232 q 46 368 13 326 q 124 445 78 410 q 225 504 170 480 q 336 541 279 529 l 353 474 q 312 439 329 458 q 283 395 296 419 q 261 341 270 370 q 243 277 252 312 q 235 185 229 221 q 261 126 241 148 q 314 96 282 104 q 385 88 346 88 q 457 98 424 88 q 519 139 491 109 q 571 220 547 168 q 616 353 595 272 q 633 470 633 422 q 617 547 633 517 q 573 589 601 576 q 510 603 545 603 l 456 603 l 483 707 l 543 707 q 593 717 567 707 q 643 753 619 728 q 691 822 668 778 q 729 932 713 865 q 740 1006 740 973 q 727 1062 740 1039 q 688 1098 714 1085 q 626 1111 663 1111 q 555 1107 591 1111 q 488 1088 520 1104 q 432 1040 457 1072 q 393 951 407 1008 q 401 904 386 920 q 453 880 416 887 l 329 753 q 269 783 294 766 q 230 821 244 799 q 216 873 216 844 q 224 943 216 903 q 282 1063 241 1011 q 382 1149 324 1114 q 510 1200 440 1183 q 655 1218 581 1218 q 742 1211 699 1218 q 825 1189 786 1204 q 895 1153 863 1175 q 947 1100 927 1131 q 974 1031 967 1070 q 969 943 980 992 q 919 831 952 878 q 843 752 885 785 q 753 699 800 720 q 660 663 705 677 q 755 626 710 649 q 828 565 799 602 q 866 471 857 527 q 855 336 875 416 "},"ⅷ":{"x_min":29.28125,"x_max":2330,"ha":2390,"o":"m 1011 924 q 1067 1017 1022 979 q 1167 1055 1112 1055 q 1251 1017 1221 1055 q 1274 951 1274 989 q 1271 924 1274 939 q 1216 833 1261 871 q 1117 796 1170 796 q 1032 833 1062 796 q 1009 898 1009 861 q 1011 924 1009 911 m 1109 82 l 1213 82 l 1197 0 l 854 0 l 978 639 l 876 639 l 891 721 l 1234 721 l 1109 82 m 1539 924 q 1595 1017 1550 979 q 1695 1055 1640 1055 q 1779 1017 1749 1055 q 1802 951 1802 989 q 1799 924 1802 939 q 1744 833 1789 871 q 1645 796 1698 796 q 1560 833 1590 796 q 1537 898 1537 861 q 1539 924 1537 911 m 1637 82 l 1741 82 l 1725 0 l 1382 0 l 1506 639 l 1403 639 l 1419 721 l 1762 721 l 1637 82 m 2066 924 q 2122 1017 2077 979 q 2223 1055 2168 1055 q 2307 1017 2276 1055 q 2330 951 2330 989 q 2327 924 2330 939 q 2271 833 2317 871 q 2172 796 2226 796 q 2087 833 2117 796 q 2064 898 2064 861 q 2066 924 2064 911 m 2165 82 l 2268 82 l 2253 0 l 1909 0 l 2033 639 l 1931 639 l 1946 721 l 2289 721 l 2165 82 m 432 0 l 240 0 l 108 639 l 29 639 l 44 721 l 338 721 l 449 183 q 575 328 466 183 q 719 639 675 466 l 640 639 l 656 722 l 818 722 q 681 326 818 552 q 432 0 553 111 "},"⥩":{"x_min":47,"x_max":1116,"ha":1163,"o":"m 47 388 l 1084 388 l 1084 239 l 348 239 l 437 30 l 401 30 l 47 381 l 47 388 m 1116 659 l 1116 652 l 883 421 l 776 421 l 814 510 l 79 510 l 79 659 l 1116 659 "},"ʋ":{"x_min":101.71875,"x_max":911.421875,"ha":964,"o":"m 422 -1 q 126 236 80 -1 l 204 639 l 101 639 l 118 721 l 460 721 l 365 235 q 438 82 335 82 q 564 158 507 82 q 646 359 621 233 q 651 533 667 468 q 615 634 631 615 l 620 664 l 708 664 q 872 533 819 620 q 906 349 925 445 q 845 208 892 275 q 727 92 798 141 q 583 23 661 47 q 422 -1 505 -1 "},"ц":{"x_min":88.328125,"x_max":1038.875,"ha":1116,"o":"m 88 639 l 103 721 l 447 721 l 365 300 q 349 179 349 216 q 366 112 349 131 q 435 94 383 94 q 612 317 569 94 l 691 722 l 931 722 l 819 142 q 818 128 818 135 q 871 94 818 94 q 924 111 909 94 q 951 162 940 129 l 1038 162 q 995 47 1021 86 q 988 -11 988 13 q 997 -67 988 -35 q 1007 -139 1007 -99 q 920 -259 1007 -221 q 756 -298 834 -298 l 756 -245 q 836 -211 795 -245 q 877 -112 877 -178 q 901 -51 877 -80 q 926 -7 926 -22 q 917 7 926 5 q 730 -19 834 -19 q 571 102 627 -19 q 454 9 515 38 q 308 -19 393 -19 q 147 39 187 -19 q 108 155 108 98 q 118 262 108 210 l 191 639 l 88 639 "},"ⴒ":{"x_min":42.390625,"x_max":908.765625,"ha":896,"o":"m 679 544 q 689 584 686 563 q 677 632 695 628 q 571 620 623 626 q 463 609 518 614 q 368 342 414 472 q 273 74 322 211 q 377 87 325 80 q 480 100 428 93 l 478 100 q 556 199 531 108 l 679 544 m 749 192 q 672 83 722 123 q 558 36 623 44 q 478 27 517 32 q 402 19 440 23 q 325 11 364 15 q 245 2 286 7 q 238 -46 242 -21 q 231 -95 234 -71 q 321 -201 216 -201 l 507 -201 l 493 -301 l 315 -301 q 44 -102 16 -301 l 62 21 l 270 612 q 250 612 261 612 q 228 612 239 612 q 208 612 218 612 q 193 612 199 612 l 202 676 l 292 676 q 298 695 294 684 q 304 713 302 705 l 499 713 l 486 680 q 620 697 553 688 q 754 713 686 705 q 798 716 775 716 q 908 647 917 716 q 897 614 906 636 l 897 615 l 749 192 "},"⡐":{"x_min":203,"x_max":881,"ha":1084,"o":"m 649 492 q 610 588 610 532 q 650 684 610 644 q 745 724 690 724 q 840 684 800 724 q 881 588 881 644 q 841 492 881 532 q 745 453 801 453 q 649 492 689 453 m 242 -231 q 203 -135 203 -191 q 243 -39 203 -79 q 338 0 283 0 q 433 -39 393 0 q 474 -135 474 -79 q 434 -231 474 -191 q 338 -271 394 -271 q 242 -231 282 -271 "},"w":{"x_min":42.046875,"x_max":1235.625,"ha":1196,"o":"m 893 203 q 994 326 899 208 q 1129 638 1091 450 l 1034 638 l 1051 721 l 1235 721 q 1112 328 1196 461 q 851 0 980 122 l 685 0 l 620 451 l 379 0 l 214 0 l 120 639 l 42 639 l 57 721 l 353 721 l 422 248 l 675 721 l 818 721 l 893 203 "},"о":{"x_min":47,"x_max":880,"ha":925,"o":"m 404 56 q 523 121 480 56 q 600 360 566 186 q 623 541 623 474 q 616 599 623 576 q 522 664 598 664 q 401 598 445 664 q 324 360 357 533 q 302 182 302 249 q 309 122 302 145 q 404 56 327 56 m 707 81 q 389 -20 579 -20 q 110 81 198 -20 q 47 267 47 154 q 56 360 47 310 q 218 639 91 539 q 537 740 346 740 q 816 640 728 740 q 880 454 880 567 q 869 360 880 410 q 707 81 835 182 "},"𝜾":{"x_min":103.078125,"x_max":572.375,"ha":672,"o":"m 552 22 q 208 30 325 -53 q 126 236 101 107 l 205 639 l 103 639 l 118 721 l 461 721 l 366 234 q 420 82 337 82 q 572 127 503 82 l 552 22 "},"𝒋":{"x_min":-230.09375,"x_max":491,"ha":503,"o":"m 228 924 q 284 1017 239 979 q 384 1055 329 1055 q 468 1017 437 1055 q 491 951 491 988 q 488 924 491 939 q 433 833 478 871 q 334 796 387 796 q 249 833 279 796 q 226 898 226 861 q 228 924 226 911 m 200 639 l 98 639 l 114 721 l 457 721 l 300 -85 q 189 -252 278 -195 q -52 -309 100 -309 q -138 -302 -93 -309 q -230 -282 -183 -295 l -200 -130 l -123 -130 q -127 -166 -127 -150 q -117 -207 -127 -193 q -57 -232 -101 -232 q 18 -200 -7 -232 q 60 -85 44 -168 l 200 639 "},"⊥":{"x_min":147,"x_max":1186,"ha":1333,"o":"m 147 0 l 147 152 l 584 152 l 584 956 l 749 956 l 749 152 l 1186 152 l 1186 0 l 147 0 "},"Д":{"x_min":-54.0625,"x_max":1261.546875,"ha":1235,"o":"m 276 97 q 293 82 273 82 l 690 82 l 853 920 l 497 920 l 460 732 q 285 120 379 316 q 276 97 276 101 m -54 -218 l 4 82 l 77 82 q 259 297 183 82 q 365 732 306 426 l 404 931 l 274 931 l 290 1013 l 1261 1013 l 1245 931 l 1116 931 l 951 82 l 1108 82 l 1050 -218 l 974 -218 l 974 -77 q 913 0 974 0 l 161 0 q 64 -96 94 0 q 28 -218 28 -216 l -54 -218 "},"⊄":{"x_min":147,"x_max":1016,"ha":1163,"o":"m 1016 871 l 1016 715 l 841 715 l 638 156 l 1016 156 l 1016 0 l 582 0 l 581 0 l 511 -191 l 365 -138 l 425 28 q 364 58 394 40 q 205 217 263 116 q 147 435 147 317 q 205 653 147 553 q 363 812 263 754 q 582 871 464 871 l 732 871 l 801 1062 l 948 1009 l 898 871 l 1016 871 m 479 175 l 675 715 l 582 715 q 442 677 507 715 q 340 575 378 639 q 303 435 303 510 q 340 295 303 360 q 442 193 378 231 q 479 175 460 183 "},"↙":{"x_min":205,"x_max":989.640625,"ha":1164,"o":"m 883 857 l 989 751 l 422 184 l 631 98 l 606 73 l 209 73 l 205 77 l 205 474 l 230 499 l 316 290 l 883 857 "},"⠦":{"x_min":203,"x_max":881,"ha":1084,"o":"m 242 491 q 203 587 203 531 q 243 683 203 643 q 338 723 283 723 q 433 683 393 723 q 474 587 474 643 q 434 491 474 531 q 338 452 394 452 q 242 491 282 452 m 242 129 q 203 225 203 169 q 243 321 203 281 q 338 361 283 361 q 433 321 393 361 q 474 225 474 281 q 434 129 474 169 q 338 90 394 90 q 242 129 282 90 m 649 129 q 610 225 610 169 q 650 321 610 281 q 745 361 690 361 q 840 321 800 361 q 881 225 881 281 q 841 129 881 169 q 745 90 801 90 q 649 129 689 90 "},"Ӂ":{"x_min":-85.21875,"x_max":1838.0625,"ha":1822,"o":"m 852 1288 l 934 1288 q 976 1230 942 1250 q 1066 1211 1010 1211 q 1166 1230 1123 1211 q 1229 1288 1208 1251 l 1312 1288 q 1209 1153 1275 1199 q 1046 1109 1142 1109 q 900 1153 948 1109 q 852 1288 852 1197 m -85 0 l -69 82 l 30 82 l 558 626 l 299 931 l 164 931 l 179 1013 l 557 1013 l 542 931 l 433 931 l 783 522 l 862 931 l 733 931 l 748 1013 l 1269 1013 l 1253 931 l 1123 931 l 1044 522 l 1553 931 l 1444 931 l 1460 1013 l 1838 1013 l 1822 931 l 1687 931 l 1310 626 l 1625 82 l 1725 82 l 1709 0 l 1189 0 l 1204 82 l 1318 82 l 1120 473 l 1018 391 l 958 82 l 1088 82 l 1072 0 l 552 0 l 567 82 l 697 82 l 757 391 l 688 473 l 337 82 l 451 82 l 435 0 l -85 0 "},"Ḁ":{"x_min":-108.5,"x_max":1011.15625,"ha":1078,"o":"m -108 0 l -92 82 l -10 82 l 552 1012 l 714 1012 l 914 82 l 1011 82 l 995 0 l 521 0 l 537 82 l 636 82 l 593 289 l 212 289 l 87 82 l 208 82 l 192 0 l -108 0 m 261 371 l 575 371 l 495 758 l 261 371 m 426 -173 q 417 -131 431 -148 q 378 -114 403 -114 q 332 -130 352 -114 q 307 -173 312 -147 q 316 -215 302 -198 q 355 -233 329 -233 q 401 -215 380 -233 q 426 -173 421 -198 m 526 -173 q 458 -287 513 -241 q 335 -334 402 -334 q 231 -287 268 -334 q 207 -173 194 -241 q 275 -61 220 -107 q 398 -15 330 -15 q 502 -61 465 -15 q 526 -173 539 -107 "},"◜":{"x_min":4,"x_max":534,"ha":538,"o":"m 4 361 q 269 819 4 666 q 534 896 401 896 l 534 816 q 309 750 421 816 q 83 361 83 620 l 4 361 "},"◎":{"x_min":76,"x_max":1136,"ha":1212,"o":"m 528 495 q 451 361 451 450 q 528 226 451 271 q 605 204 567 204 q 683 226 645 204 q 761 361 761 271 q 683 495 761 450 q 605 518 645 518 q 528 495 567 518 m 487 154 q 368 360 368 223 q 487 567 368 498 q 605 602 546 602 q 724 567 665 602 q 844 360 844 498 q 724 154 844 223 q 605 120 665 120 q 487 154 546 120 m 381 750 q 155 360 155 620 q 381 -28 155 101 q 605 -94 493 -94 q 830 -28 718 -94 q 1057 361 1057 101 q 830 750 1057 620 q 605 816 718 816 q 381 750 493 816 m 341 -97 q 76 361 76 55 q 341 819 76 666 q 605 896 473 896 q 870 819 738 896 q 1136 361 1136 666 q 870 -97 1136 55 q 605 -174 738 -174 q 341 -97 473 -174 "},"Ĵ":{"x_min":-218.375,"x_max":731.75,"ha":657,"o":"m 377 1288 l 585 1288 l 701 1109 l 590 1109 l 467 1218 l 301 1109 l 190 1109 l 377 1288 m -218 -242 l -187 -83 l -99 -83 q -87 -177 -107 -147 q -15 -207 -67 -207 q 86 -156 50 -207 q 149 33 122 -105 l 323 931 l 176 931 l 192 1013 l 731 1013 l 715 931 l 585 931 l 410 28 q 280 -212 378 -136 q 1 -289 182 -289 q -109 -277 -54 -289 q -218 -242 -164 -265 "},"Ҕ":{"x_min":-32.546875,"x_max":1066.765625,"ha":1185,"o":"m 458 512 l 375 82 l 534 82 l 518 0 l -32 0 l -16 82 l 112 82 l 278 931 l 148 931 l 164 1013 l 1066 1013 l 1020 774 l 927 774 l 955 920 l 537 920 l 474 594 l 739 594 q 988 512 904 594 q 1046 296 1072 431 l 998 52 q 975 -36 990 7 q 862 -221 931 -167 q 589 -297 764 -297 q 478 -285 533 -297 q 368 -250 423 -273 l 400 -91 l 488 -91 q 499 -185 479 -155 q 571 -215 520 -215 q 673 -163 637 -215 l 678 -155 q 742 58 712 -96 l 789 296 q 767 453 808 394 q 637 512 725 512 l 458 512 "},"⥥":{"x_min":163.125,"x_max":1000.875,"ha":1164,"o":"m 643 -32 l 643 1005 l 792 1005 l 792 269 l 1000 357 l 1000 322 l 649 -32 l 643 -32 m 521 -32 l 514 -32 l 163 322 l 163 357 l 372 269 l 372 1005 l 521 1005 l 521 -32 "},"г":{"x_min":77,"x_max":767,"ha":781,"o":"m 77 146 q 172 332 77 262 q 447 486 248 387 q 543 597 543 533 q 466 664 543 664 q 153 503 316 664 l 100 562 q 283 704 196 667 q 501 741 371 741 q 699 692 632 741 q 767 575 767 644 q 665 367 767 444 q 362 198 563 289 q 301 125 301 170 q 380 56 301 56 q 665 177 544 56 l 699 218 l 752 159 q 352 -20 618 -20 q 153 32 230 -20 q 77 146 77 85 "},"𝒀":{"x_min":70.53125,"x_max":1102.703125,"ha":991,"o":"m 140 0 l 155 82 l 292 82 l 358 419 l 156 931 l 70 931 l 86 1013 l 571 1013 l 556 931 l 443 931 l 596 544 l 897 931 l 796 931 l 812 1013 l 1102 1013 l 1087 931 l 1000 931 l 627 454 l 554 82 l 691 82 l 675 0 l 140 0 "},"⡦":{"x_min":203,"x_max":881,"ha":1084,"o":"m 242 492 q 203 588 203 532 q 243 684 203 644 q 338 724 283 724 q 433 684 393 724 q 474 588 474 644 q 434 492 474 532 q 338 453 394 453 q 242 492 282 453 m 242 129 q 203 225 203 169 q 243 321 203 281 q 338 361 283 361 q 433 321 393 361 q 474 225 474 281 q 434 129 474 169 q 338 90 394 90 q 242 129 282 90 m 649 129 q 610 225 610 169 q 650 321 610 281 q 745 361 690 361 q 840 321 800 361 q 881 225 881 281 q 841 129 881 169 q 745 90 801 90 q 649 129 689 90 m 242 -231 q 203 -135 203 -191 q 243 -39 203 -79 q 338 0 283 0 q 433 -39 393 0 q 474 -135 474 -79 q 434 -231 474 -191 q 338 -271 394 -271 q 242 -231 282 -271 "},"Ŀ":{"x_min":-32.546875,"x_max":989.28125,"ha":977,"o":"m 748 510 q 728 601 718 548 q 783 692 738 654 q 882 730 829 730 q 966 692 935 730 q 986 601 996 654 q 931 510 976 548 q 832 473 885 473 q 748 510 779 473 m -32 0 l -16 82 l 112 82 l 278 931 l 148 931 l 164 1013 l 684 1013 l 669 931 l 539 931 l 376 92 l 775 92 l 805 252 l 897 252 l 848 0 l -32 0 "},"𝜻":{"x_min":42.8125,"x_max":883.796875,"ha":823,"o":"m 681 973 l 244 973 l 222 859 l 140 859 l 178 1055 l 883 1055 l 867 973 q 410 603 528 793 q 320 360 348 503 q 316 126 289 197 q 438 56 344 56 q 660 -100 660 56 q 560 -238 660 -175 q 327 -290 478 -290 l 341 -217 q 497 -110 475 -217 q 383 -20 516 -20 q 104 79 190 -20 q 53 360 17 179 q 213 647 80 500 q 681 973 379 833 "},"ᾙ":{"x_min":90.703125,"x_max":1555.71875,"ha":1520,"o":"m 174 0 l 189 82 l 319 82 l 484 931 l 355 931 l 370 1013 l 891 1013 l 876 931 l 745 931 l 679 590 l 1082 590 l 1148 931 l 1019 931 l 1034 1013 l 1555 1013 l 1540 931 l 1409 931 l 1244 82 l 1374 82 l 1359 0 l 838 0 l 853 82 l 983 82 l 1064 497 l 661 497 l 580 82 l 710 82 l 695 0 l 174 0 m 193 973 q 242 861 204 892 l 168 829 q 96 954 116 909 q 96 1041 84 981 q 143 1124 103 1079 q 229 1162 183 1162 q 294 1133 273 1162 q 310 1063 317 1100 q 267 994 302 1021 q 193 973 233 967 m 853 -277 l 802 -288 q 670 -171 641 -322 l 687 -83 l 821 -83 l 802 -180 q 826 -234 790 -243 l 863 -225 l 853 -277 "},"⡳":{"x_min":203,"x_max":881,"ha":1084,"o":"m 242 853 q 203 949 203 893 q 243 1045 203 1005 q 338 1085 283 1085 q 433 1045 393 1085 q 474 949 474 1005 q 434 853 474 893 q 338 814 394 814 q 242 853 282 814 m 242 492 q 203 588 203 532 q 243 684 203 644 q 338 724 283 724 q 433 684 393 724 q 474 588 474 644 q 434 492 474 532 q 338 453 394 453 q 242 492 282 453 m 649 492 q 610 588 610 532 q 650 684 610 644 q 745 724 690 724 q 840 684 800 724 q 881 588 881 644 q 841 492 881 532 q 745 453 801 453 q 649 492 689 453 m 649 129 q 610 225 610 169 q 650 321 610 281 q 745 361 690 361 q 840 321 800 361 q 881 225 881 281 q 841 129 881 169 q 745 90 801 90 q 649 129 689 90 m 242 -231 q 203 -135 203 -191 q 243 -39 203 -79 q 338 0 283 0 q 433 -39 393 0 q 474 -135 474 -79 q 434 -231 474 -191 q 338 -271 394 -271 q 242 -231 282 -271 "},"∦":{"x_min":120.328125,"x_max":954.671875,"ha":1075,"o":"m 602 460 l 473 331 l 473 -136 l 317 -136 l 317 175 l 230 89 l 120 199 l 317 396 l 317 1148 l 473 1148 l 473 552 l 602 681 l 602 1148 l 758 1148 l 758 837 l 844 923 l 954 813 l 758 616 l 758 -136 l 602 -136 l 602 460 "},"ʟ":{"x_min":16.953125,"x_max":797.53125,"ha":897,"o":"m 16 0 l 32 82 l 162 82 l 270 639 l 141 639 l 156 721 l 677 721 l 661 639 l 531 639 l 425 92 l 674 92 l 705 252 l 797 252 l 748 0 l 16 0 "},"Ǟ":{"x_min":-108.5,"x_max":1011.15625,"ha":1078,"o":"m 514 1523 l 941 1523 l 916 1395 l 489 1395 l 514 1523 m -108 0 l -92 82 l -10 82 l 552 1012 l 714 1012 l 914 82 l 1011 82 l 995 0 l 521 0 l 537 82 l 636 82 l 593 289 l 212 289 l 87 82 l 208 82 l 192 0 l -108 0 m 261 371 l 575 371 l 495 758 l 261 371 m 433 1134 q 417 1204 408 1163 q 460 1274 425 1244 q 536 1304 495 1304 q 600 1274 576 1304 q 615 1204 623 1244 q 573 1134 607 1163 q 498 1105 539 1105 q 433 1134 457 1105 m 735 1134 q 720 1204 712 1163 q 763 1274 728 1244 q 838 1304 798 1304 q 904 1274 879 1304 q 920 1204 928 1244 q 876 1134 912 1163 q 800 1105 841 1105 q 735 1134 760 1105 "},"Җ":{"x_min":-84.421875,"x_max":1838.859375,"ha":1822,"o":"m -84 0 l -68 82 l 31 82 l 559 626 l 300 930 l 165 930 l 180 1012 l 558 1012 l 542 930 l 434 930 l 784 521 l 863 930 l 734 930 l 749 1012 l 1269 1012 l 1254 930 l 1124 930 l 1045 521 l 1554 930 l 1445 930 l 1461 1012 l 1838 1012 l 1823 930 l 1688 930 l 1311 626 l 1627 82 l 1726 82 l 1668 -218 l 1592 -218 l 1592 -77 q 1536 0 1592 0 l 1189 0 l 1206 82 l 1320 82 l 1121 473 l 1019 391 l 959 82 l 1089 82 l 1073 0 l 553 0 l 569 82 l 698 82 l 758 391 l 689 473 l 338 82 l 452 82 l 436 0 l -84 0 "},"€":{"x_min":-32.859375,"x_max":967.84375,"ha":967,"o":"m 860 289 q 702 58 805 137 q 456 -20 599 -20 q 190 79 284 -20 q 96 359 96 178 l -32 359 l 18 440 l 100 440 q 103 454 102 444 q 110 505 108 490 q 123 560 114 522 q 126 571 125 566 l 8 571 l 60 652 l 153 652 q 356 931 223 832 q 661 1030 489 1030 q 809 1009 735 1030 q 967 942 883 988 l 919 694 l 839 694 q 801 888 839 826 q 686 951 764 951 q 532 877 597 951 q 423 652 467 803 l 742 652 l 690 571 l 403 571 q 391 524 395 541 q 385 494 387 507 q 382 473 384 492 q 376 440 379 455 l 606 440 l 554 359 l 367 359 q 387 133 351 208 q 513 59 423 59 q 650 117 589 59 q 750 289 710 176 l 860 289 "},"⤍":{"x_min":79,"x_max":1112,"ha":1164,"o":"m 79 374 l 79 523 l 453 523 l 453 374 l 79 374 m 575 374 l 575 523 l 882 523 l 794 731 l 829 731 l 1112 451 l 1112 445 l 829 165 l 794 165 l 882 374 l 575 374 "},"Ἀ":{"x_min":-108.5,"x_max":1011.15625,"ha":1078,"o":"m -108 0 l -92 82 l -10 82 l 552 1012 l 714 1012 l 914 82 l 1011 82 l 995 0 l 521 0 l 537 82 l 636 82 l 593 289 l 212 289 l 87 82 l 208 82 l 192 0 l -108 0 m 261 371 l 575 371 l 495 758 l 261 371 m 332 973 q 265 993 288 967 q 249 1063 241 1021 q 292 1133 257 1100 q 368 1162 324 1162 q 440 1124 415 1162 q 455 1041 462 1079 q 421 954 443 981 q 300 828 383 909 l 239 860 q 332 973 288 891 "},"С":{"x_min":45.390625,"x_max":1091.96875,"ha":1105,"o":"m 992 289 q 803 56 922 132 q 510 -20 685 -20 q 132 121 253 -20 q 58 505 11 262 q 281 889 105 748 q 714 1031 458 1031 q 898 1009 805 1031 q 1091 943 991 987 l 1043 694 l 957 694 q 899 885 957 821 q 726 949 841 949 q 485 840 578 949 q 348 505 392 731 q 355 170 304 279 q 555 62 406 62 q 731 118 656 62 q 858 289 806 174 l 992 289 "},"⨍":{"x_min":35,"x_max":814,"ha":847,"o":"m 247 -169 q 320 283 320 -169 q 320 355 320 325 l 139 355 l 139 515 l 346 515 q 410 898 346 771 q 651 1055 488 1055 q 769 1019 724 1055 q 814 925 814 983 q 786 855 814 882 q 714 828 758 828 q 649 854 671 828 q 627 931 627 881 q 621 964 627 957 q 602 972 615 972 q 528 519 528 972 l 528 515 l 714 515 l 714 355 l 511 355 q 498 137 511 210 q 458 -28 484 40 q 350 -197 416 -141 q 195 -254 284 -254 q 78 -218 122 -254 q 35 -124 35 -183 q 63 -53 35 -80 q 139 -27 91 -27 q 201 -51 179 -27 q 224 -121 224 -76 q 222 -137 224 -129 l 222 -139 q 228 -162 222 -156 q 247 -169 234 -169 "},"◓":{"x_min":76,"x_max":1136,"ha":1212,"o":"m 146 94 q 76 359 76 217 q 146 624 76 501 q 340 818 217 747 q 606 890 463 890 q 871 818 748 890 q 1065 624 994 747 q 1136 359 1136 501 q 1065 94 1136 217 q 871 -99 994 -28 q 606 -171 748 -171 q 340 -99 463 -171 q 146 94 217 -28 m 1057 361 q 830 750 1057 620 q 605 816 719 816 q 381 750 493 816 q 155 361 155 620 l 1057 361 "},"Ӓ":{"x_min":-84.09375,"x_max":1035.5625,"ha":1131,"o":"m -84 0 l -68 82 l 14 82 l 576 1012 l 738 1012 l 939 82 l 1035 82 l 1019 0 l 545 0 l 561 82 l 660 82 l 617 289 l 237 289 l 111 82 l 232 82 l 217 0 l -84 0 m 286 371 l 600 371 l 519 758 l 286 371 m 457 1134 q 441 1204 433 1163 q 484 1274 449 1244 q 560 1304 520 1304 q 624 1274 600 1304 q 640 1204 648 1244 q 597 1134 632 1163 q 522 1105 563 1105 q 457 1134 482 1105 m 760 1134 q 744 1204 736 1163 q 788 1274 752 1244 q 863 1304 822 1304 q 928 1274 904 1304 q 944 1204 952 1244 q 901 1134 936 1163 q 825 1105 866 1105 q 760 1134 784 1105 "},"◭":{"x_min":4.34375,"x_max":1064.328125,"ha":1068,"o":"m 534 -94 l 948 -94 l 534 737 l 534 -94 m 4 -171 l 534 892 l 1064 -171 l 4 -171 "},"ᵄ":{"x_min":92.234375,"x_max":592.171875,"ha":647,"o":"m 113 617 l 157 815 l 92 815 l 102 860 l 318 860 l 307 809 q 384 856 344 841 q 471 872 424 872 q 571 839 541 872 q 587 745 601 806 q 512 645 573 678 q 342 612 450 612 l 263 612 l 258 589 q 268 517 247 540 q 343 494 289 494 q 417 510 389 494 q 463 564 445 526 l 512 564 l 493 477 q 404 459 449 465 q 311 453 360 453 q 142 492 189 453 q 113 617 94 532 m 290 736 l 273 657 l 330 657 q 399 676 372 657 q 434 734 426 696 q 431 790 443 771 q 385 809 419 809 q 324 789 349 809 q 290 736 298 769 "},"⣶":{"x_min":203,"x_max":881,"ha":1084,"o":"m 242 492 q 203 588 203 532 q 243 684 203 644 q 338 724 283 724 q 433 684 393 724 q 474 588 474 644 q 434 492 474 532 q 338 453 394 453 q 242 492 282 453 m 242 129 q 203 225 203 169 q 243 321 203 281 q 338 361 283 361 q 433 321 393 361 q 474 225 474 281 q 434 129 474 169 q 338 90 394 90 q 242 129 282 90 m 649 492 q 610 588 610 532 q 650 684 610 644 q 745 724 690 724 q 840 684 800 724 q 881 588 881 644 q 841 492 881 532 q 745 453 801 453 q 649 492 689 453 m 649 129 q 610 225 610 169 q 650 321 610 281 q 745 361 690 361 q 840 321 800 361 q 881 225 881 281 q 841 129 881 169 q 745 90 801 90 q 649 129 689 90 m 242 -231 q 203 -135 203 -191 q 243 -39 203 -79 q 338 0 283 0 q 433 -39 393 0 q 474 -135 474 -79 q 434 -231 474 -191 q 338 -271 394 -271 q 242 -231 282 -271 m 649 -231 q 610 -135 610 -191 q 650 -39 610 -79 q 745 0 690 0 q 840 -39 800 0 q 881 -135 881 -79 q 841 -231 881 -191 q 745 -271 801 -271 q 649 -231 689 -271 "},"Ὕ":{"x_min":82.5625,"x_max":1684.578125,"ha":1573,"o":"m 722 0 l 737 82 l 874 82 l 939 419 l 738 931 l 652 931 l 668 1013 l 1153 1013 l 1137 931 l 1025 931 l 1177 544 l 1479 931 l 1378 931 l 1394 1013 l 1684 1013 l 1668 931 l 1582 931 l 1209 454 l 1136 82 l 1272 82 l 1257 0 l 722 0 m 509 1111 l 698 1111 l 395 856 l 284 856 l 509 1111 m 185 973 q 233 860 195 892 l 160 828 q 88 954 108 909 q 88 1041 76 981 q 134 1124 95 1079 q 221 1163 175 1163 q 286 1133 265 1163 q 302 1063 309 1100 q 259 994 294 1021 q 185 973 225 967 "},"ẳ":{"x_min":37.0625,"x_max":800.09375,"ha":900,"o":"m 568 593 q 529 634 568 634 q 349 525 438 634 q 275 308 308 475 q 268 134 251 182 q 350 86 286 86 q 453 142 414 86 q 517 324 493 198 l 568 593 m 800 698 l 680 83 l 771 83 l 755 0 l 454 0 l 471 91 q 264 -20 397 -20 q 75 66 133 -20 q 47 303 17 152 q 206 585 76 454 q 566 740 360 740 q 800 698 770 740 m 295 1077 l 380 1077 q 407 1001 374 1028 q 507 975 440 975 q 617 1001 574 975 q 674 1078 660 1028 l 759 1078 q 667 921 740 978 q 486 866 595 866 q 326 921 376 866 q 295 1077 277 976 m 628 1462 q 775 1370 775 1462 q 773 1342 775 1357 q 739 1269 766 1307 q 634 1189 698 1214 l 619 1115 l 492 1115 l 506 1189 q 616 1248 565 1215 q 655 1312 655 1274 q 641 1345 655 1335 q 582 1362 619 1362 q 465 1338 533 1362 l 487 1444 q 628 1462 561 1462 "},"♣":{"x_min":155,"x_max":1089.65625,"ha":1245,"o":"m 623 1011 q 837 857 768 1011 q 847 784 847 822 q 766 596 847 705 l 725 556 l 728 556 q 835 575 778 575 l 848 575 q 1074 438 1009 575 q 1089 352 1089 393 q 948 143 1089 213 q 873 131 921 135 q 640 317 708 131 l 638 317 l 638 310 q 694 4 638 78 l 694 0 l 552 0 l 548 4 q 606 316 606 90 l 606 319 l 603 319 q 370 131 536 131 q 171 267 241 131 q 155 352 155 313 q 321 566 155 510 q 400 575 366 575 l 407 575 q 517 556 465 575 l 520 556 l 520 558 q 443 653 463 606 q 403 782 403 727 l 403 792 q 548 998 403 928 q 623 1011 596 1011 "},"ᴹ":{"x_min":-25.09375,"x_max":989.453125,"ha":968,"o":"m -25 464 l -14 509 l 65 509 l 169 976 l 88 976 l 99 1021 l 362 1021 l 464 663 l 727 1021 l 989 1021 l 979 976 l 897 976 l 794 509 l 875 509 l 865 464 l 537 464 l 547 509 l 628 509 l 722 933 l 438 545 l 330 545 l 220 933 l 125 509 l 206 509 l 196 464 l -25 464 "},"¶":{"x_min":148.671875,"x_max":910.109375,"ha":884,"o":"m 533 1013 l 910 1013 l 893 928 l 817 928 l 611 -133 l 507 -133 l 714 928 l 603 928 l 397 -133 l 294 -133 l 405 445 q 196 521 261 445 q 155 723 130 597 q 283 933 180 853 q 533 1013 387 1013 "},"Ụ":{"x_min":131.5625,"x_max":1281.0625,"ha":1211,"o":"m 398 -196 q 441 -126 406 -155 q 516 -97 476 -97 q 581 -126 557 -97 q 597 -196 605 -155 q 554 -266 590 -236 q 478 -296 519 -296 q 414 -266 438 -296 q 398 -196 390 -236 m 260 931 l 131 931 l 147 1013 l 668 1013 l 652 931 l 522 931 l 424 424 q 432 159 387 235 q 619 84 476 84 q 832 160 759 84 q 942 424 906 236 l 1040 931 l 912 931 l 928 1013 l 1281 1013 l 1264 931 l 1135 931 l 1034 410 q 869 79 989 178 q 513 -19 750 -19 q 196 80 278 -19 q 160 411 114 180 l 260 931 "},"𝜰":{"x_min":70.53125,"x_max":1102.703125,"ha":991,"o":"m 140 0 l 155 82 l 292 82 l 358 419 l 156 931 l 70 931 l 86 1013 l 571 1013 l 556 931 l 443 931 l 596 544 l 897 931 l 796 931 l 812 1013 l 1102 1013 l 1087 931 l 1000 931 l 627 454 l 554 82 l 691 82 l 675 0 l 140 0 "},"­":{"x_min":57.640625,"x_max":518.796875,"ha":576,"o":"m 92 464 l 518 464 l 483 281 l 57 281 l 92 464 "},"ḳ":{"x_min":46.796875,"x_max":898.578125,"ha":962,"o":"m 286 0 l 46 0 l 236 974 l 133 974 l 149 1055 l 491 1055 l 360 377 l 701 639 l 615 639 l 631 721 l 826 721 l 811 639 l 592 472 l 820 82 l 898 82 l 882 0 l 617 0 l 419 339 l 341 279 l 286 0 m 269 -197 q 313 -127 278 -156 q 388 -98 347 -98 q 453 -127 429 -98 q 469 -197 477 -156 q 426 -267 461 -237 q 350 -297 391 -297 q 286 -267 309 -297 q 269 -197 262 -237 "},"ѫ":{"x_min":30.8125,"x_max":1418.640625,"ha":1402,"o":"m 648 340 l 633 340 q 519 260 544 322 q 375 24 433 52 q 189 -20 285 -20 q 54 10 92 -20 q 39 144 16 41 l 111 161 q 144 56 111 56 q 226 125 197 56 q 318 314 283 264 q 601 422 369 388 l 411 640 l 427 721 l 1255 721 l 1238 640 l 963 422 q 1207 314 1183 388 q 1224 125 1224 264 q 1278 56 1224 56 q 1352 161 1313 56 l 1418 144 q 1350 10 1401 41 q 1202 -20 1300 -20 q 1032 24 1104 -20 q 985 260 985 52 q 900 340 985 322 l 886 340 l 819 0 l 582 0 l 648 340 m 702 639 l 869 447 l 1111 639 l 702 639 "},"Ѝ":{"x_min":-33.234375,"x_max":1348.203125,"ha":1312,"o":"m 798 1288 l 886 1109 l 775 1109 l 609 1288 l 798 1288 m -33 0 l -17 82 l 111 82 l 277 931 l 147 931 l 163 1013 l 684 1013 l 668 931 l 538 931 l 432 383 l 927 858 l 941 931 l 811 931 l 827 1013 l 1348 1013 l 1332 931 l 1202 931 l 1036 82 l 1167 82 l 1151 0 l 630 0 l 646 82 l 775 82 l 886 648 l 391 173 l 373 82 l 503 82 l 487 0 l -33 0 "},"̯":{"x_min":-599.5,"x_max":-130.703125,"ha":0,"o":"m -135 -306 l -220 -306 q -247 -230 -214 -256 q -347 -204 -280 -204 q -457 -230 -415 -204 q -514 -306 -501 -256 l -599 -306 q -507 -150 -580 -206 q -326 -95 -436 -95 q -166 -149 -216 -95 q -135 -306 -117 -204 "},"⬌":{"x_min":52,"x_max":1113,"ha":1165,"o":"m 376 629 l 788 629 l 788 733 l 829 733 l 1113 452 l 1113 446 l 829 166 l 788 166 l 788 270 l 376 270 l 376 166 l 334 166 l 52 446 l 52 452 l 334 733 l 376 733 l 376 629 "},"ᶹ":{"x_min":92.234375,"x_max":602.734375,"ha":679,"o":"m 295 463 q 107 592 78 463 l 157 815 l 92 815 l 102 860 l 318 860 l 259 592 q 305 508 240 508 q 384 550 347 508 q 435 661 420 592 q 438 757 448 721 q 415 812 426 802 l 419 829 l 474 829 q 577 756 544 805 q 599 655 611 708 q 560 577 590 614 q 486 513 531 540 q 396 476 445 489 q 295 463 347 463 "},"ǲ":{"x_min":-32.546875,"x_max":2016.875,"ha":1993,"o":"m 2001 640 l 1526 132 q 1568 112 1548 124 q 1708 66 1654 66 q 1911 164 1789 66 l 1890 57 q 1662 -55 1770 -55 q 1519 -10 1605 -55 q 1384 39 1422 39 q 1306 23 1346 39 q 1251 -1 1267 8 l 1184 -1 l 1199 82 l 1673 589 q 1632 608 1651 597 q 1492 655 1546 655 q 1289 556 1411 655 l 1310 663 q 1538 776 1430 776 q 1681 731 1595 776 q 1816 682 1778 682 q 1894 697 1854 682 q 1949 722 1933 713 l 2016 722 l 2001 640 m 373 82 l 467 82 q 720 183 626 82 q 856 507 813 285 q 846 829 899 728 q 633 931 792 931 l 539 931 l 373 82 m -32 0 l -16 82 l 112 82 l 278 931 l 148 931 l 164 1013 l 683 1013 q 1075 882 956 1013 q 1146 507 1194 752 q 929 130 1099 261 q 486 0 758 0 l -32 0 "},"𝑵":{"x_min":-36.625,"x_max":1312.9375,"ha":1270,"o":"m -36 0 l -21 82 l 108 82 l 273 931 l 144 931 l 160 1013 l 476 1013 l 948 295 l 1072 931 l 943 931 l 958 1013 l 1312 1013 l 1297 931 l 1167 931 l 986 0 l 809 0 l 330 732 l 204 82 l 332 82 l 317 0 l -36 0 "},"⤆":{"x_min":51.34375,"x_max":1084,"ha":1163,"o":"m 331 255 l 369 164 l 334 164 l 51 445 l 51 451 l 334 732 l 369 732 l 331 642 l 935 642 l 935 715 l 1084 715 l 1084 182 l 935 182 l 935 255 l 331 255 m 935 387 l 935 510 l 275 510 l 250 448 l 275 387 l 935 387 "},"Ƨ":{"x_min":42.765625,"x_max":967.375,"ha":1003,"o":"m 815 48 q 606 -3 707 13 q 406 -20 505 -20 q 110 59 200 -20 q 50 292 20 139 q 153 498 75 423 q 379 608 231 572 l 538 645 q 724 713 682 680 q 778 809 766 746 q 748 914 792 879 q 602 949 703 949 q 404 900 480 949 q 288 747 328 851 l 202 747 l 245 971 q 453 1016 354 1001 q 641 1031 552 1031 q 904 946 821 1031 q 959 712 989 863 q 861 520 935 587 q 632 415 788 452 l 473 377 q 307 314 351 348 q 251 219 263 280 q 283 102 236 142 q 436 62 330 62 q 649 118 565 62 q 775 289 733 174 l 861 289 l 815 48 "},"У":{"x_min":53.671875,"x_max":1211.984375,"ha":1127,"o":"m 253 -20 q 53 26 162 -20 l 84 185 l 173 185 q 171 139 171 167 q 188 87 171 112 q 277 62 205 62 q 436 128 389 62 l 457 158 l 204 930 l 118 930 l 134 1012 l 619 1012 l 603 930 l 489 930 l 653 432 l 1007 930 l 905 930 l 921 1012 l 1211 1012 l 1195 930 l 1109 930 l 539 128 q 487 66 510 89 q 253 -20 397 -20 "},"ᾢ":{"x_min":49.3125,"x_max":1275.859375,"ha":1322,"o":"m 132 93 q 61 216 94 129 q 59 381 38 275 q 170 588 82 500 q 385 720 257 676 l 472 720 l 466 691 q 390 588 442 674 q 323 391 348 519 q 320 161 293 237 q 404 82 349 82 q 520 262 486 82 l 566 498 l 807 498 l 760 262 q 807 82 726 82 q 921 161 861 82 q 1008 391 978 237 q 1018 588 1033 519 q 981 691 999 674 l 988 721 l 1075 721 q 1239 587 1185 676 q 1268 379 1291 499 q 1203 213 1248 273 q 1083 89 1135 126 q 939 20 1036 57 q 757 -2 881 -2 q 609 96 659 -2 q 421 -2 522 -2 q 248 24 307 -2 q 132 93 166 61 m 541 973 q 475 993 498 967 q 459 1063 450 1021 q 502 1133 466 1100 q 578 1163 534 1163 q 650 1124 624 1163 q 664 1041 672 1079 q 630 954 653 981 q 509 828 593 909 l 448 860 q 541 973 498 891 m 904 1110 l 1029 856 l 918 856 l 715 1110 l 904 1110 m 682 -277 l 632 -288 q 500 -171 471 -322 l 517 -83 l 651 -83 l 632 -180 q 656 -234 620 -243 l 693 -225 l 682 -277 "},"ү":{"x_min":65.78125,"x_max":872.796875,"ha":795,"o":"m 65 639 l 82 721 l 375 721 l 503 217 q 743 639 670 430 l 653 639 l 670 721 l 872 721 q 534 120 805 442 l 455 -288 l 214 -288 l 286 80 l 143 639 l 65 639 "},"Ί":{"x_min":59,"x_max":940.625,"ha":919,"o":"m 284 1111 l 473 1111 l 170 856 l 59 856 l 284 1111 m 223 0 l 238 82 l 368 82 l 533 931 l 404 931 l 419 1013 l 940 1013 l 925 931 l 794 931 l 629 82 l 759 82 l 743 0 l 223 0 "},"⇑":{"x_min":298.796875,"x_max":865.203125,"ha":1164,"o":"m 389 752 l 298 714 l 298 750 l 578 1033 l 585 1033 l 865 750 l 865 714 l 775 752 l 775 0 l 643 0 l 643 808 l 582 834 l 521 808 l 521 0 l 389 0 l 389 752 "},"︄":{"x_min":0,"x_max":0,"ha":0},"⅓":{"x_min":39.328125,"x_max":1399.4375,"ha":1438,"o":"m 966 551 q 1080 571 1028 564 q 1175 578 1132 578 q 1353 542 1298 578 q 1397 438 1409 506 q 1345 358 1387 389 q 1232 315 1304 326 q 1346 266 1311 304 q 1369 166 1381 229 q 1275 41 1352 83 q 1062 0 1198 0 q 954 7 1007 0 q 851 29 901 14 l 876 165 l 941 165 q 960 83 936 110 q 1038 57 984 57 q 1134 86 1097 57 q 1182 170 1171 115 q 1166 254 1193 225 q 1076 284 1138 284 l 1049 284 l 1059 341 l 1081 341 q 1169 364 1135 341 q 1212 430 1203 387 q 1198 497 1220 473 q 1127 521 1176 521 q 1051 496 1083 521 q 1007 427 1019 471 l 942 427 l 966 551 m 39 464 l 51 528 l 162 528 l 243 943 l 106 875 l 120 946 l 286 1031 l 440 1031 l 343 528 l 454 528 l 442 464 l 39 464 m 1099 1031 l 1215 1031 l 377 -20 l 261 -20 l 1099 1031 "},"Ģ":{"x_min":44.84375,"x_max":1126.3125,"ha":1186,"o":"m 447 -285 q 537 -221 505 -256 q 579 -139 569 -185 l 584 -110 l 729 -110 l 728 -112 q 656 -241 714 -188 q 494 -333 599 -295 l 447 -285 m 990 694 q 929 888 990 828 q 739 949 869 949 q 487 842 581 949 q 348 505 393 735 q 353 169 304 277 q 552 62 403 62 q 660 74 609 62 q 757 113 711 87 l 810 392 l 688 392 l 705 473 l 1070 473 l 994 84 q 751 5 869 31 q 513 -20 632 -20 q 132 120 253 -20 q 58 505 10 260 q 281 890 105 750 q 718 1031 458 1031 q 927 1009 827 1031 q 1126 943 1028 987 l 1078 694 l 990 694 "},"ᾇ":{"x_min":45.34375,"x_max":1036.765625,"ha":1069,"o":"m 810 631 q 949 721 878 686 l 1036 721 l 1030 691 q 881 559 937 626 q 815 455 862 536 l 815 232 q 871 85 815 85 q 990 127 926 85 l 969 22 q 656 30 768 -51 q 614 70 635 45 q 523 7 582 30 q 355 -20 456 -20 q 90 81 158 -20 q 56 359 22 182 q 199 637 91 535 q 520 738 305 738 q 810 631 757 738 m 589 244 l 589 533 q 527 634 589 634 q 410 569 456 634 q 339 357 369 511 q 327 145 308 204 q 420 86 346 86 q 535 141 492 86 q 589 244 546 156 m 372 1189 l 374 1199 q 439 1349 393 1298 q 555 1401 485 1401 q 602 1393 580 1401 q 652 1363 624 1384 l 694 1332 l 695 1330 q 746 1311 722 1311 q 795 1334 774 1311 q 824 1400 816 1358 l 899 1400 l 897 1389 q 831 1238 878 1290 q 716 1188 785 1188 q 669 1196 691 1188 q 619 1225 646 1204 l 576 1256 l 576 1257 q 525 1278 549 1278 q 476 1254 497 1278 q 447 1189 455 1230 l 372 1189 m 555 972 q 603 860 565 891 l 530 828 q 458 953 478 908 q 458 1041 446 980 q 504 1123 465 1079 q 591 1161 545 1161 q 656 1132 635 1161 q 672 1062 679 1099 q 629 993 664 1020 q 555 972 595 966 m 465 -277 l 414 -288 q 283 -171 253 -322 l 300 -83 l 433 -83 l 415 -180 q 439 -234 403 -243 l 475 -225 l 465 -277 "},"⣂":{"x_min":203,"x_max":881,"ha":1084,"o":"m 242 492 q 203 588 203 532 q 243 684 203 644 q 338 724 283 724 q 433 684 393 724 q 474 588 474 644 q 434 492 474 532 q 338 453 394 453 q 242 492 282 453 m 242 -231 q 203 -135 203 -191 q 243 -39 203 -79 q 338 0 283 0 q 433 -39 393 0 q 474 -135 474 -79 q 434 -231 474 -191 q 338 -271 394 -271 q 242 -231 282 -271 m 649 -231 q 610 -135 610 -191 q 650 -39 610 -79 q 745 0 690 0 q 840 -39 800 0 q 881 -135 881 -79 q 841 -231 881 -191 q 745 -271 801 -271 q 649 -231 689 -271 "},"⡞":{"x_min":203,"x_max":881,"ha":1084,"o":"m 242 492 q 203 588 203 532 q 243 684 203 644 q 338 724 283 724 q 433 684 393 724 q 474 588 474 644 q 434 492 474 532 q 338 453 394 453 q 242 492 282 453 m 242 129 q 203 225 203 169 q 243 321 203 281 q 338 361 283 361 q 433 321 393 361 q 474 225 474 281 q 434 129 474 169 q 338 90 394 90 q 242 129 282 90 m 649 853 q 610 949 610 893 q 650 1045 610 1005 q 745 1085 690 1085 q 840 1045 800 1085 q 881 949 881 1005 q 841 853 881 893 q 745 814 801 814 q 649 853 689 814 m 649 492 q 610 588 610 532 q 650 684 610 644 q 745 724 690 724 q 840 684 800 724 q 881 588 881 644 q 841 492 881 532 q 745 453 801 453 q 649 492 689 453 m 242 -231 q 203 -135 203 -191 q 243 -39 203 -79 q 338 0 283 0 q 433 -39 393 0 q 474 -135 474 -79 q 434 -231 474 -191 q 338 -271 394 -271 q 242 -231 282 -271 "},"ǌ":{"x_min":77.421875,"x_max":1501,"ha":1513,"o":"m 1238 924 q 1294 1017 1249 979 q 1394 1055 1339 1055 q 1478 1017 1447 1055 q 1501 951 1501 988 q 1498 924 1501 939 q 1443 833 1488 871 q 1344 796 1397 796 q 1259 833 1289 796 q 1236 898 1236 861 q 1238 924 1236 911 m 1210 639 l 1108 639 l 1124 721 l 1467 721 l 1310 -85 q 1199 -252 1288 -195 q 957 -309 1110 -309 q 871 -302 916 -309 q 779 -282 826 -295 l 809 -130 l 886 -130 q 883 -166 883 -150 q 892 -207 883 -193 q 952 -232 908 -232 q 1028 -200 1002 -232 q 1070 -85 1054 -168 l 1210 639 m 77 0 l 201 639 l 99 639 l 114 721 l 457 721 l 437 619 q 554 712 493 683 q 700 741 615 741 q 869 668 821 741 q 901 550 901 623 q 891 458 901 508 l 817 82 l 920 82 l 905 0 l 562 0 l 652 465 q 662 545 662 512 q 653 592 662 575 q 579 628 637 628 q 462 574 507 628 q 396 405 418 521 l 317 0 l 77 0 "},"⁵":{"x_min":15.59375,"x_max":558.140625,"ha":608,"o":"m 558 1031 l 536 933 l 193 933 l 166 801 q 236 829 199 820 q 311 839 273 839 q 486 787 429 839 q 523 645 543 735 q 423 503 503 554 q 220 453 343 453 q 118 460 168 453 q 15 483 67 467 l 42 605 l 94 605 q 108 523 84 550 q 191 496 132 496 q 293 533 254 496 q 349 645 332 570 q 343 756 365 719 q 261 794 322 794 q 201 781 231 794 q 145 745 172 769 l 103 745 l 164 1031 l 558 1031 "},"ჶ":{"x_min":43,"x_max":1250,"ha":1306,"o":"m 994 389 q 1018 492 1011 449 q 1026 563 1026 534 q 1018 611 1026 594 q 998 638 1011 628 q 968 649 986 647 q 930 652 950 652 q 889 649 910 652 q 848 634 868 646 q 811 599 828 622 q 781 533 794 575 l 699 239 q 693 201 693 217 q 703 162 693 178 q 728 137 712 147 q 765 124 744 128 q 806 121 785 121 q 856 131 832 121 q 902 170 880 141 q 947 251 925 199 q 994 389 969 304 m 339 0 q 217 12 271 0 q 123 51 162 24 q 64 123 85 79 q 43 232 43 168 q 67 385 43 297 q 143 564 96 490 q 250 683 190 637 q 378 750 309 729 q 522 772 448 772 q 581 762 545 772 q 655 737 618 753 q 696 840 674 799 q 748 907 717 881 q 821 947 778 933 q 929 971 865 961 l 934 917 q 903 899 916 909 q 881 877 890 889 q 866 851 872 864 q 855 821 860 837 l 833 742 q 910 764 870 757 q 989 772 950 772 q 1096 759 1048 772 q 1178 718 1144 746 q 1231 648 1212 691 q 1250 545 1250 605 q 1244 475 1250 512 q 1226 394 1238 438 q 1148 207 1193 282 q 1046 85 1103 131 q 920 19 989 39 q 772 0 851 0 q 700 4 733 0 q 637 20 666 8 l 611 -70 q 561 -176 594 -131 q 479 -252 529 -222 q 361 -297 429 -282 q 204 -313 293 -313 l 233 -211 l 328 -211 q 347 -207 339 -211 q 365 -192 356 -203 q 381 -161 373 -181 q 399 -109 389 -141 l 581 530 q 587 555 585 544 q 589 577 589 567 q 579 618 589 603 q 553 640 568 633 q 521 649 539 647 q 490 652 504 652 q 440 642 464 652 q 393 603 416 632 q 346 522 369 574 q 299 385 322 469 q 276 290 283 330 q 270 219 270 249 q 277 167 270 187 q 299 136 284 147 q 333 120 313 124 q 377 116 353 116 l 339 0 "},"á":{"x_min":38.0625,"x_max":800.9375,"ha":900,"o":"m 569 593 q 530 634 569 634 q 350 525 439 634 q 276 308 309 475 q 269 134 252 182 q 351 86 287 86 q 454 142 415 86 q 518 324 494 198 l 569 593 m 800 698 l 682 83 l 772 83 l 756 0 l 455 0 l 472 91 q 265 -20 398 -20 q 76 66 134 -20 q 48 303 18 152 q 207 585 77 454 q 567 740 361 740 q 800 698 771 740 m 600 1111 l 789 1111 l 486 856 l 375 856 l 600 1111 "},"⠂":{"x_min":203,"x_max":474,"ha":1084,"o":"m 242 491 q 203 587 203 531 q 243 683 203 643 q 338 723 283 723 q 433 683 393 723 q 474 587 474 643 q 434 491 474 531 q 338 452 394 452 q 242 491 282 452 "},"⇥":{"x_min":79.140625,"x_max":1084,"ha":1163,"o":"m 79 523 l 774 523 l 686 731 l 722 731 l 932 523 l 935 523 l 935 715 l 1084 715 l 1084 182 l 935 182 l 935 374 l 932 374 l 722 165 l 686 165 l 774 374 l 79 374 l 79 523 "},"K":{"x_min":-32.546875,"x_max":1253.25,"ha":1207,"o":"m -32 0 l -16 82 l 112 82 l 278 931 l 148 931 l 164 1013 l 684 1013 l 669 931 l 539 931 l 467 561 l 968 931 l 859 931 l 875 1013 l 1253 1013 l 1237 931 l 1102 931 l 678 618 l 1068 82 l 1167 82 l 1152 0 l 809 0 l 453 491 l 373 82 l 503 82 l 488 0 l -32 0 "},"Y":{"x_min":70.53125,"x_max":1102.703125,"ha":991,"o":"m 140 0 l 155 82 l 292 82 l 358 419 l 156 931 l 70 931 l 86 1013 l 571 1013 l 556 931 l 443 931 l 596 544 l 897 931 l 796 931 l 812 1013 l 1102 1013 l 1087 931 l 1000 931 l 627 454 l 554 82 l 691 82 l 675 0 l 140 0 "},"E":{"x_min":-32.546875,"x_max":1074.21875,"ha":1059,"o":"m -32 0 l -16 82 l 112 82 l 278 931 l 148 931 l 164 1013 l 1074 1013 l 1028 774 l 934 774 l 962 920 l 536 920 l 473 595 l 738 595 l 763 723 l 856 723 l 788 374 l 695 374 l 720 503 l 455 503 l 376 92 l 815 92 l 842 238 l 935 238 l 889 0 l -32 0 "},"Ƥ":{"x_min":-132.25,"x_max":1057.484375,"ha":1044,"o":"m 293 1013 l 740 1013 q 993 932 909 1013 q 1051 717 1077 852 q 909 500 1024 581 q 625 419 793 419 l 439 419 l 373 82 l 537 82 l 521 0 l -32 0 l -16 82 l 112 82 l 278 931 q 86 870 145 931 q 2 682 27 808 l -132 682 l -84 925 q 147 1001 -19 972 q 293 1013 213 1013 m 455 501 l 531 501 q 683 559 619 501 q 766 716 747 618 q 744 872 785 814 q 615 931 703 931 l 539 931 l 455 501 "},"Ï":{"x_min":-32.546875,"x_max":700.546875,"ha":650,"o":"m -32 0 l -16 82 l 112 82 l 278 931 l 148 931 l 164 1013 l 684 1013 l 669 931 l 539 931 l 373 82 l 503 82 l 488 0 l -32 0 m 211 1134 q 195 1204 187 1163 q 238 1274 203 1244 q 314 1304 273 1304 q 378 1274 354 1304 q 394 1204 402 1244 q 351 1134 385 1163 q 276 1105 317 1105 q 211 1134 236 1105 m 514 1134 q 498 1204 490 1163 q 541 1274 506 1244 q 617 1304 576 1304 q 682 1274 657 1304 q 698 1204 706 1244 q 655 1134 690 1163 q 579 1105 619 1105 q 514 1134 538 1105 "},"ῶ":{"x_min":49.3125,"x_max":1275.859375,"ha":1322,"o":"m 503 823 l 505 833 q 570 984 524 933 q 685 1036 616 1036 q 733 1027 710 1036 q 782 998 755 1018 l 824 966 l 826 964 q 876 945 852 945 q 925 968 904 945 q 954 1034 946 992 l 1029 1034 l 1027 1023 q 962 872 1008 924 q 847 822 916 822 q 799 830 821 822 q 750 859 777 838 l 707 891 l 706 892 q 655 913 680 913 q 606 888 627 913 q 577 823 585 864 l 503 823 m 132 93 q 61 216 94 129 q 59 381 38 275 q 170 588 82 500 q 385 720 257 676 l 472 720 l 466 691 q 390 588 442 674 q 323 391 348 519 q 320 161 293 237 q 404 82 349 82 q 520 262 486 82 l 566 498 l 807 498 l 760 262 q 807 82 726 82 q 921 161 861 82 q 1008 391 978 237 q 1018 588 1033 519 q 981 691 999 674 l 988 721 l 1075 721 q 1239 587 1185 676 q 1268 379 1291 499 q 1203 213 1248 273 q 1083 89 1135 126 q 939 20 1036 57 q 757 -2 881 -2 q 609 96 659 -2 q 421 -2 522 -2 q 248 24 307 -2 q 132 93 166 61 "},"ȴ":{"x_min":115.5,"x_max":712.328125,"ha":796,"o":"m 375 150 q 524 47 418 47 q 631 118 618 47 q 587 203 648 203 q 375 150 413 203 m 371 355 q 361 214 361 292 q 594 265 472 265 q 707 115 736 265 q 451 -28 679 -28 q 249 20 328 -28 q 226 -59 237 -1 l 207 -156 l 115 -156 l 135 -59 q 180 63 150 9 q 167 76 167 76 q 131 355 97 180 l 251 974 l 149 974 l 165 1055 l 508 1055 l 371 355 "},"Ɖ":{"x_min":-23.734375,"x_max":1168.796875,"ha":1214,"o":"m 383 82 l 477 82 q 729 183 636 82 q 864 507 821 284 q 854 829 908 728 q 642 931 801 931 l 548 931 l 479 577 l 704 577 l 686 484 l 461 484 l 383 82 m -23 0 l -8 82 l 122 82 l 200 484 l 55 484 l 73 577 l 218 577 l 287 931 l 157 931 l 172 1013 l 693 1013 q 1084 883 965 1013 q 1154 507 1203 753 q 937 130 1107 261 q 497 0 768 0 l -23 0 "},"⢯":{"x_min":203,"x_max":881,"ha":1084,"o":"m 242 853 q 203 949 203 893 q 243 1045 203 1005 q 338 1085 283 1085 q 433 1045 393 1085 q 474 949 474 1005 q 434 853 474 893 q 338 814 394 814 q 242 853 282 814 m 242 492 q 203 588 203 532 q 243 684 203 644 q 338 724 283 724 q 433 684 393 724 q 474 588 474 644 q 434 492 474 532 q 338 453 394 453 q 242 492 282 453 m 242 129 q 203 225 203 169 q 243 321 203 281 q 338 361 283 361 q 433 321 393 361 q 474 225 474 281 q 434 129 474 169 q 338 90 394 90 q 242 129 282 90 m 649 853 q 610 949 610 893 q 650 1045 610 1005 q 745 1085 690 1085 q 840 1045 800 1085 q 881 949 881 1005 q 841 853 881 893 q 745 814 801 814 q 649 853 689 814 m 649 129 q 610 225 610 169 q 650 321 610 281 q 745 361 690 361 q 840 321 800 361 q 881 225 881 281 q 841 129 881 169 q 745 90 801 90 q 649 129 689 90 m 649 -231 q 610 -135 610 -191 q 650 -39 610 -79 q 745 0 690 0 q 840 -39 800 0 q 881 -135 881 -79 q 841 -231 881 -191 q 745 -271 801 -271 q 649 -231 689 -271 "},"K":{"x_min":-32.546875,"x_max":1253.25,"ha":1207,"o":"m -32 0 l -16 82 l 112 82 l 278 931 l 148 931 l 164 1013 l 684 1013 l 669 931 l 539 931 l 467 561 l 968 931 l 859 931 l 875 1013 l 1253 1013 l 1237 931 l 1102 931 l 678 618 l 1068 82 l 1167 82 l 1152 0 l 809 0 l 453 491 l 373 82 l 503 82 l 488 0 l -32 0 "},"ϋ":{"x_min":101.71875,"x_max":919.8125,"ha":964,"o":"m 422 -1 q 126 236 80 -1 l 204 639 l 101 639 l 118 721 l 460 721 l 365 235 q 438 82 335 82 q 565 161 505 82 q 652 391 622 237 q 662 588 678 521 q 625 691 643 674 l 632 721 l 719 721 q 882 588 829 676 q 912 381 935 500 q 847 215 892 275 q 727 92 779 129 q 583 23 661 47 q 422 -1 505 -1 m 354 995 q 397 1065 362 1036 q 473 1095 432 1095 q 537 1065 514 1095 q 552 995 560 1036 q 509 925 544 955 q 435 896 475 896 q 370 925 394 896 q 354 995 346 955 m 657 995 q 700 1065 665 1036 q 775 1095 735 1095 q 840 1065 816 1095 q 857 995 865 1036 q 813 925 849 955 q 737 896 778 896 q 673 925 697 896 q 657 995 649 955 "},"⥗":{"x_min":79.140625,"x_max":1084,"ha":1163,"o":"m 935 523 l 935 715 l 1084 715 l 1084 182 l 935 182 l 935 374 l 932 374 l 722 165 l 686 165 l 774 374 l 79 374 l 79 523 l 935 523 "},"ἶ":{"x_min":103.078125,"x_max":708.6875,"ha":672,"o":"m 552 22 q 208 30 325 -53 q 126 236 101 107 l 205 639 l 103 639 l 118 721 l 461 721 l 366 234 q 420 82 337 82 q 572 127 503 82 l 552 22 m 182 1190 l 184 1200 q 249 1350 203 1299 q 364 1402 295 1402 q 412 1394 389 1402 q 461 1364 434 1385 l 503 1333 l 505 1331 q 556 1312 531 1312 q 604 1335 583 1312 q 634 1401 625 1359 l 708 1401 l 706 1390 q 641 1239 687 1291 q 526 1189 595 1189 q 478 1197 501 1189 q 429 1226 456 1205 l 386 1257 l 385 1258 q 335 1279 359 1279 q 286 1255 307 1279 q 257 1190 265 1231 l 182 1190 m 351 973 q 285 993 308 967 q 269 1063 261 1021 q 312 1133 276 1100 q 388 1163 344 1163 q 460 1124 434 1163 q 474 1042 482 1080 q 440 954 463 981 q 320 828 403 909 l 259 860 q 351 973 308 892 "},"ⅰ":{"x_min":47.375,"x_max":467,"ha":527,"o":"m 204 924 q 260 1017 215 979 q 360 1055 305 1055 q 444 1017 414 1055 q 467 951 467 989 q 464 924 467 939 q 409 833 454 871 q 310 796 363 796 q 225 833 255 796 q 202 898 202 861 q 204 924 202 911 m 302 82 l 406 82 l 390 0 l 47 0 l 171 639 l 69 639 l 84 721 l 427 721 l 302 82 "},"b":{"x_min":34.421875,"x_max":896,"ha":971,"o":"m 223 974 l 120 974 l 136 1055 l 479 1055 l 396 629 q 494 713 437 685 q 627 741 551 741 q 849 639 781 741 q 896 470 896 571 q 884 360 896 419 q 741 81 849 183 q 479 -20 633 -20 q 357 7 403 -20 q 292 91 311 35 l 274 0 l 34 0 l 223 974 m 337 324 q 324 209 324 257 q 334 142 324 168 q 427 86 355 86 q 542 145 501 86 q 615 360 584 205 q 634 516 634 457 q 626 575 634 552 q 534 635 608 635 q 418 578 462 635 q 351 396 375 522 l 337 324 "},"⢨":{"x_min":610,"x_max":881,"ha":1084,"o":"m 649 853 q 610 949 610 893 q 650 1045 610 1005 q 745 1085 690 1085 q 840 1045 800 1085 q 881 949 881 1005 q 841 853 881 893 q 745 814 801 814 q 649 853 689 814 m 649 129 q 610 225 610 169 q 650 321 610 281 q 745 361 690 361 q 840 321 800 361 q 881 225 881 281 q 841 129 881 169 q 745 90 801 90 q 649 129 689 90 m 649 -231 q 610 -135 610 -191 q 650 -39 610 -79 q 745 0 690 0 q 840 -39 800 0 q 881 -135 881 -79 q 841 -231 881 -191 q 745 -271 801 -271 q 649 -231 689 -271 "},"≕":{"x_min":147,"x_max":1355,"ha":1502,"o":"m 1134 499 q 1097 590 1097 537 q 1134 681 1097 643 q 1225 719 1172 719 q 1317 681 1279 719 q 1355 590 1355 643 q 1317 499 1355 537 q 1225 462 1279 462 q 1134 499 1172 462 m 1134 190 q 1097 281 1097 228 q 1134 372 1097 334 q 1225 410 1172 410 q 1317 372 1279 410 q 1355 281 1355 334 q 1317 190 1355 228 q 1225 153 1279 153 q 1134 190 1172 153 m 147 358 l 1016 358 l 1016 204 l 147 204 l 147 358 m 147 666 l 1016 666 l 1016 512 l 147 512 l 147 666 "},"ﬂ":{"x_min":-82.0625,"x_max":1000.296875,"ha":1010,"o":"m 197 639 l 90 639 l 105 721 l 212 721 l 223 772 q 363 985 250 916 q 683 1055 476 1055 l 1000 1055 l 811 82 l 914 82 l 898 0 l 555 0 l 745 979 l 685 979 q 537 931 590 979 q 464 779 484 884 l 453 721 l 617 721 l 601 639 l 437 639 l 309 -19 q 197 -202 281 -161 q -82 -264 66 -264 q -66 -188 -74 -226 q 19 -148 -12 -188 q 68 -22 51 -109 l 197 639 "},"𝑼":{"x_min":131.5625,"x_max":1281.0625,"ha":1211,"o":"m 260 930 l 131 930 l 147 1012 l 668 1012 l 652 930 l 522 930 l 424 423 q 432 158 387 234 q 619 83 476 83 q 832 159 759 83 q 942 423 906 235 l 1040 930 l 912 930 l 928 1012 l 1281 1012 l 1264 930 l 1135 930 l 1034 409 q 869 78 989 177 q 513 -20 750 -20 q 196 79 278 -20 q 160 410 114 179 l 260 930 "},"𝑮":{"x_min":44.84375,"x_max":1126.3125,"ha":1186,"o":"m 990 694 q 929 888 990 828 q 739 949 869 949 q 487 842 581 949 q 348 505 393 735 q 353 169 304 277 q 552 62 403 62 q 660 74 609 62 q 757 113 711 87 l 810 392 l 688 392 l 705 473 l 1070 473 l 994 84 q 751 5 869 31 q 513 -20 632 -20 q 132 120 253 -20 q 58 505 10 260 q 281 890 105 750 q 718 1031 458 1031 q 927 1009 827 1031 q 1126 943 1028 987 l 1078 694 l 990 694 "},"ɢ":{"x_min":77.390625,"x_max":826.359375,"ha":870,"o":"m 707 488 q 650 623 707 566 q 557 665 610 665 q 414 590 479 665 q 317 357 348 516 q 320 125 286 199 q 428 51 355 51 q 506 78 462 51 l 546 279 l 447 279 l 459 336 l 787 336 l 735 66 q 566 11 648 29 q 402 -6 484 -6 q 138 91 222 -6 q 86 357 53 188 q 241 624 119 527 q 543 722 363 722 q 688 707 618 722 q 826 660 758 691 l 792 488 l 707 488 "},"Ʈ":{"x_min":92.90625,"x_max":1146.109375,"ha":1034,"o":"m 320 28 l 494 920 l 217 920 l 185 759 l 92 759 l 142 1013 l 1146 1013 l 1096 759 l 1005 759 l 1036 920 l 756 920 l 584 33 q 573 -156 557 -105 q 655 -207 590 -207 q 739 -177 707 -207 q 787 -83 771 -147 l 875 -83 l 845 -242 q 721 -277 781 -265 q 606 -289 662 -289 q 357 -212 425 -289 q 320 28 288 -136 "},"Ὢ":{"x_min":84.765625,"x_max":1716.734375,"ha":1761,"o":"m 1295 125 l 1522 125 l 1538 209 l 1631 209 l 1590 0 l 1093 0 l 1119 131 q 1303 255 1229 152 q 1413 539 1378 358 q 1404 844 1451 739 q 1226 949 1357 949 q 1008 844 1096 949 q 881 538 920 739 q 882 256 847 361 q 1017 131 916 152 l 991 0 l 493 0 l 534 209 l 626 209 l 610 125 l 837 125 q 627 296 689 187 q 594 554 565 405 q 814 899 636 768 q 1243 1031 992 1031 q 1621 899 1494 1031 q 1706 554 1748 768 q 1573 296 1677 405 q 1295 125 1469 187 m 177 973 q 111 993 134 967 q 94 1063 86 1021 q 138 1133 102 1100 q 214 1163 170 1163 q 286 1124 260 1163 q 300 1042 307 1080 q 266 954 288 981 q 145 828 229 909 l 84 860 q 177 973 134 891 m 540 1111 l 665 856 l 554 856 l 351 1111 l 540 1111 "},"↽":{"x_min":47,"x_max":1084,"ha":1163,"o":"m 47 523 l 1084 523 l 1084 374 l 348 374 l 436 165 l 401 165 l 47 516 l 47 523 "},"Ḡ":{"x_min":44.84375,"x_max":1126.3125,"ha":1186,"o":"m 990 694 q 929 888 990 828 q 739 949 869 949 q 487 842 581 949 q 348 505 393 735 q 353 169 304 277 q 552 62 403 62 q 660 74 609 62 q 757 113 711 87 l 810 392 l 688 392 l 705 473 l 1070 473 l 994 84 q 751 5 869 31 q 513 -20 632 -20 q 132 120 253 -20 q 58 505 10 260 q 281 890 105 750 q 718 1031 458 1031 q 927 1009 827 1031 q 1126 943 1028 987 l 1078 694 l 990 694 m 544 1303 l 971 1303 l 947 1175 l 520 1175 l 544 1303 "},"⤕":{"x_min":67.46875,"x_max":1112,"ha":1164,"o":"m 609 715 l 741 715 l 741 523 l 882 523 l 793 731 l 829 731 l 1112 451 l 1112 445 l 829 165 l 793 165 l 882 374 l 741 374 l 741 182 l 609 182 l 609 374 l 554 374 l 554 182 l 422 182 l 422 374 l 375 374 l 163 163 l 67 258 l 256 445 l 256 451 l 67 638 l 163 733 l 375 523 l 422 523 l 422 715 l 554 715 l 554 523 l 609 523 l 609 715 "},"‬":{"x_min":0,"x_max":0,"ha":0},"ȭ":{"x_min":47,"x_max":880,"ha":925,"o":"m 404 56 q 523 121 480 56 q 600 360 566 186 q 623 541 623 474 q 616 599 623 576 q 522 664 598 664 q 401 598 445 664 q 324 360 357 533 q 302 182 302 249 q 309 122 302 145 q 404 56 327 56 m 707 81 q 389 -20 579 -20 q 110 81 198 -20 q 47 267 47 154 q 56 360 47 310 q 218 639 91 539 q 537 740 346 740 q 816 640 728 740 q 880 454 880 567 q 869 360 880 410 q 707 81 835 182 m 302 888 l 304 898 q 369 1048 322 997 q 484 1100 415 1100 q 531 1091 509 1100 q 581 1061 553 1082 l 623 1030 l 624 1028 q 675 1009 650 1009 q 724 1032 703 1009 q 753 1098 745 1056 l 827 1098 l 825 1087 q 760 936 806 988 q 645 886 714 886 q 597 895 620 886 q 548 924 575 903 l 505 955 l 505 956 q 454 977 478 977 q 405 953 426 977 q 376 888 384 929 l 302 888 m 397 1270 l 824 1270 l 799 1142 l 373 1142 l 397 1270 "},"Ŋ":{"x_min":47.546875,"x_max":1192,"ha":1212,"o":"m 546 -117 q 632 -207 546 -207 q 734 -156 698 -207 q 797 33 770 -105 l 912 628 q 933 785 933 732 q 924 863 933 838 q 820 929 903 929 q 652 844 718 929 q 549 570 586 760 l 455 82 l 584 82 l 568 0 l 47 0 l 63 82 l 192 82 l 357 931 l 255 931 l 270 1013 l 635 1013 l 615 907 q 757 1002 682 974 q 941 1031 833 1031 q 1154 935 1094 1031 q 1192 799 1192 875 q 1178 654 1192 723 l 1056 27 q 926 -213 1024 -137 q 647 -289 828 -289 q 426 -242 535 -289 l 457 -83 l 548 -83 q 546 -117 546 -101 "},"Ⅹ":{"x_min":-72.5625,"x_max":1122.375,"ha":1078,"o":"m 448 390 l 177 82 l 302 82 l 286 0 l -72 0 l -56 82 l 67 82 l 409 469 l 183 931 l 90 931 l 105 1013 l 609 1013 l 593 931 l 482 931 l 622 645 l 872 931 l 754 931 l 769 1013 l 1122 1013 l 1106 931 l 981 931 l 660 567 l 898 82 l 994 82 l 978 0 l 473 0 l 488 82 l 601 82 l 448 390 "},"Ẋ":{"x_min":-72.5625,"x_max":1122.375,"ha":1078,"o":"m 580 1134 q 564 1204 556 1163 q 608 1274 573 1244 q 683 1304 642 1304 q 748 1274 724 1304 q 764 1204 772 1244 q 720 1134 756 1163 q 645 1105 686 1105 q 580 1134 604 1105 m 448 390 l 177 82 l 302 82 l 286 0 l -72 0 l -56 82 l 67 82 l 409 469 l 183 931 l 90 931 l 105 1013 l 609 1013 l 593 931 l 482 931 l 622 645 l 872 931 l 754 931 l 769 1013 l 1122 1013 l 1106 931 l 981 931 l 660 567 l 898 82 l 994 82 l 978 0 l 473 0 l 488 82 l 601 82 l 448 390 "},"ď":{"x_min":15,"x_max":1288.25,"ha":971,"o":"m 558 324 l 572 396 q 585 510 585 463 q 574 578 585 552 q 482 635 553 635 q 366 575 408 635 q 294 360 324 516 q 276 206 276 265 q 282 145 276 168 q 375 86 301 86 q 490 142 446 86 q 558 324 534 198 m 940 1055 l 735 0 l 495 0 l 513 91 q 414 7 471 35 q 281 -20 357 -20 q 60 81 128 -20 q 15 250 15 149 q 26 360 15 301 q 168 639 61 538 q 429 741 275 741 q 551 713 505 741 q 617 629 597 685 l 684 974 l 581 974 l 597 1055 l 940 1055 m 1099 1054 l 1288 1054 l 1113 799 l 1002 799 l 1099 1054 "},"Ⴠ":{"x_min":87.296875,"x_max":1504.84375,"ha":1573,"o":"m 1486 637 l 1400 637 l 1308 202 q 1265 106 1295 145 q 1190 44 1234 68 q 1089 9 1146 20 q 969 -1 1033 -1 l 810 -1 q 690 9 743 -1 q 599 41 636 20 q 542 96 562 63 q 522 175 522 129 q 523 198 522 186 q 527 224 524 210 l 712 1093 l 511 1093 l 416 645 l 87 645 l 104 729 l 189 729 l 267 1093 l 182 1093 l 199 1175 l 1056 1175 l 1038 1093 l 954 1093 l 775 248 q 769 208 771 227 q 767 174 767 190 q 785 105 767 129 q 842 81 803 81 l 958 81 q 993 92 975 81 q 1025 124 1010 104 q 1052 171 1040 144 q 1071 229 1064 199 l 1157 637 l 1072 637 l 1091 721 l 1504 721 l 1486 637 "},"⟸":{"x_min":52,"x_max":1912,"ha":1991,"o":"m 332 256 l 370 165 l 334 165 l 52 445 l 52 452 l 334 732 l 370 732 l 332 642 l 1912 642 l 1912 510 l 276 510 l 250 449 l 276 388 l 1912 388 l 1912 256 l 332 256 "},"ṯ":{"x_min":30.875,"x_max":627.3125,"ha":642,"o":"m 171 639 l 67 639 l 83 721 l 187 721 l 230 944 l 470 944 l 427 721 l 627 721 l 611 639 l 411 639 l 325 197 q 314 106 314 136 q 317 79 314 87 q 367 56 328 56 q 437 85 410 56 q 477 176 463 114 l 578 176 q 489 23 551 67 q 297 -20 428 -20 q 105 26 149 -20 q 77 119 77 56 q 85 197 77 152 l 171 639 m 55 -96 l 482 -96 l 457 -224 l 30 -224 l 55 -96 "},"ŧ":{"x_min":9.1875,"x_max":627.3125,"ha":641,"o":"m 171 639 l 67 639 l 83 721 l 187 721 l 230 944 l 470 944 l 427 721 l 627 721 l 611 639 l 411 639 l 375 451 l 499 451 l 474 321 l 349 321 l 325 197 q 314 106 314 136 q 317 79 314 87 q 367 56 328 56 q 437 85 410 56 q 477 176 463 114 l 578 176 q 488 24 551 67 q 297 -20 427 -20 q 105 26 149 -20 q 77 119 77 56 q 85 197 77 152 l 109 321 l 9 321 l 34 451 l 135 451 l 171 639 "},"À":{"x_min":-108.5,"x_max":1011.15625,"ha":1078,"o":"m -108 0 l -92 82 l -10 82 l 552 1012 l 714 1012 l 914 82 l 1011 82 l 995 0 l 521 0 l 537 82 l 636 82 l 593 289 l 212 289 l 87 82 l 208 82 l 192 0 l -108 0 m 261 371 l 575 371 l 495 758 l 261 371 m 644 1288 l 732 1109 l 621 1109 l 455 1288 l 644 1288 "},"Ώ":{"x_min":1.359375,"x_max":1224.375,"ha":1265,"o":"m 284 1111 l 473 1111 l 170 856 l 59 856 l 284 1111 m 803 125 l 1030 125 l 1046 209 l 1139 209 l 1098 0 l 601 0 l 627 131 q 811 255 737 152 q 920 539 885 358 q 912 844 959 739 q 734 949 864 949 q 516 844 604 949 q 389 538 428 739 q 389 256 355 361 q 524 131 424 152 l 499 0 l 1 0 l 42 209 l 134 209 l 118 125 l 345 125 q 134 296 196 187 q 102 554 73 405 q 322 899 144 768 q 750 1031 499 1031 q 1128 899 1001 1031 q 1213 554 1255 768 q 1081 296 1184 405 q 803 125 977 187 "},"̟":{"x_min":-526.9375,"x_max":-160.71875,"ha":0,"o":"m -419 -389 l -526 -389 l -502 -261 l -395 -261 l -374 -153 l -246 -153 l -267 -261 l -160 -261 l -185 -389 l -292 -389 l -313 -496 l -440 -496 l -419 -389 "},"'":{"x_min":132,"x_max":293,"ha":425,"o":"m 293 1012 l 293 636 l 132 636 l 132 1012 l 293 1012 "},"⢟":{"x_min":203,"x_max":881,"ha":1084,"o":"m 242 853 q 203 949 203 893 q 243 1045 203 1005 q 338 1085 283 1085 q 433 1045 393 1085 q 474 949 474 1005 q 434 853 474 893 q 338 814 394 814 q 242 853 282 814 m 242 492 q 203 588 203 532 q 243 684 203 644 q 338 724 283 724 q 433 684 393 724 q 474 588 474 644 q 434 492 474 532 q 338 453 394 453 q 242 492 282 453 m 242 129 q 203 225 203 169 q 243 321 203 281 q 338 361 283 361 q 433 321 393 361 q 474 225 474 281 q 434 129 474 169 q 338 90 394 90 q 242 129 282 90 m 649 853 q 610 949 610 893 q 650 1045 610 1005 q 745 1085 690 1085 q 840 1045 800 1085 q 881 949 881 1005 q 841 853 881 893 q 745 814 801 814 q 649 853 689 814 m 649 492 q 610 588 610 532 q 650 684 610 644 q 745 724 690 724 q 840 684 800 724 q 881 588 881 644 q 841 492 881 532 q 745 453 801 453 q 649 492 689 453 m 649 -231 q 610 -135 610 -191 q 650 -39 610 -79 q 745 0 690 0 q 840 -39 800 0 q 881 -135 881 -79 q 841 -231 881 -191 q 745 -271 801 -271 q 649 -231 689 -271 "},"ჼ":{"x_min":95,"x_max":704.703125,"ha":505,"o":"m 551 683 q 269 474 492 474 q 95 603 95 474 q 98 640 95 621 q 107 683 101 660 l 207 1036 q 242 1105 217 1073 q 304 1158 268 1136 q 386 1193 340 1181 q 486 1205 433 1205 q 511 1202 499 1205 q 535 1194 524 1198 q 556 1187 546 1190 q 571 1184 565 1184 q 612 1195 577 1184 q 704 1225 647 1206 l 680 1144 q 607 1101 641 1116 q 542 1086 572 1086 q 503 1087 519 1086 q 476 1091 487 1089 q 458 1096 465 1094 q 447 1101 452 1099 l 448 1101 q 444 1102 445 1102 q 441 1103 442 1102 q 439 1103 439 1103 q 419 1095 429 1101 q 401 1080 410 1089 q 385 1059 392 1071 q 374 1036 378 1048 l 333 888 q 387 893 360 893 q 521 862 478 893 q 565 766 565 831 q 551 683 565 732 m 383 683 q 393 727 390 708 q 397 763 397 747 q 363 810 397 810 q 276 683 311 810 q 262 603 262 632 q 293 559 262 559 q 327 568 313 559 q 351 594 341 577 q 368 634 361 611 q 383 683 376 656 "},"Ⴃ":{"x_min":28,"x_max":1214.328125,"ha":1227,"o":"m 868 462 q 878 525 875 495 q 882 584 882 556 q 871 671 882 632 q 837 739 861 711 q 779 784 814 768 q 692 800 743 800 l 619 800 q 506 776 559 800 q 409 708 452 752 q 334 603 366 665 q 286 468 302 542 l 275 417 q 263 345 267 379 q 259 280 259 311 q 308 130 259 180 q 467 80 358 80 l 539 80 q 657 106 605 80 q 748 177 709 132 q 815 284 788 223 q 858 417 843 346 l 868 462 m 1094 417 q 1024 242 1073 320 q 905 110 974 165 q 753 27 836 56 q 584 -1 670 -1 l 372 -1 q 233 21 296 -1 q 124 84 169 43 q 53 184 78 125 q 28 318 28 243 q 31 367 28 343 q 39 417 34 392 l 56 497 q 93 592 66 547 q 158 675 120 636 q 243 746 196 714 q 341 802 290 778 q 445 844 392 827 q 546 870 498 861 l 594 1092 l 418 1092 l 403 1020 l 284 901 l 142 901 l 159 981 l 211 981 l 252 1176 l 1201 1176 l 1160 982 l 1214 982 l 1197 901 l 1075 901 l 983 1020 l 999 1092 l 828 1092 l 781 869 q 862 854 821 869 q 941 816 903 840 q 1010 762 978 793 q 1065 695 1042 731 q 1102 620 1088 659 q 1116 540 1116 580 q 1111 497 1116 518 l 1094 417 "},"▩":{"x_min":126,"x_max":1186,"ha":1312,"o":"m 203 729 l 236 695 l 321 780 l 285 815 l 203 815 l 203 729 m 203 448 l 236 414 l 322 500 l 236 585 l 203 552 l 203 448 m 430 780 l 515 694 l 601 780 l 565 815 l 466 815 l 430 780 m 291 640 l 376 555 l 460 639 l 375 725 l 291 640 m 203 168 l 236 135 l 322 220 l 236 305 l 203 272 l 203 168 m 710 780 l 796 694 l 881 780 l 845 815 l 746 815 l 710 780 m 570 639 l 656 554 l 741 639 l 656 725 l 570 639 m 431 500 l 516 414 l 601 499 l 515 584 l 431 500 m 291 360 l 376 275 l 462 360 l 376 446 l 291 360 m 990 780 l 1075 695 l 1109 729 l 1109 815 l 1026 815 l 990 780 m 851 639 l 935 555 l 1020 640 l 936 725 l 851 639 m 710 499 l 794 414 l 880 500 l 796 584 l 710 499 m 571 360 l 656 276 l 740 360 l 656 444 l 571 360 m 431 220 l 515 136 l 601 221 l 517 305 l 431 220 m 291 80 l 376 -3 l 460 81 l 376 165 l 291 80 m 203 -94 l 285 -94 l 321 -58 l 236 25 l 203 -7 l 203 -94 m 990 500 l 1075 414 l 1109 448 l 1109 552 l 1075 585 l 990 500 m 849 360 l 935 275 l 1020 360 l 935 446 l 849 360 m 710 221 l 796 136 l 880 220 l 794 305 l 710 221 m 570 81 l 656 -4 l 741 81 l 656 166 l 570 81 m 430 -58 l 466 -94 l 566 -94 l 601 -58 l 515 26 l 430 -58 m 990 220 l 1075 135 l 1109 168 l 1109 272 l 1075 305 l 990 220 m 850 81 l 935 -3 l 1020 80 l 935 165 l 850 81 m 710 -58 l 745 -94 l 845 -94 l 881 -58 l 796 26 l 710 -58 m 990 -58 l 1026 -94 l 1109 -94 l 1109 -7 l 1075 25 l 990 -58 m 126 -171 l 126 892 l 1186 892 l 1186 -171 l 126 -171 "},"Ɠ":{"x_min":31.90625,"x_max":1404.25,"ha":1186,"o":"m 993 973 q 1090 1120 1030 1078 q 1226 1167 1157 1167 q 1312 1160 1267 1167 q 1404 1140 1356 1153 l 1374 988 l 1297 988 q 1291 1066 1307 1042 q 1231 1090 1276 1090 q 1156 1058 1181 1090 q 1113 943 1130 1026 l 1065 694 l 977 694 q 916 888 977 828 q 726 949 856 949 q 474 842 568 949 q 335 505 380 735 q 340 169 291 277 q 539 62 390 62 q 648 74 596 62 q 744 113 699 87 l 798 392 l 676 392 l 692 473 l 1057 473 l 981 84 q 738 5 857 31 q 501 -20 620 -20 q 119 120 241 -20 q 45 505 -2 260 q 269 890 93 750 q 705 1031 445 1031 q 915 1009 865 1031 l 993 973 "},"Ć":{"x_min":45.390625,"x_max":1091.96875,"ha":1105,"o":"m 992 289 q 803 56 922 132 q 510 -20 685 -20 q 132 121 253 -20 q 58 505 11 262 q 281 889 105 748 q 714 1031 458 1031 q 898 1009 805 1031 q 1091 943 991 987 l 1043 694 l 957 694 q 899 885 957 822 q 726 949 841 949 q 485 840 578 949 q 348 505 392 731 q 355 170 304 279 q 555 62 406 62 q 731 118 656 62 q 858 289 806 174 l 992 289 m 775 1288 l 965 1288 l 728 1109 l 617 1109 l 775 1288 "},"𝜞":{"x_min":-32.546875,"x_max":1066.765625,"ha":986,"o":"m -32 0 l -16 82 l 112 82 l 278 931 l 148 931 l 164 1013 l 1066 1013 l 1020 774 l 927 774 l 955 920 l 537 920 l 375 82 l 534 82 l 518 0 l -32 0 "},"ẓ":{"x_min":-20.34375,"x_max":812.453125,"ha":789,"o":"m 796 640 l 322 132 q 364 113 344 124 q 503 67 450 67 q 707 165 585 67 l 686 58 q 457 -54 566 -54 q 314 -9 401 -54 q 179 40 217 40 q 102 24 141 40 q 46 0 63 8 l -20 0 l -4 82 l 468 589 q 427 608 446 597 q 288 655 341 655 q 84 556 206 655 l 105 663 q 334 776 225 776 q 477 731 390 776 q 612 682 574 682 q 689 697 650 682 q 745 722 729 713 l 812 722 l 796 640 m 185 -196 q 229 -126 193 -155 q 304 -97 263 -97 q 369 -126 345 -97 q 385 -196 393 -155 q 342 -266 377 -236 q 266 -296 307 -296 q 202 -266 225 -296 q 185 -196 178 -236 "},"ⴇ":{"x_min":61.03125,"x_max":1372.609375,"ha":1334,"o":"m 543 141 q 625 374 585 260 q 708 608 666 488 q 645 598 676 602 q 583 588 614 593 q 520 578 552 583 q 455 567 488 572 q 373 338 413 450 q 292 108 333 226 l 543 141 m 928 0 l 1142 608 q 1078 598 1109 602 q 1016 588 1047 593 q 953 578 985 583 q 887 567 921 572 q 787 283 837 426 q 687 0 737 141 l 494 0 l 518 72 q 455 63 486 67 q 394 55 425 59 q 332 46 364 50 q 267 37 301 42 q 262 18 265 28 q 257 0 259 7 l 61 0 l 277 613 q 235 613 257 613 q 199 613 212 613 l 208 676 l 299 676 q 305 695 301 684 q 311 713 309 705 l 504 713 l 476 632 q 539 642 509 637 l 602 651 q 664 661 632 656 q 730 671 695 665 q 738 692 733 680 q 745 714 742 704 l 939 714 l 911 632 q 976 643 945 638 q 1037 652 1007 648 q 1100 662 1068 657 q 1166 673 1131 667 q 1173 694 1169 682 q 1179 714 1177 706 l 1372 714 l 1158 104 l 1235 104 l 1226 34 l 1135 34 l 1123 0 l 928 0 "},"⢍":{"x_min":203,"x_max":881,"ha":1084,"o":"m 242 853 q 203 949 203 893 q 243 1045 203 1005 q 338 1085 283 1085 q 433 1045 393 1085 q 474 949 474 1005 q 434 853 474 893 q 338 814 394 814 q 242 853 282 814 m 242 129 q 203 225 203 169 q 243 321 203 281 q 338 361 283 361 q 433 321 393 361 q 474 225 474 281 q 434 129 474 169 q 338 90 394 90 q 242 129 282 90 m 649 853 q 610 949 610 893 q 650 1045 610 1005 q 745 1085 690 1085 q 840 1045 800 1085 q 881 949 881 1005 q 841 853 881 893 q 745 814 801 814 q 649 853 689 814 m 649 -231 q 610 -135 610 -191 q 650 -39 610 -79 q 745 0 690 0 q 840 -39 800 0 q 881 -135 881 -79 q 841 -231 881 -191 q 745 -271 801 -271 q 649 -231 689 -271 "},"↫":{"x_min":52,"x_max":1085,"ha":1164,"o":"m 370 731 l 282 523 l 666 523 l 666 583 q 727 731 666 670 q 875 793 788 793 q 1023 731 962 793 q 1085 583 1085 670 q 1023 435 1085 496 q 875 374 962 374 l 815 374 l 815 203 l 666 203 l 666 374 l 282 374 l 370 165 l 334 165 l 52 445 l 52 451 l 334 731 l 370 731 m 815 523 l 875 523 q 918 540 900 523 q 936 583 936 558 q 918 626 936 608 q 875 644 900 644 q 832 626 850 644 q 815 583 815 608 l 815 523 "},"Ͱ":{"x_min":-33.234375,"x_max":1060.65625,"ha":1082,"o":"m 924 497 l 899 368 l 992 368 l 1060 719 l 967 719 l 942 590 l 472 590 l 538 931 l 668 931 l 684 1013 l 163 1013 l 147 931 l 277 931 l 111 82 l -17 82 l -33 0 l 487 0 l 503 82 l 373 82 l 453 497 l 924 497 "},"Ğ":{"x_min":44.84375,"x_max":1126.3125,"ha":1186,"o":"m 990 694 q 929 888 990 828 q 739 949 869 949 q 487 842 581 949 q 348 505 393 735 q 354 169 304 277 q 552 62 403 62 q 660 74 609 62 q 757 113 712 87 l 811 392 l 689 392 l 705 473 l 1070 473 l 994 84 q 751 5 869 31 q 513 -20 632 -20 q 132 120 253 -20 q 58 505 10 260 q 281 890 105 750 q 718 1031 458 1031 q 927 1009 827 1031 q 1126 943 1028 987 l 1078 694 l 990 694 m 523 1288 l 605 1288 q 647 1230 613 1250 q 737 1211 680 1211 q 836 1230 794 1211 q 899 1288 878 1251 l 983 1288 q 880 1153 946 1199 q 717 1109 812 1109 q 571 1153 619 1109 q 523 1288 523 1197 "},"Ї":{"x_min":-32.546875,"x_max":758.1875,"ha":650,"o":"m 269 1134 q 252 1204 244 1163 q 296 1274 261 1244 q 372 1304 331 1304 q 436 1274 412 1304 q 451 1204 459 1244 q 408 1134 443 1163 q 334 1105 375 1105 q 269 1134 293 1105 m 571 1134 q 556 1204 547 1163 q 599 1274 564 1244 q 674 1304 634 1304 q 739 1274 715 1304 q 756 1204 764 1244 q 712 1134 748 1163 q 636 1105 677 1105 q 571 1134 596 1105 m -32 0 l -16 82 l 112 82 l 278 931 l 148 931 l 164 1013 l 684 1013 l 669 931 l 539 931 l 373 82 l 503 82 l 488 0 l -32 0 "},"Ź":{"x_min":-46.109375,"x_max":1055.90625,"ha":1014,"o":"m 774 1288 l 963 1288 l 727 1110 l 615 1110 l 774 1288 m -46 0 l -27 95 l 736 920 l 251 920 l 222 768 l 129 768 l 177 1013 l 1055 1013 l 1037 917 l 280 93 l 791 93 l 818 234 l 911 234 l 866 0 l -46 0 "},"Ꙑ":{"x_min":57.734375,"x_max":1885.8125,"ha":1851,"o":"m 555 82 l 636 82 q 838 133 765 82 q 931 293 910 185 q 938 350 938 323 q 719 509 938 509 l 638 509 l 555 82 m 57 760 l 106 1013 l 866 1013 l 850 931 l 720 931 l 654 590 l 810 590 q 1228 356 1228 590 q 1221 295 1228 327 q 1064 71 1192 143 q 695 0 936 0 l 149 0 l 164 82 l 294 82 l 457 920 l 181 920 l 150 760 l 57 760 m 1168 0 l 1183 82 l 1313 82 l 1478 931 l 1349 931 l 1364 1013 l 1885 1013 l 1870 931 l 1740 931 l 1574 82 l 1704 82 l 1689 0 l 1168 0 "},"ʻ":{"x_min":56.96875,"x_max":423.859375,"ha":484,"o":"m 423 939 q 307 829 349 893 q 246 671 265 765 l 239 634 l 56 634 q 165 870 89 774 q 370 1031 240 966 l 423 939 "},"Ṁ":{"x_min":-39.328125,"x_max":1571.3125,"ha":1537,"o":"m 776 1131 q 760 1201 752 1160 q 804 1271 769 1241 q 879 1301 838 1301 q 944 1271 920 1301 q 960 1201 968 1241 q 916 1131 952 1160 q 841 1102 882 1102 q 776 1131 800 1102 m -39 0 l -23 82 l 105 82 l 270 931 l 141 931 l 157 1013 l 575 1013 l 737 363 l 1154 1013 l 1571 1013 l 1555 931 l 1426 931 l 1260 82 l 1390 82 l 1374 0 l 853 0 l 869 82 l 998 82 l 1148 855 l 697 148 l 525 148 l 350 855 l 200 82 l 328 82 l 313 0 l -39 0 "},"ɔ":{"x_min":17.765625,"x_max":793.640625,"ha":846,"o":"m 83 496 q 224 679 133 619 q 453 740 316 740 q 732 640 645 740 q 783 359 818 541 q 624 80 748 180 q 314 -20 500 -20 q 165 -5 239 -20 q 17 36 91 8 l 57 237 l 129 237 q 162 101 129 145 q 271 56 195 56 q 427 124 371 56 q 515 359 483 192 q 519 593 547 523 q 398 664 491 664 q 273 620 325 664 q 196 496 221 577 l 83 496 "},"ᵎ":{"x_min":75,"x_max":339.65625,"ha":417,"o":"m 240 353 q 205 302 233 323 q 142 282 176 282 q 89 302 108 282 q 75 338 75 317 q 77 353 75 345 q 111 403 83 382 q 173 424 140 424 q 227 403 208 424 q 242 367 242 388 q 240 353 242 361 m 178 817 l 113 817 l 123 862 l 339 862 l 261 511 l 326 511 l 315 466 l 100 466 l 178 817 "},"Ⴋ":{"x_min":15,"x_max":1286.75,"ha":1473,"o":"m 486 648 q 417 641 445 648 q 372 619 390 634 q 344 578 355 603 q 325 516 333 553 l 256 191 q 252 155 252 173 q 268 102 252 123 q 321 81 284 81 l 402 81 q 483 110 451 81 q 526 191 515 140 l 622 648 l 486 648 m 1038 484 q 1049 566 1049 531 q 1033 626 1049 604 q 980 648 1017 648 l 868 648 l 779 241 q 741 129 766 175 q 678 54 716 83 q 585 12 639 25 q 460 -1 531 -1 l 281 -1 q 83 45 152 -1 q 15 188 15 91 q 17 215 15 202 q 22 241 19 228 l 73 482 q 209 672 100 607 q 506 738 317 738 l 642 738 l 674 887 l 492 887 q 432 894 460 887 q 385 913 405 900 q 354 944 365 925 q 343 985 343 962 q 345 1007 343 998 l 364 1092 l 282 1092 l 300 1176 l 710 1176 l 692 1092 l 607 1092 l 596 1039 q 595 1032 595 1035 q 595 1025 595 1028 q 598 1006 595 1016 q 609 988 601 996 q 631 974 617 979 q 666 969 645 969 l 1019 969 l 1002 888 l 917 888 l 887 738 l 1104 738 q 1239 702 1196 738 q 1282 592 1282 667 q 1278 548 1282 571 q 1270 499 1275 525 l 1199 167 l 1286 167 l 1268 82 l 953 82 l 1038 484 "},"ʚ":{"x_min":18.3125,"x_max":942.765625,"ha":1000,"o":"m 396 48 q 459 55 434 48 q 533 86 504 69 q 733 356 699 185 q 638 626 769 543 q 576 657 600 651 q 518 670 528 670 q 398 634 444 670 q 340 535 352 599 q 369 441 330 483 q 503 398 409 398 l 528 398 l 513 317 l 487 317 q 337 274 391 317 q 271 181 281 231 q 290 81 259 116 q 396 48 322 48 m 512 741 q 642 728 587 741 q 751 690 709 713 q 936 358 977 567 q 622 26 892 130 q 498 -11 539 -5 q 385 -24 399 -24 q 89 28 177 -24 q 21 175 2 80 q 113 293 35 245 q 318 358 191 341 q 138 423 198 374 q 92 540 78 471 q 218 688 111 636 q 512 741 325 741 "},"↶":{"x_min":106,"x_max":1038,"ha":1164,"o":"m 889 395 q 856 518 889 461 q 766 608 823 575 q 642 641 709 641 q 518 608 575 641 q 428 518 461 575 q 399 438 406 480 l 537 514 l 537 479 l 324 196 l 318 196 l 106 479 l 106 514 l 248 434 q 299 592 257 519 q 443 737 352 684 q 642 790 535 790 q 840 737 749 790 q 985 593 932 684 q 1038 395 1038 502 l 889 395 "},"ῖ":{"x_min":103.078125,"x_max":633.40625,"ha":672,"o":"m 552 22 q 208 30 325 -53 q 126 236 101 107 l 205 639 l 103 639 l 118 721 l 461 721 l 366 234 q 420 82 337 82 q 572 127 503 82 l 552 22 m 107 888 l 109 898 q 174 1048 128 997 q 289 1100 220 1100 q 337 1092 314 1100 q 386 1062 359 1083 l 428 1031 l 429 1029 q 480 1010 456 1010 q 529 1033 508 1010 q 558 1099 550 1057 l 633 1099 l 631 1088 q 566 937 612 989 q 450 887 520 887 q 403 895 425 887 q 354 924 381 903 l 311 955 l 310 956 q 259 977 284 977 q 210 953 231 977 q 181 888 189 929 l 107 888 "},".":{"x_min":110.03125,"x_max":373.5,"ha":484,"o":"m 112 109 q 168 200 122 162 q 266 238 213 238 q 350 200 320 238 q 370 109 381 162 q 315 17 360 55 q 216 -20 269 -20 q 132 17 163 -20 q 112 109 102 55 "},"ǀ":{"x_min":33.234375,"x_max":376.390625,"ha":410,"o":"m 376 1013 l 179 0 l 33 0 l 230 1013 l 376 1013 "},"ꙇ":{"x_min":104.4375,"x_max":459.796875,"ha":528,"o":"m 124 228 l 204 639 l 104 639 l 120 721 l 459 721 l 366 237 q 369 108 348 149 q 453 67 391 67 l 440 0 l 322 0 q 151 32 195 0 q 124 228 94 75 "},"𝒔":{"x_min":-1.09375,"x_max":752.875,"ha":781,"o":"m 37 222 l 114 222 q 114 202 114 211 q 153 96 114 135 q 274 56 193 56 q 451 154 432 56 q 454 186 454 167 q 436 225 454 205 q 351 263 419 245 l 257 288 q 117 360 151 316 q 83 458 83 404 q 87 508 83 481 q 203 683 110 625 q 443 740 295 740 q 752 697 591 740 l 716 515 l 639 515 q 642 539 642 527 q 489 664 642 664 q 318 572 335 664 q 316 545 316 561 q 399 479 316 501 l 492 453 q 664 372 627 418 q 702 269 702 327 q 696 218 702 245 q 574 37 672 95 q 292 -20 476 -20 q -1 20 158 -20 l 37 222 "},"ʂ":{"x_min":1.796875,"x_max":781.546875,"ha":782,"o":"m 27 20 l 60 192 l 66 222 l 140 222 q 182 99 140 141 q 310 57 224 57 q 427 82 383 57 q 480 155 470 107 q 468 222 488 198 q 380 263 448 245 l 286 288 q 140 368 179 317 q 116 508 99 420 q 232 682 140 625 q 494 740 324 740 q 627 729 557 740 q 781 696 698 718 l 746 515 l 669 515 q 638 626 677 588 q 512 663 599 663 q 397 639 439 663 q 346 571 354 616 q 357 514 339 535 q 428 479 373 493 l 521 453 q 700 365 656 418 q 725 218 744 312 q 603 38 702 96 q 321 -19 504 -19 q 260 -19 291 -19 l 247 -85 q 244 -200 230 -168 q 307 -232 258 -232 q 376 -208 352 -232 q 413 -130 401 -184 l 489 -130 l 460 -282 q 361 -302 408 -295 q 272 -309 313 -309 q 52 -252 120 -309 q 7 -85 -14 -195 l 27 20 "},"ԝ":{"x_min":42.046875,"x_max":1235.625,"ha":1189,"o":"m 893 203 q 994 326 899 208 q 1129 638 1091 450 l 1034 638 l 1051 721 l 1235 721 q 1112 328 1196 461 q 851 0 980 122 l 685 0 l 620 451 l 379 0 l 214 0 l 120 639 l 42 639 l 57 721 l 353 721 l 422 248 l 675 721 l 818 721 l 893 203 "},"⠘":{"x_min":610,"x_max":881,"ha":1084,"o":"m 649 852 q 610 948 610 892 q 650 1044 610 1004 q 745 1084 690 1084 q 840 1044 800 1084 q 881 948 881 1004 q 841 852 881 892 q 745 813 801 813 q 649 852 689 813 m 649 491 q 610 587 610 531 q 650 683 610 643 q 745 723 690 723 q 840 683 800 723 q 881 587 881 643 q 841 491 881 531 q 745 452 801 452 q 649 491 689 452 "},"à":{"x_min":38.0625,"x_max":800.9375,"ha":900,"o":"m 569 593 q 530 634 569 634 q 350 525 439 634 q 276 308 309 475 q 269 134 252 182 q 351 86 287 86 q 454 142 415 86 q 518 324 494 198 l 569 593 m 800 698 l 682 83 l 772 83 l 756 0 l 455 0 l 472 91 q 265 -20 398 -20 q 76 66 134 -20 q 48 303 18 152 q 207 585 77 454 q 567 740 361 740 q 800 698 771 740 m 427 1110 l 552 856 l 440 856 l 238 1110 l 427 1110 "},"₀":{"x_min":21.46875,"x_max":573.28125,"ha":608,"o":"m 181 72 q 242 32 191 32 q 322 72 294 32 q 387 278 350 113 q 413 482 423 441 q 351 524 403 524 q 272 483 300 524 q 207 278 244 442 q 181 72 171 113 m 445 63 q 232 -11 360 -11 q 53 63 104 -11 q 33 277 2 138 q 149 492 64 417 q 362 567 233 567 q 541 492 489 567 q 561 278 592 417 q 445 63 530 138 "},"⡂":{"x_min":203,"x_max":474,"ha":1084,"o":"m 242 492 q 203 588 203 532 q 243 684 203 644 q 338 724 283 724 q 433 684 393 724 q 474 588 474 644 q 434 492 474 532 q 338 453 394 453 q 242 492 282 453 m 242 -231 q 203 -135 203 -191 q 243 -39 203 -79 q 338 0 283 0 q 433 -39 393 0 q 474 -135 474 -79 q 434 -231 474 -191 q 338 -271 394 -271 q 242 -231 282 -271 "},"₴":{"x_min":4.75,"x_max":1215.28125,"ha":1217,"o":"m 1000 567 q 959 520 985 543 q 863 460 921 486 l 1178 460 l 1162 378 l 571 378 q 404 314 449 349 q 349 219 360 280 q 380 102 333 142 q 533 62 427 62 q 747 118 662 62 q 872 289 831 174 l 958 289 l 912 48 q 703 -3 804 13 q 503 -20 602 -20 q 208 59 298 -20 q 147 293 118 139 q 171 378 156 339 l 4 378 l 20 460 l 216 460 q 250 498 243 491 q 355 567 293 538 l 41 567 l 57 649 l 652 649 q 821 712 782 682 q 876 809 863 746 q 845 914 889 880 q 700 949 800 949 q 501 900 577 949 q 385 747 425 851 l 299 747 l 343 971 q 550 1016 451 1001 q 738 1031 649 1031 q 1002 946 917 1031 q 1057 712 1086 863 q 1040 649 1050 678 l 1215 649 l 1199 567 l 1000 567 "},"̛":{"x_min":-174.671875,"x_max":120,"ha":0,"o":"m -174 554 l -158 639 q -98 592 -120 605 q -55 580 -75 580 q -9 599 -28 580 q 16 653 9 618 q 22 707 22 680 q 16 761 22 735 l 120 761 q 120 691 120 724 q 111 630 120 658 q 57 510 96 552 q -38 469 18 469 q -107 489 -74 469 q -174 554 -140 510 "},"Ṕ":{"x_min":-32.546875,"x_max":1057.484375,"ha":1044,"o":"m -32 0 l -16 82 l 112 82 l 278 931 l 148 931 l 164 1013 l 740 1013 q 993 932 909 1013 q 1051 717 1077 852 q 909 500 1024 581 q 625 419 793 419 l 439 419 l 373 82 l 537 82 l 521 0 l -32 0 m 455 501 l 531 501 q 683 559 619 501 q 766 717 747 618 q 744 872 785 814 q 615 931 703 931 l 539 931 l 455 501 m 726 1287 l 915 1287 l 678 1109 l 567 1109 l 726 1287 "},"̳":{"x_min":-694,"x_max":0,"ha":0,"o":"m 0 -199 l 0 -328 l -694 -328 l -694 -199 l 0 -199 m 0 -13 l 0 -142 l -694 -142 l -694 -13 l 0 -13 "},"ꜞ":{"x_min":55.53125,"x_max":316.515625,"ha":384,"o":"m 315 957 q 281 907 309 928 q 219 886 253 886 q 166 907 185 886 q 153 957 147 928 q 186 1008 158 987 q 248 1030 214 1030 q 301 1008 281 1030 q 315 957 320 987 m 221 453 l 55 453 l 168 773 l 182 845 l 241 845 l 221 773 l 221 453 "},"⡫":{"x_min":203,"x_max":881,"ha":1084,"o":"m 242 853 q 203 949 203 893 q 243 1045 203 1005 q 338 1085 283 1085 q 433 1045 393 1085 q 474 949 474 1005 q 434 853 474 893 q 338 814 394 814 q 242 853 282 814 m 242 492 q 203 588 203 532 q 243 684 203 644 q 338 724 283 724 q 433 684 393 724 q 474 588 474 644 q 434 492 474 532 q 338 453 394 453 q 242 492 282 453 m 649 853 q 610 949 610 893 q 650 1045 610 1005 q 745 1085 690 1085 q 840 1045 800 1085 q 881 949 881 1005 q 841 853 881 893 q 745 814 801 814 q 649 853 689 814 m 649 129 q 610 225 610 169 q 650 321 610 281 q 745 361 690 361 q 840 321 800 361 q 881 225 881 281 q 841 129 881 169 q 745 90 801 90 q 649 129 689 90 m 242 -231 q 203 -135 203 -191 q 243 -39 203 -79 q 338 0 283 0 q 433 -39 393 0 q 474 -135 474 -79 q 434 -231 474 -191 q 338 -271 394 -271 q 242 -231 282 -271 "},"e":{"x_min":46,"x_max":824,"ha":884,"o":"m 583 564 q 499 664 583 664 q 396 603 434 664 q 324 352 358 542 q 339 352 324 352 q 578 516 546 352 q 583 564 583 542 m 308 281 q 304 206 304 256 q 443 56 304 56 q 577 98 521 56 q 662 218 633 139 l 775 218 q 624 37 722 95 q 370 -20 526 -20 q 102 78 183 -20 q 46 256 46 147 q 56 358 46 303 q 213 640 91 539 q 514 740 335 740 q 734 690 644 740 q 824 548 824 639 q 819 510 824 529 q 308 281 777 281 "},"⊏":{"x_min":147,"x_max":1016.4375,"ha":1164,"o":"m 1016 1 l 147 1 l 147 871 l 1016 871 l 1016 715 l 303 715 l 303 157 l 1016 157 l 1016 1 "},"Ѓ":{"x_min":-33.234375,"x_max":1038.953125,"ha":959,"o":"m 712 1288 l 901 1288 l 664 1109 l 553 1109 l 712 1288 m -33 0 l -17 82 l 111 82 l 277 931 l 147 931 l 163 1013 l 1038 1013 l 992 774 l 899 774 l 927 920 l 537 920 l 374 82 l 533 82 l 518 0 l -33 0 "},"ò":{"x_min":47,"x_max":880,"ha":925,"o":"m 404 56 q 523 121 480 56 q 600 360 566 186 q 623 541 623 474 q 616 599 623 576 q 522 664 598 664 q 401 598 445 664 q 324 360 357 533 q 302 182 302 249 q 309 122 302 145 q 404 56 327 56 m 707 81 q 389 -20 579 -20 q 110 81 198 -20 q 47 267 47 154 q 56 360 47 310 q 218 639 91 539 q 537 740 346 740 q 816 640 728 740 q 880 454 880 567 q 869 360 880 410 q 707 81 835 182 m 483 1110 l 608 856 l 497 856 l 294 1110 l 483 1110 "},"𝜥":{"x_min":-32.546875,"x_max":1253.25,"ha":1207,"o":"m -32 0 l -16 82 l 112 82 l 278 931 l 148 931 l 164 1013 l 684 1013 l 669 931 l 539 931 l 467 561 l 968 931 l 859 931 l 875 1013 l 1253 1013 l 1237 931 l 1102 931 l 678 618 l 1068 82 l 1167 82 l 1152 0 l 809 0 l 453 491 l 373 82 l 503 82 l 488 0 l -32 0 "},"⥘":{"x_min":298.125,"x_max":848,"ha":1163,"o":"m 656 856 l 656 0 l 507 0 l 507 695 l 298 607 l 298 643 l 507 853 l 507 856 l 315 856 l 315 1005 l 848 1005 l 848 856 l 656 856 "},"ℎ":{"x_min":47.421875,"x_max":891.34375,"ha":1010,"o":"m 47 0 l 236 974 l 129 974 l 145 1055 l 492 1055 l 407 619 q 524 712 463 683 q 670 741 585 741 q 840 668 792 741 q 871 550 871 623 q 861 458 871 508 l 788 82 l 891 82 l 875 0 l 532 0 l 622 465 q 632 545 632 512 q 623 592 632 575 q 549 628 607 628 q 432 574 477 628 q 366 405 388 521 l 287 0 l 47 0 "},"к":{"x_min":78.34375,"x_max":947.078125,"ha":940,"o":"m 100 639 l 115 721 l 458 721 l 399 415 l 484 487 q 654 647 490 493 q 821 740 755 740 q 947 721 869 740 l 919 581 l 833 581 q 763 641 828 641 q 702 602 738 641 q 552 452 667 563 l 476 379 q 717 272 678 348 q 740 125 727 253 q 796 56 747 56 q 869 161 830 56 l 935 144 q 868 10 917 41 q 730 -20 818 -20 q 552 24 634 -20 q 490 220 490 53 q 455 283 490 270 l 396 304 l 372 281 l 318 0 l 78 0 l 202 639 l 100 639 "},"￼":{"x_min":0,"x_max":0,"ha":0},"⠆":{"x_min":203,"x_max":474,"ha":1084,"o":"m 242 491 q 203 587 203 531 q 243 683 203 643 q 338 723 283 723 q 433 683 393 723 q 474 587 474 643 q 434 491 474 531 q 338 452 394 452 q 242 491 282 452 m 242 129 q 203 225 203 169 q 243 321 203 281 q 338 361 283 361 q 433 321 393 361 q 474 225 474 281 q 434 129 474 169 q 338 90 394 90 q 242 129 282 90 "},"⁻":{"x_min":93,"x_max":640,"ha":733,"o":"m 93 746 l 640 746 l 640 660 l 93 660 l 93 746 "},"ṉ":{"x_min":77.421875,"x_max":920.671875,"ha":1010,"o":"m 77 0 l 201 639 l 99 639 l 114 721 l 457 721 l 437 619 q 554 712 493 683 q 700 741 615 741 q 869 668 821 741 q 901 550 901 623 q 890 458 901 508 l 817 82 l 920 82 l 905 0 l 562 0 l 652 465 q 662 545 662 512 q 653 592 662 575 q 579 628 637 628 q 462 574 507 628 q 396 405 418 521 l 317 0 l 77 0 m 206 -96 l 634 -96 l 609 -224 l 182 -224 l 206 -96 "},"ᵒ":{"x_min":52,"x_max":577,"ha":649,"o":"m 217 531 q 276 495 228 495 q 352 530 325 495 q 401 662 380 566 q 415 761 415 725 q 411 793 415 781 q 351 829 400 829 q 275 793 303 829 q 226 662 247 757 q 213 564 213 600 q 217 531 213 543 m 468 508 q 267 453 387 453 q 92 508 147 453 q 52 611 52 548 q 58 662 52 635 q 160 816 79 760 q 361 872 241 872 q 536 816 481 872 q 577 714 577 776 q 570 662 577 690 q 468 508 549 564 "},"ˆ":{"x_min":146.484375,"x_max":657.828125,"ha":694,"o":"m 370 1111 l 534 1111 l 657 856 l 546 856 l 432 1008 l 257 856 l 146 856 l 370 1111 "},"ū":{"x_min":88.328125,"x_max":932.21875,"ha":1010,"o":"m 392 1059 l 819 1059 l 795 931 l 367 931 l 392 1059 m 932 721 l 808 82 l 910 82 l 894 0 l 551 0 l 571 101 q 454 8 515 37 q 308 -20 393 -20 q 139 51 187 -20 q 108 170 108 97 q 118 262 108 212 l 191 639 l 88 639 l 103 721 l 447 721 l 365 299 q 349 169 349 215 q 355 128 349 142 q 429 93 370 93 q 546 146 502 93 q 612 316 590 200 l 691 721 l 932 721 "},"ꙗ":{"x_min":105.84375,"x_max":1329.9375,"ha":1429,"o":"m 1329 699 l 1211 83 l 1301 83 l 1285 0 l 984 0 l 1001 91 q 794 -20 927 -20 q 605 66 663 -20 q 577 303 554 142 q 579 314 577 308 l 407 314 l 346 0 l 105 0 l 229 639 l 127 639 l 143 721 l 486 721 l 423 395 l 604 395 q 736 585 646 494 q 1096 740 890 740 q 1329 699 1300 740 m 1098 593 q 1059 634 1098 634 q 879 525 968 634 q 805 308 838 475 q 798 134 781 182 q 880 86 816 86 q 983 142 944 86 q 1047 324 1023 198 l 1098 593 "},"◸":{"x_min":4,"x_max":1063.671875,"ha":1068,"o":"m 81 21 l 870 815 l 81 815 l 81 21 m 4 -171 l 4 892 l 1063 892 l 4 -171 "},"℧":{"x_min":60.375,"x_max":1283.09375,"ha":1236,"o":"m 480 906 l 254 906 l 238 821 l 145 821 l 185 1031 l 682 1031 l 657 899 q 473 775 547 878 q 364 491 398 672 q 372 186 324 291 q 549 82 419 82 q 768 186 680 82 q 895 492 855 291 q 894 774 929 669 q 760 899 859 878 l 785 1031 l 1283 1031 l 1242 821 l 1150 821 l 1166 906 l 939 906 q 1149 734 1087 843 q 1182 476 1211 625 q 963 131 1140 262 q 534 0 785 0 q 156 131 283 0 q 70 476 29 262 q 203 734 99 625 q 480 906 307 843 "},"Ν":{"x_min":-36.625,"x_max":1312.9375,"ha":1270,"o":"m -36 0 l -21 82 l 108 82 l 273 931 l 144 931 l 160 1013 l 476 1013 l 948 295 l 1072 931 l 943 931 l 958 1013 l 1312 1013 l 1297 931 l 1167 931 l 986 0 l 809 0 l 330 732 l 204 82 l 332 82 l 317 0 l -36 0 "},"⟱":{"x_min":95.390625,"x_max":1069.609375,"ha":1165,"o":"m 1069 290 l 1069 254 l 585 -28 l 578 -28 l 95 254 l 95 290 l 210 262 l 210 1005 l 342 1005 l 342 229 l 414 212 l 414 1005 l 546 1005 l 546 179 l 582 170 l 618 179 l 618 1005 l 750 1005 l 750 212 l 823 229 l 823 1005 l 955 1005 l 955 262 l 1069 290 "},"ȝ":{"x_min":-31.875,"x_max":795.125,"ha":844,"o":"m 423 660 q 284 615 346 660 q 194 480 223 571 l 118 480 l 157 679 q 488 737 329 737 q 727 669 647 737 q 792 524 807 601 q 576 299 765 386 q 704 226 664 289 q 731 99 743 163 q 237 -221 701 -55 q -31 -293 98 -270 l -16 -217 q 205 -141 88 -193 q 464 70 444 -34 q 446 172 476 135 q 366 209 415 209 q 295 200 325 209 l 161 156 l 176 232 l 314 291 q 459 397 394 325 q 525 514 514 455 q 506 621 539 586 q 423 660 472 660 "},"œ":{"x_min":47,"x_max":1368.515625,"ha":1427,"o":"m 852 280 q 848 205 848 255 q 987 56 848 56 q 1122 98 1066 56 q 1207 218 1178 139 l 1319 218 q 1168 37 1267 95 q 911 -20 1070 -20 q 669 54 752 -20 q 375 -20 552 -20 q 110 81 198 -20 q 47 267 47 154 q 56 360 47 310 q 218 639 91 539 q 524 740 346 740 q 791 664 702 740 q 1046 740 904 740 q 1271 693 1189 740 q 1364 504 1387 626 q 852 280 1321 280 m 1123 517 q 1122 606 1133 568 q 1043 664 1107 664 q 942 605 979 664 q 868 348 904 540 q 1123 517 1090 348 m 309 122 q 404 56 327 56 q 523 121 480 56 q 594 330 566 186 q 623 525 623 473 q 616 599 623 576 q 522 664 598 664 q 401 598 445 664 q 330 391 357 533 q 302 197 302 249 q 309 122 302 145 "},"Ὲ":{"x_min":84.765625,"x_max":1403.125,"ha":1388,"o":"m 296 0 l 311 82 l 441 82 l 606 931 l 477 931 l 493 1013 l 1403 1013 l 1357 774 l 1263 774 l 1291 920 l 865 920 l 802 595 l 1067 595 l 1092 723 l 1185 723 l 1117 374 l 1024 374 l 1049 503 l 784 503 l 705 92 l 1144 92 l 1171 238 l 1264 238 l 1218 0 l 296 0 m 273 1111 l 398 856 l 287 856 l 84 1111 l 273 1111 "},"⇦":{"x_min":51.96875,"x_max":1085,"ha":1164,"o":"m 1017 561 l 308 561 l 308 607 l 148 449 l 308 290 l 308 337 l 1017 337 l 1017 561 m 1085 629 l 1085 269 l 376 269 l 376 165 l 334 165 l 51 445 l 51 452 l 334 732 l 376 732 l 376 629 l 1085 629 "},"Ɵ":{"x_min":44.671875,"x_max":1163.8125,"ha":1210,"o":"m 501 -20 q 128 119 246 -20 q 58 505 10 259 q 278 890 105 750 q 706 1031 451 1031 q 1079 891 962 1031 q 1150 505 1197 751 q 929 119 1102 259 q 501 -20 756 -20 m 518 62 q 731 171 647 62 q 849 454 806 267 l 339 454 q 347 172 310 269 q 518 62 389 62 m 360 563 l 870 563 q 861 839 897 744 q 690 949 819 949 q 476 838 561 949 q 360 563 403 743 "},"ᵛ":{"x_min":92.234375,"x_max":596.109375,"ha":682,"o":"m 225 463 l 142 815 l 92 815 l 102 860 l 287 860 l 356 564 l 527 815 l 537 860 l 596 860 l 585 815 l 346 463 l 225 463 "},"ș":{"x_min":-1.09375,"x_max":752.875,"ha":781,"o":"m 203 -272 q 293 -208 261 -243 q 334 -126 325 -172 l 340 -97 l 485 -97 l 484 -99 q 412 -228 470 -175 q 250 -320 355 -282 l 203 -272 m 37 222 l 114 222 q 114 202 114 211 q 153 96 114 135 q 274 56 193 56 q 451 154 432 56 q 454 186 454 167 q 436 225 454 205 q 351 263 419 245 l 257 288 q 117 360 151 316 q 83 458 83 404 q 87 508 83 481 q 203 683 110 625 q 443 740 295 740 q 752 697 591 740 l 716 515 l 639 515 q 642 539 642 527 q 489 664 642 664 q 318 572 335 664 q 316 545 316 561 q 399 479 316 501 l 492 453 q 664 372 627 418 q 702 269 702 327 q 696 218 702 245 q 574 37 672 95 q 292 -20 476 -20 q -1 20 158 -20 l 37 222 "},"𝜡":{"x_min":-46.109375,"x_max":1055.90625,"ha":1014,"o":"m -46 0 l -27 95 l 736 920 l 251 920 l 222 768 l 129 768 l 177 1013 l 1055 1013 l 1037 917 l 280 93 l 791 93 l 818 234 l 911 234 l 866 0 l -46 0 "},"𝑸":{"x_min":69,"x_max":1189,"ha":1210,"o":"m 522 -18 q 151 120 266 -18 q 69 370 69 219 q 82 504 69 432 q 303 890 130 750 q 731 1031 476 1031 q 1104 891 986 1031 q 1189 638 1189 791 q 1174 505 1189 576 q 995 154 1132 289 q 644 -11 857 20 q 721 -66 673 -49 q 925 -106 833 -106 l 1056 -106 l 1023 -273 l 907 -273 q 630 -194 735 -273 q 522 -18 554 -138 m 542 62 q 756 171 672 62 q 884 505 841 280 q 907 705 907 620 q 886 839 907 786 q 714 949 844 949 q 501 838 585 949 q 372 505 416 728 q 351 308 351 392 q 371 171 351 226 q 542 62 413 62 "},"◺":{"x_min":4,"x_max":1063.671875,"ha":1068,"o":"m 81 -94 l 870 -94 l 81 699 l 81 -94 m 4 -171 l 4 892 l 1063 -171 l 4 -171 "},"ἱ":{"x_min":103.078125,"x_max":572.375,"ha":672,"o":"m 552 22 q 208 30 325 -53 q 126 236 101 107 l 205 639 l 103 639 l 118 721 l 461 721 l 366 234 q 420 82 337 82 q 572 127 503 82 l 552 22 m 357 973 q 406 860 368 892 l 332 828 q 261 954 280 909 q 260 1042 248 981 q 307 1124 267 1080 q 394 1163 347 1163 q 458 1133 438 1163 q 474 1063 481 1100 q 431 993 466 1021 q 357 973 398 967 "},"Ѵ":{"x_min":94.078125,"x_max":1352.765625,"ha":1272,"o":"m 94 931 l 109 1013 l 584 1013 l 568 931 l 470 931 l 613 260 l 1010 916 q 1182 1031 1083 1031 q 1352 1005 1263 1031 l 1320 837 l 1243 837 q 1249 890 1249 865 q 1234 935 1249 915 q 1174 955 1219 955 q 1096 901 1129 955 l 551 0 l 390 0 l 189 931 l 94 931 "},"Ȫ":{"x_min":44.671875,"x_max":1163.8125,"ha":1210,"o":"m 644 1523 l 1072 1523 l 1047 1395 l 620 1395 l 644 1523 m 518 62 q 732 171 647 62 q 859 505 816 280 q 861 839 903 730 q 690 949 819 949 q 476 838 561 949 q 348 505 391 728 q 347 172 305 282 q 518 62 389 62 m 501 -20 q 128 119 246 -20 q 58 505 10 259 q 278 890 105 750 q 706 1031 451 1031 q 1079 891 962 1031 q 1150 505 1197 751 q 929 119 1102 259 q 501 -20 756 -20 m 543 1134 q 527 1204 519 1163 q 571 1274 535 1244 q 646 1304 606 1304 q 710 1274 686 1304 q 726 1204 734 1244 q 683 1134 718 1163 q 609 1105 649 1105 q 543 1134 568 1105 m 846 1134 q 830 1204 822 1163 q 874 1274 838 1244 q 949 1304 908 1304 q 1014 1274 990 1304 q 1030 1204 1038 1244 q 987 1134 1022 1163 q 911 1105 952 1105 q 846 1134 870 1105 "},"ˈ":{"x_min":99.015625,"x_max":292.96875,"ha":392,"o":"m 99 713 l 165 1055 l 292 1055 l 226 713 l 99 713 "},"ɘ":{"x_min":49,"x_max":827.5625,"ha":883,"o":"m 328 407 l 560 407 l 563 419 q 573 607 589 551 q 495 664 557 664 q 394 606 431 664 q 328 407 356 549 m 49 326 q 208 635 92 529 q 504 740 325 740 q 769 640 686 740 q 817 360 851 539 q 662 78 782 177 q 356 -20 543 -20 q 124 37 200 -20 q 49 218 49 95 l 158 218 q 197 98 158 139 q 315 56 237 56 q 463 118 409 56 q 544 320 517 180 l 545 326 l 49 326 "},"₈":{"x_min":12.421875,"x_max":578.234375,"ha":608,"o":"m 412 296 q 517 247 486 285 q 534 147 547 209 q 441 29 517 70 q 240 -11 365 -11 q 56 29 114 -11 q 16 147 0 70 q 78 247 29 209 q 204 296 126 285 q 114 341 141 309 q 99 421 88 372 q 183 529 114 492 q 368 567 252 567 q 537 529 484 567 q 574 421 590 492 q 522 341 563 372 q 412 296 482 309 m 408 419 q 410 501 421 479 q 359 524 398 524 q 298 501 319 524 q 264 419 277 479 q 262 339 251 361 q 313 318 273 318 q 374 339 353 318 q 408 419 395 361 m 365 154 q 366 248 381 222 q 303 274 352 274 q 229 248 254 274 q 188 154 203 222 q 187 58 172 85 q 250 32 200 32 q 324 58 298 32 q 365 154 350 85 "},"ạ":{"x_min":37.0625,"x_max":799.921875,"ha":900,"o":"m 568 594 q 529 635 568 635 q 349 526 438 635 q 275 309 308 476 q 268 135 251 183 q 350 87 286 87 q 453 143 414 87 q 517 325 493 199 l 568 594 m 799 699 l 681 83 l 771 83 l 755 0 l 454 0 l 471 92 q 264 -19 397 -19 q 75 67 133 -19 q 47 304 17 153 q 206 586 76 455 q 566 741 360 741 q 799 699 770 741 m 197 -196 q 240 -126 205 -155 q 315 -97 275 -97 q 380 -126 356 -97 q 396 -196 404 -155 q 353 -266 388 -236 q 277 -296 318 -296 q 213 -266 237 -296 q 197 -196 189 -236 "},"⇖":{"x_min":205,"x_max":1073.0625,"ha":1164,"o":"m 268 488 l 230 398 l 205 423 l 205 820 l 209 825 l 606 825 l 631 799 l 541 761 l 1073 230 l 980 136 l 408 708 l 346 683 l 321 621 l 893 49 l 799 -43 l 268 488 "},"д":{"x_min":47,"x_max":920,"ha":965,"o":"m 302 182 q 309 122 302 145 q 404 56 327 56 q 519 115 480 56 q 592 323 558 173 q 627 540 627 473 q 616 598 627 577 q 522 663 585 663 q 401 597 445 663 q 330 390 357 532 q 302 182 302 249 m 47 266 q 56 360 47 310 q 218 639 91 538 q 517 740 346 740 q 614 714 574 740 q 671 660 654 688 q 651 870 687 780 q 497 978 607 978 q 356 922 426 978 l 306 979 q 512 1055 377 1055 q 883 899 804 1055 q 920 699 920 827 q 852 290 920 482 q 707 81 805 158 q 389 -20 580 -20 q 110 81 198 -20 q 47 266 47 154 "},"ӥ":{"x_min":88.328125,"x_max":932.21875,"ha":1010,"o":"m 932 721 l 808 82 l 910 82 l 894 0 l 551 0 l 571 101 q 454 8 515 37 q 308 -20 393 -20 q 139 51 187 -20 q 108 170 108 97 q 118 262 108 212 l 191 639 l 88 639 l 103 721 l 447 721 l 365 299 q 349 169 349 215 q 355 128 349 142 q 429 93 370 93 q 546 146 502 93 q 612 316 590 200 l 691 721 l 932 721 m 390 995 q 433 1065 398 1036 q 509 1095 469 1095 q 574 1065 550 1095 q 589 995 597 1036 q 546 925 580 955 q 471 896 511 896 q 406 925 431 896 q 390 995 382 955 m 693 995 q 736 1065 701 1036 q 812 1095 771 1095 q 877 1065 852 1095 q 893 995 901 1036 q 850 925 886 955 q 774 896 814 896 q 709 925 733 896 q 693 995 686 955 "},"ʛ":{"x_min":44.71875,"x_max":1117.171875,"ha":870,"o":"m 675 488 q 618 622 675 566 q 525 664 577 664 q 381 590 446 664 q 284 357 315 516 q 288 124 253 198 q 396 50 323 50 q 474 77 429 50 l 514 278 l 415 278 l 426 335 l 755 335 l 702 65 q 533 10 616 28 q 369 -7 451 -7 q 105 90 189 -7 q 53 356 21 187 q 208 622 87 525 q 510 720 331 720 q 565 720 538 720 l 586 831 q 697 998 608 941 q 939 1055 786 1055 q 1024 1048 980 1055 q 1117 1028 1069 1041 l 1087 876 l 1010 876 q 1004 954 1019 930 q 944 978 989 978 q 868 946 894 978 q 826 831 843 914 l 793 659 l 772 553 l 760 488 l 675 488 "},"Ḙ":{"x_min":-32.546875,"x_max":1074.21875,"ha":1059,"o":"m -32 0 l -16 82 l 112 82 l 278 931 l 148 931 l 164 1013 l 1074 1013 l 1028 774 l 934 774 l 962 920 l 536 920 l 473 595 l 738 595 l 763 723 l 856 723 l 788 374 l 695 374 l 720 503 l 455 503 l 376 92 l 815 92 l 842 238 l 935 238 l 889 0 l -32 0 m 358 -79 l 522 -79 l 645 -334 l 534 -334 l 419 -181 l 245 -333 l 134 -333 l 358 -79 "},"𝜳":{"x_min":92.234375,"x_max":1357.6875,"ha":1268,"o":"m 952 618 l 989 806 l 989 806 q 1159 1013 1028 1013 l 1357 1013 l 1342 931 l 1272 931 q 1188 806 1211 931 l 1149 607 q 1005 333 1112 414 q 715 256 912 256 l 682 82 l 812 82 l 796 0 l 276 0 l 291 82 l 421 82 l 454 256 q 195 333 256 256 q 158 607 122 418 l 197 806 q 161 931 222 931 l 92 931 l 107 1013 l 305 1013 q 396 806 437 1013 l 396 806 l 359 618 q 378 391 327 456 q 472 341 402 360 l 586 931 l 457 931 l 472 1013 l 993 1013 l 977 931 l 847 931 l 733 341 q 845 391 812 354 q 952 618 927 484 "},"⠴":{"x_min":203,"x_max":881,"ha":1084,"o":"m 242 129 q 203 225 203 169 q 243 321 203 281 q 338 361 283 361 q 433 321 393 361 q 474 225 474 281 q 434 129 474 169 q 338 90 394 90 q 242 129 282 90 m 649 491 q 610 587 610 531 q 650 683 610 643 q 745 723 690 723 q 840 683 800 723 q 881 587 881 643 q 841 491 881 531 q 745 452 801 452 q 649 491 689 452 m 649 129 q 610 225 610 169 q 650 321 610 281 q 745 361 690 361 q 840 321 800 361 q 881 225 881 281 q 841 129 881 169 q 745 90 801 90 q 649 129 689 90 "},"ʐ":{"x_min":8.8125,"x_max":929.765625,"ha":789,"o":"m 8 -1 l 24 81 l 547 641 l 236 641 l 211 517 l 130 517 l 170 720 l 842 720 l 826 639 l 303 80 l 717 80 l 713 59 l 714 59 l 686 -85 q 683 -200 670 -168 q 746 -232 697 -232 q 816 -208 791 -232 q 853 -130 840 -184 l 929 -130 l 899 -282 q 800 -302 847 -295 q 712 -309 752 -309 q 492 -252 562 -309 q 446 -85 424 -197 l 463 -1 l 8 -1 "},"ὂ":{"x_min":47,"x_max":880,"ha":925,"o":"m 404 56 q 523 121 480 56 q 600 360 566 186 q 623 541 623 474 q 616 599 623 576 q 522 664 598 664 q 401 598 445 664 q 324 360 357 533 q 302 182 302 249 q 309 122 302 145 q 404 56 327 56 m 707 81 q 389 -20 579 -20 q 110 81 198 -20 q 47 267 47 154 q 56 360 47 310 q 218 639 91 539 q 537 740 346 740 q 816 640 728 740 q 880 454 880 567 q 869 360 880 410 q 707 81 835 182 m 348 973 q 281 993 304 967 q 265 1063 257 1021 q 308 1133 272 1100 q 384 1162 340 1162 q 456 1124 430 1162 q 470 1041 478 1079 q 436 954 459 981 q 316 828 399 909 l 255 860 q 348 973 304 891 m 710 1110 l 835 856 l 724 856 l 521 1110 l 710 1110 "},"↟":{"x_min":298,"x_max":865,"ha":1163,"o":"m 656 0 l 507 0 l 507 633 l 298 545 l 298 580 l 507 791 l 507 803 l 298 714 l 298 750 l 578 1033 l 584 1033 l 865 750 l 865 714 l 656 803 l 656 791 l 865 580 l 865 545 l 656 633 l 656 0 "},"î":{"x_min":63.0625,"x_max":574.40625,"ha":528,"o":"m 335 82 l 438 82 l 423 0 l 80 0 l 204 639 l 101 639 l 117 721 l 459 721 l 335 82 m 286 1110 l 450 1110 l 574 856 l 463 856 l 348 1008 l 174 856 l 63 856 l 286 1110 "},"ύ":{"x_min":101.71875,"x_max":919.8125,"ha":964,"o":"m 422 -1 q 126 236 80 -1 l 204 639 l 101 639 l 118 721 l 460 721 l 365 235 q 438 82 335 82 q 565 161 505 82 q 652 391 622 237 q 662 588 678 521 q 625 691 643 674 l 632 721 l 719 721 q 882 588 829 676 q 912 381 935 500 q 847 215 892 275 q 727 92 779 129 q 583 23 661 47 q 422 -1 505 -1 m 652 1111 l 841 1111 l 538 856 l 427 856 l 652 1111 "},"ϰ":{"x_min":0.328125,"x_max":909.234375,"ha":909,"o":"m 455 270 l 368 238 q 293 133 340 196 q 12 20 128 -84 q 25 139 -17 47 q 167 293 66 225 l 240 350 q 338 563 328 492 q 327 628 346 617 q 248 619 286 651 q 168 483 197 574 l 92 483 l 131 683 q 294 722 222 714 q 378 708 322 725 q 486 594 486 677 q 473 444 486 514 l 547 477 l 622 582 q 896 695 779 799 q 884 576 926 668 q 742 422 843 490 l 669 365 q 574 152 585 225 q 593 87 567 104 q 660 97 625 65 q 740 233 713 142 l 816 233 l 778 32 q 614 -7 684 0 q 532 7 582 -10 q 429 121 429 44 q 455 270 429 199 "},"ɓ":{"x_min":34.59375,"x_max":896.5625,"ha":971,"o":"m 337 324 q 334 142 313 198 q 427 86 355 86 q 542 145 501 86 q 615 360 584 205 q 626 574 645 515 q 534 634 608 634 q 419 577 462 634 q 351 395 375 521 l 337 324 m 196 831 q 307 998 218 941 q 549 1055 396 1055 q 634 1048 590 1055 q 726 1028 679 1041 l 697 876 l 620 876 q 614 954 629 930 q 554 978 598 978 q 478 946 504 978 q 436 830 453 914 l 397 629 q 495 712 438 684 q 627 740 552 740 q 850 638 781 740 q 885 360 919 537 q 742 81 850 183 q 480 -20 634 -20 q 358 7 404 -20 q 292 91 311 34 l 274 0 l 34 0 l 196 831 "},"ǫ":{"x_min":47,"x_max":880,"ha":925,"o":"m 404 56 q 523 121 480 56 q 600 360 566 187 q 623 541 623 474 q 616 599 623 576 q 522 664 598 664 q 401 598 445 664 q 324 360 357 533 q 302 183 302 249 q 309 122 302 145 q 404 56 327 56 m 707 81 q 389 -20 579 -20 q 110 81 198 -20 q 47 267 47 154 q 56 360 47 310 q 218 639 91 539 q 537 740 346 740 q 816 640 728 740 q 880 454 880 567 q 869 360 880 410 q 707 81 835 182 m 352 -11 l 437 -11 q 377 -80 395 -55 q 355 -124 359 -105 q 366 -167 350 -152 q 418 -183 383 -183 q 473 -177 444 -183 q 529 -162 501 -172 l 507 -268 q 436 -279 469 -275 q 375 -283 403 -283 q 262 -251 298 -283 q 236 -163 225 -220 q 272 -91 243 -128 q 352 -11 300 -54 "},"⢧":{"x_min":203,"x_max":881,"ha":1084,"o":"m 242 853 q 203 949 203 893 q 243 1045 203 1005 q 338 1085 283 1085 q 433 1045 393 1085 q 474 949 474 1005 q 434 853 474 893 q 338 814 394 814 q 242 853 282 814 m 242 492 q 203 588 203 532 q 243 684 203 644 q 338 724 283 724 q 433 684 393 724 q 474 588 474 644 q 434 492 474 532 q 338 453 394 453 q 242 492 282 453 m 242 129 q 203 225 203 169 q 243 321 203 281 q 338 361 283 361 q 433 321 393 361 q 474 225 474 281 q 434 129 474 169 q 338 90 394 90 q 242 129 282 90 m 649 129 q 610 225 610 169 q 650 321 610 281 q 745 361 690 361 q 840 321 800 361 q 881 225 881 281 q 841 129 881 169 q 745 90 801 90 q 649 129 689 90 m 649 -231 q 610 -135 610 -191 q 650 -39 610 -79 q 745 0 690 0 q 840 -39 800 0 q 881 -135 881 -79 q 841 -231 881 -191 q 745 -271 801 -271 q 649 -231 689 -271 "},"⠗":{"x_min":203,"x_max":881,"ha":1084,"o":"m 242 853 q 203 949 203 893 q 243 1045 203 1005 q 338 1085 283 1085 q 433 1045 393 1085 q 474 949 474 1005 q 434 853 474 893 q 338 814 394 814 q 242 853 282 814 m 242 491 q 203 587 203 531 q 243 683 203 643 q 338 723 283 723 q 433 683 393 723 q 474 587 474 643 q 434 491 474 531 q 338 452 394 452 q 242 491 282 452 m 242 129 q 203 225 203 169 q 243 321 203 281 q 338 361 283 361 q 433 321 393 361 q 474 225 474 281 q 434 129 474 169 q 338 90 394 90 q 242 129 282 90 m 649 491 q 610 587 610 531 q 650 683 610 643 q 745 723 690 723 q 840 683 800 723 q 881 587 881 643 q 841 491 881 531 q 745 452 801 452 q 649 491 689 452 "},"":{"x_min":43.828125,"x_max":1099,"ha":1209,"o":"m 807 1049 q 802 1108 817 1090 q 756 1126 787 1126 q 731 1122 743 1126 q 707 1110 718 1119 q 687 1087 696 1102 q 672 1049 678 1072 q 668 1012 667 1026 q 677 987 670 997 q 693 970 683 976 q 714 957 703 963 q 771 992 745 971 q 807 1049 797 1013 m 473 1048 l 453 962 q 427 916 440 945 q 401 850 414 886 q 376 773 388 814 q 352 691 363 732 q 331 613 341 650 q 314 545 322 575 q 284 339 284 425 q 306 196 284 252 q 376 114 329 140 q 498 88 424 88 q 622 113 568 88 q 718 193 676 139 q 792 328 760 246 q 852 521 824 410 q 864 620 864 569 q 845 717 864 671 q 792 802 827 763 q 701 862 757 840 q 621 795 652 834 q 580 716 590 756 q 590 644 570 677 q 663 596 610 612 l 630 465 q 519 492 564 472 q 448 541 474 512 q 415 606 423 570 q 418 680 408 642 q 442 741 425 710 q 484 801 459 772 q 541 856 509 830 q 613 903 574 883 q 575 924 594 911 q 543 955 556 937 q 524 997 530 974 q 525 1048 519 1020 q 561 1128 537 1096 q 618 1180 585 1160 q 692 1208 651 1200 q 779 1217 733 1217 q 868 1208 828 1217 q 932 1181 907 1200 q 966 1129 957 1162 q 963 1049 975 1097 q 944 1003 956 1022 q 913 969 932 984 q 868 941 894 954 q 805 915 841 929 q 966 848 901 889 q 1064 752 1030 807 q 1099 627 1099 696 q 1083 474 1099 557 q 1036 348 1067 410 q 963 232 1006 287 q 867 131 921 177 q 751 51 813 85 q 619 -1 689 17 q 474 -20 549 -20 q 241 21 332 -20 q 101 133 150 62 q 45 298 53 204 q 63 496 37 391 q 107 635 82 574 q 166 749 132 696 q 245 849 200 801 q 349 947 290 896 q 327 945 338 945 q 305 945 316 945 q 247 954 274 945 q 200 982 220 963 l 250 1185 q 333 1076 293 1113 q 405 1038 374 1038 q 428 1041 414 1038 q 456 1050 441 1045 l 473 1048 "},"⥼":{"x_min":228,"x_max":954,"ha":1164,"o":"m 482 15 q 302 89 377 15 q 228 269 228 164 q 302 449 228 375 q 228 628 228 524 q 302 808 228 733 q 482 883 377 883 l 482 734 q 407 703 438 734 q 377 628 377 672 q 407 554 377 585 q 482 524 438 524 l 954 524 l 954 375 l 482 375 q 407 344 438 375 q 377 269 377 313 q 407 194 377 225 q 482 164 438 164 l 482 15 "},"𝒓":{"x_min":77.796875,"x_max":815.65625,"ha":732,"o":"m 815 729 l 773 514 l 696 514 q 699 540 699 528 q 682 599 699 578 q 609 628 661 628 q 471 558 530 628 q 389 366 412 489 l 317 0 l 77 0 l 201 639 l 92 639 l 107 721 l 457 721 l 433 592 q 547 704 482 668 q 696 741 612 741 q 747 737 718 741 q 815 729 777 734 "},"‸":{"x_min":140.375,"x_max":877.546875,"ha":1018,"o":"m 877 -330 l 740 -330 l 508 -159 l 277 -330 l 140 -330 l 508 41 l 877 -330 "},"↨":{"x_min":298.390625,"x_max":864.875,"ha":1163,"o":"m 656 149 l 848 149 l 848 0 l 315 0 l 315 149 l 507 149 l 507 151 l 298 361 l 298 397 l 507 309 l 507 802 l 298 714 l 298 749 l 578 1032 l 585 1032 l 864 749 l 864 714 l 656 802 l 656 309 l 864 397 l 864 361 l 656 151 l 656 149 "},"Ξ":{"x_min":-21.015625,"x_max":990.8125,"ha":977,"o":"m 747 189 l 766 286 l 849 286 l 794 0 l -21 0 l 34 286 l 118 286 l 99 189 l 747 189 m 870 824 l 222 824 l 203 726 l 120 726 l 175 1013 l 990 1013 l 935 726 l 851 726 l 870 824 m 324 503 l 299 374 l 216 374 l 284 723 l 367 723 l 342 595 l 661 595 l 686 723 l 769 723 l 701 374 l 618 374 l 643 503 l 324 503 "},"⥏":{"x_min":507,"x_max":864.875,"ha":1163,"o":"m 507 1037 l 513 1037 l 864 682 l 864 646 l 656 735 l 656 269 l 864 358 l 864 322 l 513 -32 l 507 -32 l 507 1037 "},"𝑿":{"x_min":-72.5625,"x_max":1122.375,"ha":1078,"o":"m 448 390 l 177 82 l 302 82 l 286 0 l -72 0 l -56 82 l 67 82 l 409 469 l 183 931 l 90 931 l 105 1013 l 609 1013 l 593 931 l 482 931 l 622 645 l 872 931 l 754 931 l 769 1013 l 1122 1013 l 1106 931 l 981 931 l 660 567 l 898 82 l 994 82 l 978 0 l 473 0 l 488 82 l 601 82 l 448 390 "},"⡉":{"x_min":203,"x_max":881,"ha":1084,"o":"m 242 853 q 203 949 203 893 q 243 1045 203 1005 q 338 1085 283 1085 q 433 1045 393 1085 q 474 949 474 1005 q 434 853 474 893 q 338 814 394 814 q 242 853 282 814 m 649 853 q 610 949 610 893 q 650 1045 610 1005 q 745 1085 690 1085 q 840 1045 800 1085 q 881 949 881 1005 q 841 853 881 893 q 745 814 801 814 q 649 853 689 814 m 242 -231 q 203 -135 203 -191 q 243 -39 203 -79 q 338 0 283 0 q 433 -39 393 0 q 474 -135 474 -79 q 434 -231 474 -191 q 338 -271 394 -271 q 242 -231 282 -271 "},"ŵ":{"x_min":42.046875,"x_max":1235.625,"ha":1196,"o":"m 622 1111 l 786 1111 l 910 856 l 798 856 l 684 1008 l 509 856 l 398 856 l 622 1111 m 893 203 q 994 326 899 208 q 1129 638 1091 450 l 1034 638 l 1051 721 l 1235 721 q 1112 328 1196 461 q 851 0 980 122 l 685 0 l 620 451 l 379 0 l 214 0 l 120 639 l 42 639 l 57 721 l 353 721 l 422 248 l 675 721 l 818 721 l 893 203 "},"⣑":{"x_min":203,"x_max":881,"ha":1084,"o":"m 242 853 q 203 949 203 893 q 243 1045 203 1005 q 338 1085 283 1085 q 433 1045 393 1085 q 474 949 474 1005 q 434 853 474 893 q 338 814 394 814 q 242 853 282 814 m 649 492 q 610 588 610 532 q 650 684 610 644 q 745 724 690 724 q 840 684 800 724 q 881 588 881 644 q 841 492 881 532 q 745 453 801 453 q 649 492 689 453 m 242 -231 q 203 -135 203 -191 q 243 -39 203 -79 q 338 0 283 0 q 433 -39 393 0 q 474 -135 474 -79 q 434 -231 474 -191 q 338 -271 394 -271 q 242 -231 282 -271 m 649 -231 q 610 -135 610 -191 q 650 -39 610 -79 q 745 0 690 0 q 840 -39 800 0 q 881 -135 881 -79 q 841 -231 881 -191 q 745 -271 801 -271 q 649 -231 689 -271 "},"ᾚ":{"x_min":84.765625,"x_max":1921.9375,"ha":1886,"o":"m 540 0 l 556 82 l 685 82 l 851 931 l 721 931 l 737 1013 l 1258 1013 l 1242 931 l 1112 931 l 1045 590 l 1448 590 l 1515 931 l 1385 931 l 1401 1013 l 1921 1013 l 1906 931 l 1776 931 l 1610 82 l 1740 82 l 1725 0 l 1204 0 l 1220 82 l 1349 82 l 1430 497 l 1027 497 l 946 82 l 1076 82 l 1061 0 l 540 0 m 177 973 q 111 993 134 967 q 94 1063 86 1021 q 138 1133 102 1100 q 214 1163 170 1163 q 286 1124 260 1163 q 300 1041 307 1079 q 266 954 288 981 q 145 828 229 909 l 84 860 q 177 973 134 892 m 540 1111 l 665 856 l 554 856 l 351 1111 l 540 1111 m 1219 -277 l 1168 -288 q 1036 -171 1007 -322 l 1053 -83 l 1187 -83 l 1169 -180 q 1192 -234 1156 -243 l 1229 -225 l 1219 -277 "},"№":{"x_min":-46.859375,"x_max":1448,"ha":1510,"o":"m 1129 670 q 1288 749 1204 749 q 1418 669 1373 749 q 1448 565 1448 616 q 1346 287 1448 393 q 1183 207 1269 207 q 1061 271 1097 207 q 1026 387 1026 336 q 1129 670 1026 559 m 1347 513 q 1327 583 1347 549 q 1264 617 1308 617 q 1182 576 1220 617 q 1128 440 1128 519 q 1147 371 1128 404 q 1210 339 1166 339 q 1293 379 1255 339 q 1347 513 1347 435 m 958 94 l 1365 94 l 1348 2 l 941 2 l 958 94 m 858 814 q 931 961 876 908 q 1129 1015 985 1015 l 1108 908 q 991 888 1017 908 q 954 815 964 869 l 796 2 l 618 2 l 331 731 l 224 180 q 151 33 206 86 q -46 -20 96 -20 l -25 86 q 91 105 65 86 q 128 178 117 124 l 274 930 l 145 930 l 161 1012 l 478 1012 l 758 298 l 858 814 "},"ẏ":{"x_min":-26.078125,"x_max":886.0625,"ha":807,"o":"m 336 -185 l 144 639 l 66 639 l 82 721 l 376 721 l 538 23 q 668 263 616 136 q 772 637 720 390 l 675 637 l 691 720 l 886 720 q 844 521 869 633 q 709 118 784 246 q 350 -274 510 -213 q 130 -309 260 -309 q -26 -279 66 -309 l 3 -129 l 79 -129 q 77 -159 77 -145 q 108 -221 77 -206 q 152 -231 123 -227 q 184 -234 168 -234 q 336 -185 260 -234 m 410 994 q 454 1064 418 1035 q 529 1094 488 1094 q 594 1064 570 1094 q 610 994 618 1035 q 567 924 602 954 q 491 895 532 895 q 426 924 450 895 q 410 994 403 954 "},"𝝏":{"x_min":52,"x_max":694,"ha":743,"o":"m 517 448 q 537 576 530 515 q 544 682 544 637 q 526 788 544 749 q 478 828 508 828 q 379 778 448 828 q 270 729 310 729 q 222 749 242 729 q 203 798 203 769 q 261 878 203 841 q 404 915 320 915 q 614 805 535 915 q 694 512 694 696 q 587 132 694 282 q 318 -17 481 -17 q 127 60 202 -17 q 52 258 52 138 q 130 481 52 392 q 325 571 209 571 q 440 541 394 571 q 517 448 487 511 m 475 351 q 449 471 475 429 q 374 514 423 514 q 260 423 305 514 q 215 191 215 332 q 241 71 215 112 q 317 30 267 30 q 430 120 385 30 q 475 351 475 211 "},"ƫ":{"x_min":88.15625,"x_max":718.1875,"ha":642,"o":"m 261 639 l 157 639 l 173 721 l 278 721 l 321 944 l 561 944 l 518 721 l 718 721 l 701 639 l 501 639 l 416 197 q 408 80 398 103 q 457 57 418 57 l 645 57 l 618 -84 q 507 -252 596 -195 q 265 -309 418 -309 q 180 -302 225 -309 q 88 -282 134 -295 l 118 -130 l 194 -130 q 200 -208 185 -184 q 261 -232 216 -232 q 336 -200 309 -232 q 378 -84 361 -169 l 390 -19 q 387 -19 389 -19 q 195 26 239 -19 q 176 197 151 73 l 261 639 "},"ί":{"x_min":103.078125,"x_max":662.578125,"ha":672,"o":"m 552 22 q 208 30 325 -53 q 126 236 101 107 l 205 639 l 103 639 l 118 721 l 461 721 l 366 234 q 420 82 337 82 q 572 127 503 82 l 552 22 m 473 1111 l 662 1111 l 359 856 l 248 856 l 473 1111 "},"":{"x_min":47,"x_max":1150.96875,"ha":1175,"o":"m 599 1011 q 602 1086 611 1062 q 554 1110 593 1110 q 512 1093 530 1110 q 478 1047 494 1077 q 449 972 462 1016 q 420 871 435 928 l 407 817 q 486 846 454 831 q 539 884 517 862 q 574 936 560 905 q 599 1011 587 966 m 1143 854 q 1121 800 1136 826 q 1084 753 1105 775 q 1036 714 1062 732 q 980 682 1009 697 q 1021 656 1003 671 q 1051 622 1040 640 q 1066 582 1063 604 q 1064 536 1070 561 q 1044 494 1059 513 q 1009 460 1030 476 q 963 431 989 444 q 910 407 938 419 q 951 375 932 393 q 979 333 969 357 q 990 279 990 309 q 983 209 990 248 q 920 107 968 150 q 802 36 873 64 q 641 -6 731 7 q 453 -20 552 -20 q 337 -11 394 -20 q 228 16 279 -3 q 137 67 177 35 q 71 145 96 98 q 47 255 47 192 q 67 399 47 317 l 140 698 q 220 940 175 841 q 319 1100 264 1039 q 437 1189 373 1162 q 578 1217 502 1217 q 743 1157 701 1217 q 756 982 785 1097 q 717 888 743 927 q 648 818 692 849 q 539 763 604 788 q 381 711 474 738 l 306 414 q 288 291 288 343 q 297 203 288 240 q 326 144 306 167 q 370 109 345 121 q 425 92 395 96 q 483 88 454 88 q 578 100 532 88 q 658 132 623 113 q 717 175 694 152 q 745 218 740 198 q 758 275 753 250 q 757 319 762 301 q 736 349 753 338 q 685 360 719 360 q 655 342 674 354 q 617 318 637 330 q 579 295 597 306 q 554 279 562 284 l 617 533 l 708 451 q 766 457 745 451 q 798 475 787 464 q 815 501 810 486 q 825 537 821 517 q 833 574 830 556 q 830 607 835 592 q 807 632 824 622 q 755 642 790 642 q 727 626 745 637 q 688 603 708 614 q 651 581 669 591 q 626 566 634 570 l 684 797 l 776 730 q 838 741 815 730 q 874 771 861 753 q 894 812 888 789 q 906 857 901 835 q 927 975 923 927 q 922 1058 931 1023 q 889 1121 912 1093 q 830 1179 867 1149 l 888 1221 q 1005 1167 952 1205 q 1094 1078 1058 1128 q 1143 968 1129 1027 q 1143 854 1158 910 "},"⤳":{"x_min":58.796875,"x_max":1112,"ha":1164,"o":"m 683 523 l 882 523 l 793 732 l 829 732 l 1112 452 l 1112 445 l 829 165 l 793 165 l 882 374 l 683 374 q 566 396 624 374 q 464 463 509 419 q 412 497 441 486 q 351 510 380 510 q 291 497 321 510 q 237 461 260 484 l 164 388 l 58 493 l 132 567 q 235 636 176 612 q 352 660 294 660 q 469 637 411 660 q 571 571 527 615 q 623 535 594 548 q 683 523 652 523 "},"":{"x_min":88.328125,"x_max":1447.3125,"ha":1470,"o":"m 1031 101 q 782 -20 927 -20 q 646 13 694 -20 q 581 118 597 47 q 452 13 517 46 q 310 -20 388 -20 q 108 168 108 -20 q 118 262 108 211 l 191 639 l 88 639 l 103 721 l 447 721 l 364 298 q 348 175 348 210 q 352 128 348 140 q 426 93 366 93 q 531 142 486 93 q 594 282 576 191 l 678 721 l 919 721 l 836 298 q 820 175 820 211 q 825 128 820 140 q 898 93 838 93 q 1004 142 959 93 q 1066 282 1049 191 l 1151 721 l 1391 721 l 1267 82 l 1370 82 l 1354 0 l 1011 0 l 1031 101 m 228 888 l 252 1016 l 1447 1016 l 1422 888 l 228 888 "}}}
